<?xml version="1.0" encoding="utf-8"?>
<!-- Generator: Adobe Illustrator 16.0.4, SVG Export Plug-In . SVG Version: 6.00 Build 0)  -->
<!DOCTYPE svg PUBLIC "-//W3C//DTD SVG 1.1//EN" "http://www.w3.org/Graphics/SVG/1.1/DTD/svg11.dtd">
<svg version="1.1" id="Ebene_1" xmlns="http://www.w3.org/2000/svg" xmlns:xlink="http://www.w3.org/1999/xlink" x="0px" y="0px"
	 width="64px" height="64px" viewBox="0 0 64 64" enable-background="new 0 0 64 64" xml:space="preserve">
<g>
	<path fill="#d00f1c" d="M32.069,56.11c-0.01,0.002-0.047-0.002-0.07-0.012c-0.023,0.01-0.039,0.018-0.07,0.012
		c-0.064,0-0.126-0.025-0.172-0.071L5.725,30.007c-7.913-7.914-7.621-16.229,0.864-24.718L6.847,5.03
		C10.185,1.693,13.714,0,17.333,0c4.458,0,9.085,2.461,14.144,7.521L32,7.995l0.531-0.481C37.58,2.461,42.21,0,46.666,0
		c3.618,0,7.148,1.693,10.486,5.03l0.257,0.259c8.487,8.488,8.778,16.805,0.866,24.718L32.242,56.039
		C32.196,56.085,32.135,56.11,32.069,56.11z"/>
</g>
</svg>
