<svg id="Ebene_1" data-name="Ebene 1" xmlns="http://www.w3.org/2000/svg" width="151.95" height="151.95" viewBox="0 0 151.95 151.95"><defs><style>.cls-1{fill:#333;}</style></defs><title>settings</title><path class="cls-1" d="M686.49,701L701,686.49l-5.78-10.27,9.53-22.82L716,650.23V629.77l-11.18-3.2-9.45-23L701,593.51,686.49,579l-10,5.51-23.07-9.65L650.23,564H629.77l-3.2,10.83-23.17,9.61-9.9-5.41L579,593.51l5.44,9.91-9.55,23.15L564,629.77v20.45l11,3.17,9.63,23L579,686.49,593.51,701l10.17-5.71,22.9,9.43,3.2,11.29h20.45l3.18-11.35,22.8-9.47m-26-15.12a41.33,41.33,0,0,1-50.31-50.31,40.42,40.42,0,0,1,29.59-29.59,41.33,41.33,0,0,1,50.31,50.31A40.42,40.42,0,0,1,650.23,680Z" transform="translate(-564.02 -564.02)"/></svg>