<svg id="Ebene_1" data-name="Ebene 1" xmlns="http://www.w3.org/2000/svg" width="175.22" height="128.29" viewBox="0 0 175.22 128.29"><defs><style>.cls-1{fill:#f44336;}.cls-2{fill:#fff;}</style></defs><title>statistics</title><rect class="cls-1" width="175.22" height="128.29"/><polygon class="cls-2" points="138.39 0 138.39 51.77 126.65 43.82 112.3 68.45 112.3 0 111.22 0 111.22 70.32 103.16 84.14 85.12 73.98 85.12 0 84.03 0 84.03 73.37 64.57 62.4 57.93 70.59 57.93 0 56.85 0 56.85 71.93 45.59 85.84 30.76 78.44 30.76 0 29.68 0 29.68 77.91 17.88 72.03 0 85.25 0 95.8 19.36 81.29 29.68 86.44 29.68 128.29 30.76 128.29 30.76 86.98 48.18 95.66 56.85 84.94 56.85 128.29 57.93 128.29 57.93 83.6 66.89 72.55 84.03 82.2 84.03 128.29 85.12 128.29 85.12 82.82 106.59 94.9 111.22 87.14 111.22 128.29 112.3 128.29 112.3 85.32 129.48 56.53 138.39 63.69 138.39 128.29 139.48 128.29 139.48 63.32 168.46 19.26 164.5 18.01 139.48 51.4 139.48 0 138.39 0"/></svg>