<svg id="Ebene_1" data-name="Ebene 1" xmlns="http://www.w3.org/2000/svg" width="154.75" height="153.41" viewBox="0 0 154.75 153.41"><defs><style>.cls-1{opacity:0.7;}.cls-2{fill:#333;}.cls-3{fill:#f44336;}.cls-4{fill:#e6e6e6;}.cls-5{fill:#dd3a36;}</style></defs><title>user</title><g class="cls-1"><ellipse class="cls-2" cx="40.46" cy="56.78" rx="35.33" ry="33.52"/><path class="cls-2" d="M1941.12,1925c0,25.22-9.58,32.33-13.22,32.33s-3.74-4.45-3.74-4.45" transform="translate(-1865.25 -1868.71)"/><path class="cls-2" d="M1870.38,1925c0,25.22,9.58,32.33,13.22,32.33s3.74-4.45,3.74-4.45" transform="translate(-1865.25 -1868.71)"/><ellipse class="cls-3" cx="40.37" cy="66.36" rx="25.62" ry="30.32"/><path class="cls-3" d="M1883.59,1929.89c-0.61-4-2.39-7.74-6-6.76-6.68,1.86-2.18,21.47,1.63,22.57s2.61-.08,2.61-0.08" transform="translate(-1865.25 -1868.71)"/><path class="cls-3" d="M1927.33,1930.5c0.51-4,2.19-7.68,5.84-6.59,6.73,2,2.74,21.54-1,22.53s-2.61-.15-2.61-0.15" transform="translate(-1865.25 -1868.71)"/><path class="cls-4" d="M1917.47,1949.28c-1.4-2-3.67,3.08-12,3.08-8,0-10.61-5.06-12-3.08-1.78,2.52,5,7.87,12,8C1912.87,1957.14,1919.24,1951.8,1917.47,1949.28Z" transform="translate(-1865.25 -1868.71)"/><path class="cls-2" d="M1913.11,1910.62c0,5.56-30.92,14.93-30.92,14.93l-1.59-1.8" transform="translate(-1865.25 -1868.71)"/><path class="cls-2" d="M1931.4,1923.56c-4.18-12.75-14-21.71-25.37-21.71s-21.3,8.87-25.44,21.91l32.51-13.14Z" transform="translate(-1865.25 -1868.71)"/><path class="cls-2" d="M1913.11,1910.62c0,6.36,12.13,15.89,15.86,15.67s2.43-2.73,2.43-2.73" transform="translate(-1865.25 -1868.71)"/><path class="cls-5" d="M1923.33,1963.36a25.83,25.83,0,0,1-17.57,7.09,25.54,25.54,0,0,1-17.4-7c-13.65,2.71-23.11,8.51-23.11,15.23,0,1.16.41,16.87,0.41,16.87,3.79,7.69,77.34,8.37,81.34.91v-17.78C1947,1971.88,1937.09,1966.05,1923.33,1963.36Z" transform="translate(-1865.25 -1868.71)"/></g><path class="cls-5" d="M1987.17,1968.44a35,35,0,0,1-48.77.07c-19.14,3.8-32.35,11.93-32.35,21.35,0,1.63.26,23.65,0.26,23.65,5.31,10.78,107.33,11.73,113.68,1.28v-24.93C2020,1980.38,2006.45,1972.21,1987.17,1968.44Z" transform="translate(-1865.25 -1868.71)"/><ellipse class="cls-2" cx="97.18" cy="49.28" rx="42.03" ry="45.66"/><ellipse class="cls-3" cx="97.61" cy="62.32" rx="35.91" ry="41.31"/><path class="cls-3" d="M1932,1924c-0.86-5.41-3.35-10.55-8.43-9.21-9.36,2.53-3.06,29.25,2.29,30.75s3.66-.11,3.66-0.11" transform="translate(-1865.25 -1868.71)"/><path class="cls-3" d="M1993.29,1924.82c0.71-5.38,3.06-10.46,8.19-9,9.43,2.78,3.84,29.35-1.47,30.7s-3.66-.21-3.66-0.21" transform="translate(-1865.25 -1868.71)"/><path class="cls-4" d="M1979.46,1950.4c-2-2.7-5.14,4.19-16.83,4.19-11.15,0-14.87-6.89-16.83-4.19-2.49,3.43,7,10.72,16.83,10.93C1973,1961.11,1982,1953.83,1979.46,1950.4Z" transform="translate(-1865.25 -1868.71)"/><path class="cls-2" d="M1999,1915.36c-5.86-17.38-19.62-29.58-35.55-29.58s-29.86,12.08-35.66,29.85l22.41-17,23.16-.88Z" transform="translate(-1865.25 -1868.71)"/><path class="cls-2" d="M1974.87,1874.62c11.09-.55,15.59-2.23,22.19-5.91,0,0,1.1,4.92-.06,7.85-1,2.63-2.18,2.73-2.18,2.73s5.53-.52,7.33-3.42c1.67-2.7,2.17,9.41-.68,10.62,0,0,4.73-.08,5.45-1.15s-1.85,22-3.5,22.56l-8.9-16.09-9.68-11.79" transform="translate(-1865.25 -1868.71)"/><path class="cls-2" d="M1927.79,1915.63s3.11,4.07,3.26,4.53,4.44,2,5.33.93,0.09-10.23,5.69-14.91c6.13-5.13,35-5.9,44.65.73,6.57,4.52,4.34,13.67,5.54,15.26s3.79-4.94,4.34-5.37,2.41-1.45,2.41-1.45l-12.81-15.24-21.88-9.78-24.84,14.29Z" transform="translate(-1865.25 -1868.71)"/></svg>