<?xml version="1.0" encoding="utf-8"?>
<!-- Generator: Adobe Illustrator 16.0.4, SVG Export Plug-In . SVG Version: 6.00 Build 0)  -->
<!DOCTYPE svg PUBLIC "-//W3C//DTD SVG 1.1//EN" "http://www.w3.org/Graphics/SVG/1.1/DTD/svg11.dtd">
<svg version="1.1" id="Ebene_1" xmlns="http://www.w3.org/2000/svg" xmlns:xlink="http://www.w3.org/1999/xlink" x="0px" y="0px"
	 width="800px" height="800px" viewBox="0 0 800 800" enable-background="new 0 0 800 800" xml:space="preserve">
<rect x="-3" y="-7" fill="#333333" width="809" height="814"/>
<g>
	<polygon fill="#FFFFFF" points="375.349,409.837 369.188,215.219 344.98,215.219 338.654,390.082 	"/>
	<polygon fill="#FFFFFF" points="464.145,409.983 458.835,241.319 432.366,241.319 426.907,389.953 	"/>
	<path fill="#FFFFFF" d="M490.245,382.836v47.634l-88.521-47.634v47.634l-88.524-47.634v47.634l-87.005-47.634v150.533h351.815
		V430.47L490.245,382.836z M336.657,515.209h-86.255v-49.157h86.255V515.209z M445.231,515.209h-86.258v-49.157h86.258V515.209z
		 M553.803,515.209H467.54v-49.157h86.263V515.209z"/>
</g>
<g>
	<path fill="#FFFFFF" d="M226.542,562.279l2.211,8.499c0.484,1.865,0.933,3.593,1.244,5.319h0.104
		c0.38-1.692,0.933-3.488,1.485-5.285l2.729-8.533h2.556l2.592,8.36c0.621,2.004,1.105,3.766,1.485,5.458h0.104
		c0.276-1.692,0.726-3.454,1.278-5.423l2.384-8.396h3.005L242.33,579h-2.764l-2.557-7.98c-0.587-1.865-1.071-3.523-1.485-5.492
		h-0.069c-0.414,2.004-0.933,3.73-1.52,5.527L231.24,579h-2.764l-5.043-16.721H226.542z"/>
	<path fill="#FFFFFF" d="M265.539,570.502c0,6.184-4.283,8.878-8.325,8.878c-4.525,0-8.015-3.316-8.015-8.602
		c0-5.597,3.662-8.879,8.291-8.879C262.292,561.899,265.539,565.389,265.539,570.502z M252.273,570.675
		c0,3.661,2.107,6.425,5.079,6.425c2.901,0,5.078-2.729,5.078-6.494c0-2.833-1.417-6.426-5.01-6.426
		S252.273,567.496,252.273,570.675z"/>
	<path fill="#FFFFFF" d="M269.37,567.496c0-1.969-0.035-3.662-0.139-5.217h2.66l0.104,3.282h0.139
		c0.76-2.245,2.591-3.662,4.629-3.662c0.346,0,0.587,0.035,0.863,0.104v2.867c-0.311-0.069-0.621-0.104-1.036-0.104
		c-2.142,0-3.662,1.623-4.076,3.903c-0.069,0.414-0.139,0.898-0.139,1.416V579h-3.005V567.496z"/>
	<path fill="#FFFFFF" d="M283.808,569.949h0.069c0.414-0.588,1.001-1.312,1.485-1.9l4.905-5.77h3.662l-6.46,6.875l7.357,9.846
		h-3.696l-5.769-8.015l-1.555,1.728V579h-3.006v-24.527h3.006V569.949z"/>
	<path fill="#FFFFFF" d="M307.708,557.582c0.034,1.036-0.726,1.865-1.935,1.865c-1.071,0-1.831-0.829-1.831-1.865
		c0-1.071,0.795-1.9,1.9-1.9C306.982,555.682,307.708,556.511,307.708,557.582z M304.322,579v-16.721h3.04V579H304.322z"/>
	<path fill="#FFFFFF" d="M312.404,566.806c0-1.728-0.035-3.144-0.139-4.526h2.694l0.173,2.764h0.069
		c0.829-1.589,2.764-3.144,5.527-3.144c2.314,0,5.907,1.382,5.907,7.117V579h-3.04v-9.639c0-2.694-1.002-4.939-3.869-4.939
		c-2.004,0-3.558,1.416-4.076,3.109c-0.139,0.38-0.207,0.897-0.207,1.416V579h-3.04V566.806z"/>
	<path fill="#FFFFFF" d="M338.895,567.738c0-2.143-0.069-3.869-0.138-5.459h2.729l0.139,2.868h0.069
		c1.243-2.038,3.212-3.248,5.941-3.248c4.042,0,7.082,3.421,7.082,8.499c0,6.011-3.662,8.981-7.601,8.981
		c-2.211,0-4.146-0.967-5.146-2.625H341.9v9.085h-3.006V567.738z M341.9,572.194c0,0.449,0.069,0.864,0.138,1.244
		c0.553,2.106,2.384,3.558,4.561,3.558c3.213,0,5.078-2.625,5.078-6.46c0-3.351-1.762-6.218-4.975-6.218
		c-2.073,0-4.008,1.485-4.595,3.766c-0.104,0.38-0.207,0.828-0.207,1.243V572.194z"/>
	<path fill="#FFFFFF" d="M358.547,567.496c0-1.969-0.035-3.662-0.139-5.217h2.66l0.104,3.282h0.139
		c0.76-2.245,2.591-3.662,4.629-3.662c0.346,0,0.587,0.035,0.863,0.104v2.867c-0.311-0.069-0.621-0.104-1.036-0.104
		c-2.142,0-3.662,1.623-4.076,3.903c-0.069,0.414-0.139,0.898-0.139,1.416V579h-3.005V567.496z"/>
	<path fill="#FFFFFF" d="M384.626,570.502c0,6.184-4.283,8.878-8.325,8.878c-4.525,0-8.015-3.316-8.015-8.602
		c0-5.597,3.662-8.879,8.291-8.879C381.379,561.899,384.626,565.389,384.626,570.502z M371.36,570.675
		c0,3.661,2.107,6.425,5.079,6.425c2.901,0,5.078-2.729,5.078-6.494c0-2.833-1.417-6.426-5.01-6.426S371.36,567.496,371.36,570.675z
		"/>
	<path fill="#FFFFFF" d="M402.863,562.279c-0.069,1.21-0.139,2.557-0.139,4.595v9.708c0,3.834-0.76,6.184-2.384,7.635
		c-1.623,1.52-3.973,2.003-6.08,2.003c-2.004,0-4.215-0.483-5.562-1.382l0.76-2.314c1.105,0.691,2.833,1.312,4.905,1.312
		c3.109,0,5.39-1.623,5.39-5.838v-1.865h-0.069c-0.933,1.555-2.729,2.798-5.32,2.798c-4.146,0-7.116-3.523-7.116-8.152
		c0-5.666,3.696-8.879,7.531-8.879c2.901,0,4.491,1.521,5.216,2.902h0.069l0.139-2.522H402.863z M399.719,568.878
		c0-0.519-0.034-0.967-0.172-1.382c-0.553-1.762-2.039-3.213-4.25-3.213c-2.901,0-4.975,2.453-4.975,6.322
		c0,3.281,1.658,6.011,4.94,6.011c1.865,0,3.559-1.175,4.215-3.109c0.173-0.518,0.241-1.105,0.241-1.623V568.878z"/>
	<path fill="#FFFFFF" d="M407.557,567.496c0-1.969-0.034-3.662-0.138-5.217h2.66l0.104,3.282h0.138
		c0.761-2.245,2.592-3.662,4.63-3.662c0.345,0,0.587,0.035,0.863,0.104v2.867c-0.311-0.069-0.622-0.104-1.036-0.104
		c-2.143,0-3.662,1.623-4.076,3.903c-0.069,0.414-0.139,0.898-0.139,1.416V579h-3.006V567.496z"/>
	<path fill="#FFFFFF" d="M420.199,571.192c0.068,4.111,2.694,5.804,5.734,5.804c2.177,0,3.489-0.38,4.629-0.863l0.519,2.176
		c-1.071,0.484-2.902,1.037-5.562,1.037c-5.147,0-8.223-3.386-8.223-8.43c0-5.043,2.971-9.017,7.842-9.017
		c5.459,0,6.909,4.802,6.909,7.877c0,0.622-0.068,1.105-0.104,1.416H420.199z M429.111,569.017c0.035-1.935-0.794-4.94-4.214-4.94
		c-3.075,0-4.422,2.833-4.664,4.94H429.111z"/>
	<path fill="#FFFFFF" d="M435.396,575.891c0.898,0.588,2.487,1.209,4.007,1.209c2.211,0,3.248-1.105,3.248-2.487
		c0-1.45-0.864-2.245-3.109-3.074c-3.006-1.071-4.422-2.729-4.422-4.732c0-2.695,2.176-4.906,5.77-4.906
		c1.692,0,3.178,0.484,4.11,1.037l-0.76,2.211c-0.656-0.415-1.865-0.968-3.42-0.968c-1.797,0-2.799,1.036-2.799,2.28
		c0,1.382,1.002,2.004,3.179,2.833c2.901,1.105,4.387,2.556,4.387,5.043c0,2.937-2.279,5.01-6.252,5.01
		c-1.831,0-3.524-0.449-4.698-1.141L435.396,575.891z"/>
	<path fill="#FFFFFF" d="M449.072,575.891c0.898,0.588,2.487,1.209,4.007,1.209c2.211,0,3.248-1.105,3.248-2.487
		c0-1.45-0.864-2.245-3.109-3.074c-3.006-1.071-4.422-2.729-4.422-4.732c0-2.695,2.177-4.906,5.769-4.906
		c1.693,0,3.179,0.484,4.111,1.037l-0.76,2.211c-0.656-0.415-1.865-0.968-3.42-0.968c-1.797,0-2.799,1.036-2.799,2.28
		c0,1.382,1.002,2.004,3.179,2.833c2.901,1.105,4.388,2.556,4.388,5.043c0,2.937-2.28,5.01-6.253,5.01
		c-1.831,0-3.524-0.449-4.698-1.141L449.072,575.891z"/>
	<path fill="#FFFFFF" d="M471.695,577.203c0-1.277,0.828-2.176,2.038-2.176c1.243,0,2.038,0.898,2.038,2.176
		c0,1.244-0.795,2.177-2.038,2.177C472.523,579.38,471.66,578.447,471.695,577.203z M483.198,577.203
		c0-1.277,0.864-2.176,2.073-2.176s2.004,0.898,2.038,2.176c0,1.244-0.829,2.177-2.073,2.177
		C484.027,579.38,483.164,578.447,483.198,577.203z M494.702,577.203c0-1.277,0.864-2.176,2.073-2.176s2.038,0.898,2.038,2.176
		c0,1.244-0.795,2.177-2.073,2.177C495.531,579.38,494.702,578.447,494.702,577.203z"/>
</g>
</svg>
