<svg xmlns="http://www.w3.org/2000/svg" width="60" height="60" viewBox="0 0 60 60"><path fill="#FFF" d="M45.261 6.551H23.622L13.403 18.293v31.926h31.858z"/><path fill="#B4B4B4" d="M23.622 6.551L13.403 18.293h10.219z"/><path fill="#343434" d="M45.261 12.422v37.797H19.369v2.431h28.427V12.422z"/><path fill="#CECDCD" d="M23.622 12.272v6.021h-4.96v8.287h22.161V12.272z"/><path fill="#A7A6A6" d="M40.823 26.58H18.662v-6.887s5.386 0 9.893 1.631c4.508 1.631 12.268 0 12.268 0v5.256z"/><path fill="#FFF" d="M35.232 15.536c0-.712.298-1.355.78-1.823h-.004c-1.48 0-2.678 1.157-2.678 2.585s1.199 2.585 2.678 2.585c.742 0 1.414-.292 1.898-.762-1.476-.003-2.674-1.159-2.674-2.585z"/><path d="M17.013 35.153h2.633c1.2 0 2.071.171 2.613.512s.813.884.813 1.629c0 .505-.119.92-.356 1.244s-.553.519-.946.584v.058c.536.12.923.344 1.16.671.237.328.356.764.356 1.308 0 .772-.279 1.374-.836 1.806-.557.432-1.314.648-2.271.648h-3.166v-8.46zm1.795 3.351h1.041c.487 0 .839-.075 1.057-.226.218-.15.327-.399.327-.746 0-.324-.118-.557-.356-.698-.237-.14-.612-.211-1.126-.211h-.943v1.881zm0 1.424v2.205h1.169c.494 0 .859-.095 1.094-.283.236-.189.353-.478.353-.868 0-.702-.502-1.053-1.504-1.053h-1.112zm9.751 3.686l-2.037-6.638h-.052c.074 1.35.11 2.251.11 2.703v3.935h-1.603v-8.461h2.443l2.002 6.471h.035l2.124-6.471h2.443v8.461H32.35v-4.005c0-.189.003-.407.009-.654.006-.247.032-.903.078-1.968h-.052l-2.182 6.626h-1.644zm13.438-5.822c0 .911-.284 1.607-.853 2.09-.569.482-1.378.723-2.428.723h-.77v3.009h-1.794v-8.461h2.703c1.026 0 1.807.221 2.341.663.534.441.801 1.1.801 1.976zm-4.05 1.342h.59c.551 0 .965-.109 1.238-.327.274-.218.411-.536.411-.952 0-.42-.115-.731-.344-.932-.229-.201-.59-.301-1.079-.301h-.816v2.512z" fill="#C61A25"/></svg>