<svg xmlns="http://www.w3.org/2000/svg" width="60" height="60" viewBox="0 0 60 60"><path fill="#FFF" d="M43.953 6.886H22.314L12.095 18.628v31.926h31.858z"/><path fill="#464545" d="M23.743 19.036c0 .217-.053.381-.159.494-.106.113-.262.169-.467.169-.202 0-.357-.057-.464-.17-.108-.113-.162-.278-.162-.495 0-.214.053-.378.161-.491.107-.113.263-.17.468-.17.205 0 .36.056.466.168.105.113.157.278.157.495zm-.886 0c0 .249.087.373.26.373.088 0 .153-.03.196-.091.042-.06.063-.155.063-.283a.505.505 0 0 0-.064-.285.222.222 0 0 0-.193-.092c-.175.001-.262.127-.262.378zm1.119.646v-1.288h.348v1.007h.496v.281h-.844zm1.892-.391c0 .08-.021.15-.061.212a.396.396 0 0 1-.176.144.638.638 0 0 1-.268.052.782.782 0 0 1-.397-.081v-.31c.066.034.135.06.207.08a.77.77 0 0 0 .197.029c.051 0 .09-.009.113-.027a.083.083 0 0 0 .036-.069.073.073 0 0 0-.015-.046.19.19 0 0 0-.046-.04 1.965 1.965 0 0 0-.172-.083.81.81 0 0 1-.189-.111.355.355 0 0 1-.094-.123.412.412 0 0 1-.03-.165c0-.119.043-.211.129-.278a.575.575 0 0 1 .356-.099c.133 0 .269.031.408.092l-.107.269a.774.774 0 0 0-.312-.083c-.045 0-.078.008-.099.024a.07.07 0 0 0-.031.059c0 .025.013.048.039.068.026.02.097.056.213.109a.58.58 0 0 1 .231.161.332.332 0 0 1 .068.216zm.766.391h-.348v-1.003h-.315v-.285h.976v.285h-.314v1.003zm1.263 0h-.765v-1.288h.765v.279h-.417v.203h.385v.279h-.385v.243h.417v.284zm1.786-.672c0 .215-.059.38-.177.497s-.285.175-.499.175h-.417v-1.288h.446c.207 0 .366.053.479.159.112.105.168.258.168.457zm-.361.013c0-.118-.024-.206-.07-.263-.047-.057-.118-.085-.213-.085h-.101v.721h.077c.106 0 .183-.031.232-.092.051-.061.075-.155.075-.281zm1.382.659l-.064-.242h-.418l-.065.242h-.382l.42-1.293h.464l.425 1.293h-.38zm-.136-.527l-.056-.211-.047-.182a2.695 2.695 0 0 1-.037-.16c-.005.03-.016.079-.031.148-.016.068-.05.204-.104.406h.275zm1.223.527h-.348v-1.003h-.315v-.285h.976v.285h-.314v1.003zm1.263 0h-.765v-1.288h.765v.279h-.417v.203h.385v.279h-.385v.243h.417v.284zm.225 0v-1.288h.35v1.288h-.35zm2.189-.672c0 .215-.059.38-.177.497s-.285.175-.499.175h-.417v-1.288h.446c.207 0 .366.053.479.159.113.105.168.258.168.457zm-.36.013c0-.118-.024-.206-.07-.263-.047-.057-.118-.085-.213-.085h-.101v.721h.077c.106 0 .183-.031.232-.092s.075-.155.075-.281zm1.356.659h-.765v-1.288h.765v.279h-.417v.203h.385v.279h-.385v.243h.417v.284zm.573-.469v.469h-.348v-1.288h.422c.35 0 .525.127.525.38 0 .149-.073.265-.218.346l.375.561h-.395l-.273-.469h-.088zm0-.262h.065c.122 0 .183-.054.183-.161 0-.089-.06-.133-.179-.133h-.068v.294zm-19.125 2.895H17.5l-.123-.561a3.162 3.162 0 0 1-.056-.315 2.244 2.244 0 0 1-.023.142l-.031.156-.128.578h-.411l-.319-1.287h.336l.14.645c.032.143.053.257.065.341a5.121 5.121 0 0 1 .096-.5l.113-.487h.323l.11.487a5.38 5.38 0 0 1 .096.5c.008-.065.029-.178.063-.339l.142-.647h.336l-.317 1.287zm1.248 0h-.765v-1.287h.765v.279h-.417v.203h.385v.279h-.385v.243h.417v.283zm.225 0v-1.287h.348v1.006h.496v.281h-.844zm1.617 0h-.348v-1.003h-.314v-.284h.976v.284h-.314v1.003zm.966 0v-1.287h.35v1.287h-.35zm1.471-.391c0 .08-.021.151-.061.213a.396.396 0 0 1-.176.144.654.654 0 0 1-.268.051.782.782 0 0 1-.397-.081v-.31c.066.034.135.061.207.08a.766.766 0 0 0 .197.028c.051 0 .09-.009.113-.027a.083.083 0 0 0 .036-.069.073.073 0 0 0-.015-.046.171.171 0 0 0-.046-.04 1.965 1.965 0 0 0-.172-.083.81.81 0 0 1-.189-.111.355.355 0 0 1-.094-.123.412.412 0 0 1-.03-.165c0-.119.043-.211.129-.277a.575.575 0 0 1 .356-.1c.133 0 .269.031.408.093l-.107.268a.774.774 0 0 0-.312-.083c-.045 0-.078.008-.099.024a.072.072 0 0 0-.031.059c0 .026.013.048.039.068.026.02.097.056.213.109a.59.59 0 0 1 .231.161c.046.058.068.13.068.217zm.767.391h-.348v-1.003h-.315v-.284h.976v.284h-.314v1.003zm.966-1.288h.449c.175 0 .305.026.39.078.085.052.127.133.127.243a.307.307 0 0 1-.055.185.25.25 0 0 1-.146.099v.009c.08.021.137.056.173.106a.316.316 0 0 1 .054.192.328.328 0 0 1-.132.276.578.578 0 0 1-.359.101h-.501v-1.289zm.348.494h.105c.05 0 .089-.01.116-.031.027-.021.041-.051.041-.092 0-.072-.055-.108-.164-.108h-.098v.231zm0 .255v.27h.122c.109 0 .163-.046.163-.137a.12.12 0 0 0-.044-.099c-.029-.023-.071-.034-.126-.034h-.115zm1.632.539h-.765v-1.287h.765v.279h-.417v.203h.385v.279h-.385v.243h.417v.283zm1.067-.391c0 .08-.021.151-.061.213a.396.396 0 0 1-.176.144.654.654 0 0 1-.268.051.782.782 0 0 1-.397-.081v-.31c.066.034.135.061.207.08a.766.766 0 0 0 .197.028c.051 0 .09-.009.113-.027a.083.083 0 0 0 .036-.069.073.073 0 0 0-.015-.046.171.171 0 0 0-.046-.04 1.965 1.965 0 0 0-.172-.083.81.81 0 0 1-.189-.111.355.355 0 0 1-.094-.123.412.412 0 0 1-.03-.165c0-.119.043-.211.129-.277a.575.575 0 0 1 .356-.1c.133 0 .269.031.408.093l-.107.268a.774.774 0 0 0-.312-.083c-.045 0-.078.008-.099.024a.072.072 0 0 0-.031.059c0 .026.013.048.039.068.026.02.097.056.213.109a.59.59 0 0 1 .231.161c.047.058.068.13.068.217zm.767.391h-.348v-1.003h-.315v-.284h.977v.284h-.314v1.003zm.498 0v-1.287h.35v1.287h-.35zm1.189 0l-.263-.927h-.008c.013.158.019.281.019.368v.559h-.308v-1.287h.463l.269.914h.007l.263-.914h.464v1.287h-.32v-.565l.002-.098.012-.263h-.008l-.26.925h-.332zm1.744 0l-.263-.927h-.008c.013.158.019.281.019.368v.559h-.308v-1.287h.463l.269.914h.007l.263-.914h.464v1.287h-.32v-.565c0-.029 0-.062.002-.098l.012-.263h-.008l-.26.925h-.332zm1.751 0h-.348v-1.003h-.315v-.284h.976v.284h-.314v1.003zm2.192 0h-.456l-.47-.907h-.008c.011.142.017.252.017.327v.58h-.308v-1.287h.455l.468.895h.006a5.484 5.484 0 0 1-.013-.313v-.582h.31v1.287zm.278 0v-1.287h.35v1.287h-.35zm1.202-1.021a.223.223 0 0 0-.194.102.495.495 0 0 0-.07.28c0 .248.095.372.283.372a.58.58 0 0 0 .166-.024c.053-.016.107-.035.162-.057v.294a.887.887 0 0 1-.365.071c-.194 0-.343-.056-.447-.169-.104-.113-.155-.276-.155-.489 0-.133.025-.251.075-.351a.536.536 0 0 1 .216-.233.657.657 0 0 1 .333-.082.91.91 0 0 1 .399.091l-.107.274a1.207 1.207 0 0 0-.143-.056.51.51 0 0 0-.153-.023zm1.7 1.021h-.35v-.525h-.404v.525h-.35v-1.287h.35v.477h.404v-.477h.35v1.287zm.846 0h-.348v-1.003h-.315v-.284h.977v.284h-.314v1.003zm-22.772 1.493c0 .215-.059.38-.177.497s-.285.174-.499.174h-.417v-1.287h.446c.207 0 .366.053.479.159.112.105.168.257.168.457zm-.361.012c0-.118-.024-.205-.07-.262-.047-.057-.118-.086-.213-.086h-.101v.721h.077c.106 0 .183-.031.232-.092.05-.061.075-.154.075-.281zm1.356.659h-.765v-1.287h.765v.279h-.417v.203h.385v.279h-.385v.243h.417v.283zm.225 0v-1.287h.35v1.287h-.35zm1.854 0h-.456l-.47-.907h-.008c.011.142.017.252.017.327v.58h-.308v-1.287h.455l.468.895h.006a5.484 5.484 0 0 1-.013-.313v-.582h.31v1.287zm1.681-.878c0 .144-.042.255-.127.334-.085.079-.205.117-.361.117h-.098v.427h-.348v-1.287h.446c.163 0 .285.035.366.106a.382.382 0 0 1 .122.303zm-.586.167h.063a.172.172 0 0 0 .124-.044.157.157 0 0 0 .046-.121c0-.087-.048-.13-.144-.13h-.09v.295zm1.885.04c0 .215-.059.38-.177.497s-.285.174-.499.174h-.417v-1.287h.446c.207 0 .366.053.479.159.112.105.168.257.168.457zm-.361.012c0-.118-.024-.205-.07-.262-.047-.057-.118-.086-.213-.086h-.101v.721H23c.106 0 .183-.031.232-.092.05-.061.075-.154.075-.281zm.934.659h-.343v-1.287h.761v.279h-.418v.246h.386v.279h-.386v.483zm.528-.346v-.275h.498v.275h-.498zm1.768-.325c0 .215-.059.38-.177.497s-.285.174-.499.174h-.417v-1.287h.446c.207 0 .366.053.479.159.112.105.168.257.168.457zm-.361.012c0-.118-.024-.205-.07-.262-.047-.057-.118-.086-.213-.086h-.101v.721h.077c.106 0 .183-.031.232-.092.05-.061.075-.154.075-.281zm1.796.013c0 .217-.053.381-.159.494s-.262.169-.467.169c-.202 0-.357-.056-.464-.17-.108-.113-.162-.278-.162-.495 0-.214.053-.378.161-.491.107-.113.263-.17.468-.17.205 0 .36.056.466.169s.157.277.157.494zm-.886 0c0 .249.087.373.26.373.088 0 .153-.03.196-.091.042-.06.063-.154.063-.283 0-.128-.021-.223-.064-.285s-.108-.092-.193-.092c-.175.001-.262.127-.262.378zm2.218.646h-.393l-.255-.492-.103.061v.431h-.35v-1.287h.35v.559c.018-.035.053-.09.107-.165l.27-.395h.38l-.406.577.4.711zm1.234-1.287v.775a.523.523 0 0 1-.143.392c-.095.092-.233.138-.412.138-.176 0-.31-.045-.405-.135-.094-.09-.141-.219-.141-.387v-.783h.35v.755c0 .091.017.157.051.198.034.041.084.061.15.061.071 0 .123-.02.154-.061.032-.041.048-.108.048-.2v-.754h.348zm.832 1.287l-.263-.927h-.008c.013.158.019.281.019.368v.559h-.308v-1.287h.463l.269.914h.007l.263-.914h.464v1.287h-.32v-.565l.002-.098.012-.263h-.008l-.26.925h-.332zm1.947 0h-.765v-1.287h.765v.279H32.9v.203h.385v.279H32.9v.243h.417v.283zm1.451 0h-.456l-.47-.907h-.008c.011.142.017.252.017.327v.58h-.308v-1.287h.455l.468.895h.006a5.484 5.484 0 0 1-.013-.313v-.582h.31v1.287zm.846 0h-.348v-1.003h-.315v-.284h.976v.284h-.314v1.003zm.797-.263l.012.02a3.502 3.502 0 0 1-.155.494h-.246a6.981 6.981 0 0 0 .087-.515h.302zm1.45-1.024h.39l-.422 1.287h-.409L37 22.723h.391l.175.652c.037.145.056.246.06.303.004-.041.013-.092.025-.154.013-.061.023-.11.033-.145l.177-.656zm1.293 1.287h-.765v-1.287h.765v.279h-.417v.203h.385v.279h-.385v.243h.417v.283zm.573-.469v.469h-.348v-1.287h.422c.35 0 .525.127.525.38 0 .149-.073.264-.218.346l.375.561h-.395l-.273-.469h-.088zm0-.261h.065c.122 0 .183-.053.183-.161 0-.089-.06-.133-.179-.133h-.068v.294zm.771.384v-.275h.498v.275h-.498zm-23.059 2.51h-1.003v-.214l.557-.792h-.544v-.281h.976v.214l-.558.793h.572v.28zm.948 0h-.765v-1.288h.765v.279h-.417v.203h.385v.279h-.385v.243h.417v.284zm.225 0v-1.288h.35v1.288h-.35zm1.732 0h-.35v-.524h-.404v.525h-.35v-1.288h.35v.478h.404v-.478h.35v1.287zm1.373-1.287v.775a.523.523 0 0 1-.143.392c-.095.093-.233.139-.412.139-.176 0-.31-.045-.405-.135-.094-.09-.141-.219-.141-.387v-.783h.35v.756c0 .091.017.157.051.198.034.041.084.061.15.061.071 0 .123-.021.154-.061.032-.041.048-.107.048-.2v-.754h.348zm1.496 1.287h-.456l-.47-.907h-.008c.011.143.017.252.017.327v.58h-.308v-1.288h.455l.468.895h.006a5.484 5.484 0 0 1-.013-.313v-.582h.31v1.288zm.795-.753h.556v.694a1.548 1.548 0 0 1-.498.077c-.198 0-.352-.058-.46-.173-.108-.115-.163-.279-.163-.492 0-.208.059-.37.178-.486.118-.116.284-.173.498-.173a1.11 1.11 0 0 1 .417.081l-.11.273a.679.679 0 0 0-.305-.068.292.292 0 0 0-.236.099.432.432 0 0 0-.083.283c0 .12.025.212.075.275a.26.26 0 0 0 .217.095.625.625 0 0 0 .142-.015v-.201h-.229v-.269zm.755.607c0-.054.016-.096.048-.125.032-.03.079-.044.139-.044a.19.19 0 0 1 .134.044.164.164 0 0 1 .047.125.161.161 0 0 1-.048.124.186.186 0 0 1-.133.045.201.201 0 0 1-.137-.044.161.161 0 0 1-.05-.125z"/><path fill="#B4B4B4" d="M22.314 6.886L12.095 18.628h10.219z"/><path fill="#343434" d="M43.953 12.757v37.797H18.06v2.43h28.428V12.757z"/><path fill="#464545" d="M16.521 18.628v1.054h.417c.214 0 .381-.058.499-.175.118-.116.177-.282.177-.497a.623.623 0 0 0-.119-.382h-.974zm.658.676c-.049.061-.127.092-.232.092h-.077v-.721h.101c.095 0 .166.028.213.085.046.057.07.144.07.263-.001.126-.026.22-.075.281zm.665-.676h.35v1.054h-.35zm1.393.045v-.045h-.765v1.054h.765v-.284h-.417v-.243h.386v-.279h-.386v-.203zm1.286.742c-.188 0-.283-.124-.283-.372 0-.119.024-.213.07-.28a.221.221 0 0 1 .194-.102c.054 0 .106.008.153.023.048.015.095.034.143.056l.044-.112h-.828c-.016.023-.044.035-.057.062a.783.783 0 0 0-.076.352c0 .213.052.376.155.489.104.113.253.169.447.169a.907.907 0 0 0 .365-.071v-.294a1.738 1.738 0 0 1-.162.057.598.598 0 0 1-.165.023zm.642-.787a.727.727 0 0 0-.111.406c0 .216.054.381.161.495.108.113.263.17.464.17.205 0 .361-.056.467-.169.106-.113.159-.277.159-.494a.746.746 0 0 0-.109-.408h-1.031zm.711.691c-.043.06-.108.091-.196.091-.173 0-.26-.124-.26-.373 0-.251.087-.377.262-.377.086 0 .15.031.193.092.043.061.064.156.064.285a.495.495 0 0 1-.063.282z"/><path d="M23.757 37.7c0 1.353-.385 2.389-1.156 3.109-.77.72-1.882 1.079-3.337 1.079h-2.328v-8.22h2.58c1.342 0 2.384.354 3.126 1.063s1.115 1.699 1.115 2.969zm-1.811.045c0-1.765-.779-2.648-2.339-2.648h-.927v5.352h.748c1.679.001 2.518-.901 2.518-2.704zm10.975.023c0 1.361-.337 2.406-1.012 3.137-.675.731-1.642 1.096-2.901 1.096s-2.226-.365-2.901-1.096c-.675-.731-1.012-1.78-1.012-3.148s.338-2.413 1.015-3.135c.677-.721 1.647-1.082 2.91-1.082 1.263 0 2.229.363 2.898 1.091.668.727 1.003 1.773 1.003 3.137zm-5.999 0c0 .918.174 1.61.523 2.075.348.465.869.697 1.562.697 1.391 0 2.086-.924 2.086-2.772 0-1.852-.692-2.777-2.074-2.777-.694 0-1.216.233-1.569.7-.352.466-.528 1.158-.528 2.077zm11.194-2.766c-.656 0-1.164.246-1.524.739-.36.493-.54 1.18-.54 2.06 0 1.833.688 2.749 2.064 2.749.577 0 1.276-.144 2.097-.433v1.462c-.675.281-1.428.422-2.26.422-1.196 0-2.11-.363-2.744-1.088-.634-.726-.95-1.766-.95-3.123 0-.855.156-1.603.467-2.246a3.364 3.364 0 0 1 1.341-1.478c.583-.343 1.266-.515 2.049-.515.798 0 1.6.193 2.406.579l-.562 1.417a9.259 9.259 0 0 0-.928-.382 2.756 2.756 0 0 0-.916-.163z" fill="#C61A25"/></svg>