<svg xmlns="http://www.w3.org/2000/svg" width="60" height="60" viewBox="0 0 60 60"><path fill="#FFF" d="M43.768 6.551h-21.64L11.91 18.293v31.926h31.858z"/><path fill="#B4B4B4" d="M22.128 6.551L11.91 18.293h10.218z"/><path fill="#343434" d="M43.768 12.422v37.797H17.875v2.431h28.428V12.422z"/><path fill="#CECDCD" d="M22.128 12.272v6.021h-4.959v8.287H39.33V12.272z"/><path fill="#A7A6A6" d="M39.33 26.58H17.169v-6.887s5.386 0 9.893 1.631c4.508 1.631 12.268 0 12.268 0v5.256z"/><path fill="#FFF" d="M33.739 15.536c0-.712.298-1.355.78-1.823h-.004c-1.48 0-2.678 1.157-2.678 2.585s1.199 2.585 2.678 2.585c.742 0 1.414-.292 1.898-.762-1.476-.003-2.674-1.159-2.674-2.585z"/><path d="M23.128 38.882h3.265v4.267a9.104 9.104 0 0 1-1.495.363c-.467.07-.945.104-1.433.104-1.242 0-2.191-.365-2.846-1.095-.655-.73-.982-1.778-.982-3.144 0-1.329.38-2.364 1.14-3.108.76-.743 1.814-1.115 3.161-1.115.845 0 1.659.169 2.444.507l-.58 1.396a4.144 4.144 0 0 0-1.874-.45c-.755 0-1.359.253-1.813.76-.454.507-.681 1.188-.681 2.044 0 .893.183 1.575.549 2.047.366.471.898.706 1.596.706.364 0 .734-.037 1.109-.113v-1.717h-1.56v-1.452zm5.224 4.622v-8.231h1.745v8.231h-1.745zm5.534 0h-1.717v-8.231h4.718v1.43h-3v2.122h2.792v1.424h-2.792v3.255z" fill="#C61A25"/></svg>