<svg xmlns="http://www.w3.org/2000/svg" width="60" height="60" viewBox="0 0 60 60"><path fill="#FFF" d="M43.19 6.551H21.551L11.332 18.293v31.926H43.19z"/><path fill="#B4B4B4" d="M21.551 6.551L11.332 18.293h10.219z"/><path fill="#343434" d="M43.19 12.422v37.797H17.298v2.431h28.427V12.422z"/><path fill="#CECDCD" d="M21.551 12.272v6.021h-4.96v8.287h22.161V12.272z"/><path fill="#A7A6A6" d="M38.752 26.58H16.591v-6.887s5.386 0 9.893 1.631c4.508 1.631 12.268 0 12.268 0v5.256z"/><path fill="#FFF" d="M33.161 15.536c0-.712.298-1.355.78-1.823h-.004c-1.48 0-2.678 1.157-2.678 2.585s1.199 2.585 2.678 2.585c.742 0 1.414-.292 1.898-.762-1.476-.003-2.674-1.159-2.674-2.585z"/><path d="M18.692 44.666a3.79 3.79 0 0 1-1.022-.123v-1.441c.298.075.57.112.815.112.38 0 .652-.118.815-.354.164-.236.246-.606.246-1.109V34.1h1.731v7.64c0 .953-.218 1.679-.653 2.178-.435.499-1.079.748-1.932.748zm10.281-8.019c0 .879-.274 1.551-.824 2.016s-1.33.698-2.343.698h-.742v2.904h-1.731v-8.164h2.608c.991 0 1.743.213 2.259.64.515.425.773 1.061.773 1.906zm-3.909 1.296h.57c.532 0 .931-.105 1.195-.316.264-.21.397-.516.397-.919 0-.406-.111-.706-.333-.899-.221-.194-.569-.29-1.042-.29h-.787v2.424zm8.549-.263h3.239v4.233a9.137 9.137 0 0 1-1.483.36 9.632 9.632 0 0 1-1.421.103c-1.232 0-2.173-.362-2.823-1.086-.65-.724-.975-1.764-.975-3.119 0-1.318.377-2.345 1.131-3.083.754-.737 1.799-1.106 3.136-1.106.838 0 1.646.168 2.424.503l-.575 1.385a4.105 4.105 0 0 0-1.859-.447c-.749 0-1.348.251-1.799.754-.45.503-.675 1.178-.675 2.027 0 .886.182 1.563.544 2.03.363.467.891.701 1.583.701.361 0 .728-.037 1.1-.112V39.12h-1.547v-1.44z" fill="#C61A25"/></svg>