<svg xmlns="http://www.w3.org/2000/svg" width="60" height="60" viewBox="0 0 60 60"><path fill="#FFF" d="M44.983 6.551H23.344L13.125 18.293v31.926h31.858z"/><path fill="#B4B4B4" d="M23.344 6.551L13.125 18.293h10.219z"/><path fill="#343434" d="M44.983 12.422v37.797H19.091v2.431h28.427V12.422z"/><path fill="#CECDCD" d="M23.344 12.272v6.021h-4.96v8.287h22.161V12.272z"/><path fill="#A7A6A6" d="M40.545 26.58H18.384v-6.887s5.386 0 9.893 1.631c4.508 1.631 12.268 0 12.268 0v5.256z"/><path fill="#FFF" d="M34.954 15.536c0-.712.298-1.355.78-1.823h-.004c-1.48 0-2.678 1.157-2.678 2.585s1.199 2.585 2.678 2.585c.742 0 1.414-.292 1.898-.762-1.476-.003-2.674-1.159-2.674-2.585z"/><path d="M23.184 37.838c0 .886-.277 1.563-.83 2.032-.554.469-1.341.704-2.362.704h-.749v2.927h-1.745V35.27h2.629c.999 0 1.757.215 2.277.645.52.43.78 1.071.78 1.923zm-3.941 1.306h.574c.537 0 .938-.106 1.205-.318.266-.212.4-.521.4-.926 0-.409-.112-.711-.335-.906-.223-.195-.573-.293-1.05-.293h-.794v2.443zm12.797 4.358h-2.219l-3.58-6.226h-.05c.071 1.1.107 1.884.107 2.353v3.873h-1.56v-8.231h2.201l3.575 6.165h.04a49.111 49.111 0 0 1-.085-2.269v-3.896h1.571v8.231zm5.196-4.622h3.265v4.267a9.104 9.104 0 0 1-1.495.363c-.467.07-.945.104-1.433.104-1.242 0-2.191-.365-2.846-1.095-.655-.73-.982-1.778-.982-3.144 0-1.329.38-2.364 1.14-3.108.76-.743 1.814-1.115 3.161-1.115.845 0 1.659.169 2.444.507l-.58 1.396a4.144 4.144 0 0 0-1.874-.45c-.755 0-1.359.253-1.813.76-.454.507-.681 1.188-.681 2.044 0 .893.183 1.575.549 2.047.366.471.898.706 1.596.706.364 0 .734-.037 1.109-.113v-1.717h-1.56V38.88z" fill="#C61A25"/></svg>