<svg xmlns="http://www.w3.org/2000/svg" width="60" height="60" viewBox="0 0 60 60"><path fill="#FFF" d="M44.044 7.218h-21.64L12.186 18.96v31.926h31.858z"/><path fill="#B4B4B4" d="M22.404 7.218L12.186 18.96h10.218z"/><path d="M25.885 42.668h-6.297v-1.163l4.057-5.817h-3.947v-1.482h6.077v1.158l-4.051 5.822h4.162v1.482zm1.348 0v-8.461h1.794v8.461h-1.794zm9.769-5.822c0 .911-.284 1.607-.854 2.089-.569.482-1.378.723-2.428.723h-.769v3.01h-1.794v-8.461h2.703c1.027 0 1.807.221 2.341.663.534.441.801 1.1.801 1.976zm-4.051 1.342h.59c.552 0 .965-.109 1.239-.327.274-.218.411-.535.411-.952 0-.42-.115-.731-.345-.932-.229-.201-.589-.301-1.08-.301h-.816v2.512z" fill="#C61A25"/><path fill="#464545" d="M35.248 7.218h1.718v1.717h-1.718zm1.718 1.717h1.718v1.717h-1.718zm-1.718 1.718h1.718v1.717h-1.718zm1.718 1.717h1.718v1.717h-1.718zm-1.718 1.718h1.718v1.717h-1.718zm1.718 1.717h1.718v1.717h-1.718zm-1.718 1.717h1.718v1.717h-1.718zm1.718 1.718h1.718v1.717h-1.718z"/><path fill="#464545" d="M38.675 27.349a1.713 1.713 0 1 1-3.427-.006l.009-4.676a1.712 1.712 0 1 1 3.426.007l-.008 4.675z"/><linearGradient id="a" gradientUnits="userSpaceOnUse" x1="36.013" y1="26.875" x2="37.912" y2="26.875"><stop offset=".5" stop-color="#fff"/><stop offset="1" stop-color="#efeeee"/></linearGradient><path fill="url(#a)" d="M37.911 27.257a.949.949 0 1 1-1.898-.003l.001-.76a.95.95 0 0 1 1.898.003l-.001.76z"/><path fill="#343434" d="M44.044 13.089v37.797H18.151v2.43h28.428V13.089z"/></svg>