<svg id="Ebene_1" data-name="Ebene 1" xmlns="http://www.w3.org/2000/svg" width="152.93" height="152.93" viewBox="0 0 152.93 152.93"><defs><style>.cls-1{fill:#333;}.cls-2{fill:#f44336;}</style></defs><title>dashboard</title><rect class="cls-1" width="152.93" height="152.93" rx="32.77" ry="32.77"/><path class="cls-2" d="M632.18,1921.05a11.57,11.57,0,0,1-11.58,11.57H590.37a11.57,11.57,0,0,1-11.58-11.57v-30.22a11.57,11.57,0,0,1,11.58-11.58H620.6a11.57,11.57,0,0,1,11.58,11.58v30.22Z" transform="translate(-563.35 -1863.08)"/><path class="cls-2" d="M701,1921.05a11.57,11.57,0,0,1-11.58,11.57H659.17a11.57,11.57,0,0,1-11.57-11.57v-30.22a11.57,11.57,0,0,1,11.57-11.58H689.4A11.57,11.57,0,0,1,701,1890.83v30.22Z" transform="translate(-563.35 -1863.08)"/><path class="cls-2" d="M632.18,1988.72a11.59,11.59,0,0,1-11.58,11.59H590.37a11.59,11.59,0,0,1-11.58-11.59v-30.24a11.59,11.59,0,0,1,11.58-11.57H620.6a11.58,11.58,0,0,1,11.58,11.57v30.24Z" transform="translate(-563.35 -1863.08)"/><path class="cls-2" d="M701,1988.72a11.59,11.59,0,0,1-11.58,11.59H659.17a11.59,11.59,0,0,1-11.57-11.59v-30.24a11.58,11.58,0,0,1,11.57-11.57H689.4A11.59,11.59,0,0,1,701,1958.49v30.24Z" transform="translate(-563.35 -1863.08)"/></svg>