<svg id="Calque_2" data-name="Calque 2" xmlns="http://www.w3.org/2000/svg" width="241" height="241.92" viewBox="0 0 241 241.92"><defs><style>.cls-1{fill:#fff;opacity:0.1;}.cls-2{fill:#333;}</style></defs><title>logout</title><rect class="cls-1" y="0.92" width="241" height="241"/><rect class="cls-2" x="3580.26" y="484.78" width="24.39" height="133.97" transform="translate(-422.32 3714.14) rotate(-90)"/><rect class="cls-2" x="3623.05" y="493.4" width="24.39" height="78.5" transform="translate(3119.39 -2091.31) rotate(135)"/><rect class="cls-2" x="3622.87" y="531.59" width="24.39" height="78.88" transform="translate(2338.66 3115.12) rotate(-135)"/><polygon class="cls-2" points="181.19 100.84 181.19 142.5 202.02 121.67 181.19 100.84"/><polygon class="cls-2" points="181.19 176.99 181.19 213.3 57.43 213.3 57.43 30.36 181.19 30.36 181.19 66.36 208.29 93.46 208.29 0 28.98 0 28.98 241.77 208.29 241.77 208.29 149.88 181.19 176.99"/></svg>