<svg id="Ebene_1" data-name="Ebene 1" xmlns="http://www.w3.org/2000/svg" xmlns:xlink="http://www.w3.org/1999/xlink" width="176" height="128.79" viewBox="0 0 176 128.79"><defs><style>.cls-1{fill:#b3b3b3;}.cls-2{fill:#c6c6c6;}.cls-3{font-size:37px;font-family:Myriad Pro;}.cls-3,.cls-4,.cls-5{fill:#333;}.cls-4{opacity:0.5;}.cls-6{mask:url(#mask);}</style><mask id="mask" x="86" y="124" width="66" height="4.79" maskUnits="userSpaceOnUse"/></defs><title>press</title><path class="cls-1" d="M1766.73,2803s-1.1,2-5.86,2H1750v-80h18s0,64.38,0,70.25S1766.73,2803,1766.73,2803Z" transform="translate(-1592 -2678)"/><path class="cls-2" d="M1760.5,2805c-10.5,0-10.5-6.62-10.5-6.62V2678H1592v105c0,15.37,4.58,18.08,4.58,18.08s4.54,3.92,18.67,3.92H1760.5Z" transform="translate(-1592 -2678)"/><text class="cls-3" transform="translate(21.01 40.77)">PRESSE</text><path class="cls-4" d="M1673.5,2805c-10.5,0-10.5-6.62-10.5-6.62V2737h-60v46c0,15.37,4.58,18.08,4.58,18.08s4.54,3.92,18.67,3.92h47.25Z" transform="translate(-1592 -2678)"/><path class="cls-5" d="M1676.63,2736.43h0.43v3h1.44v0.37h-1.88v-3.37Z" transform="translate(-1592 -2678)"/><path class="cls-5" d="M1681.1,2738.57a1.18,1.18,0,0,1-1.21,1.29,1.15,1.15,0,0,1-1.16-1.25,1.18,1.18,0,0,1,1.2-1.29A1.15,1.15,0,0,1,1681.1,2738.57Zm-1.92,0a0.76,0.76,0,1,0,.75-0.94A0.82,0.82,0,0,0,1679.18,2738.59Z" transform="translate(-1592 -2678)"/><path class="cls-5" d="M1681.65,2738.13c0-.29,0-0.53,0-0.76H1682l0,0.48h0a0.73,0.73,0,0,1,.67-0.53l0.13,0v0.42h-0.15a0.62,0.62,0,0,0-.59.57,1.26,1.26,0,0,0,0,.21v1.29h-0.44v-1.67Z" transform="translate(-1592 -2678)"/><path class="cls-5" d="M1683.48,2738.67a0.78,0.78,0,0,0,.83.84,1.6,1.6,0,0,0,.67-0.12l0.08,0.31a2,2,0,0,1-.81.15,1.12,1.12,0,0,1-1.19-1.22,1.18,1.18,0,0,1,1.14-1.31,1,1,0,0,1,1,1.14,1.7,1.7,0,0,1,0,.21h-1.7Zm1.29-.32a0.63,0.63,0,0,0-.61-0.72,0.73,0.73,0,0,0-.68.72h1.29Z" transform="translate(-1592 -2678)"/><path class="cls-5" d="M1685.74,2738c0-.25,0-0.46,0-0.66h0.38l0,0.39h0a0.83,0.83,0,0,1,.76-0.45,0.72,0.72,0,0,1,.69.49h0a1,1,0,0,1,.27-0.32,0.83,0.83,0,0,1,.54-0.17,0.86,0.86,0,0,1,.8,1.05v1.43h-0.43v-1.37c0-.47-0.17-0.75-0.53-0.75a0.57,0.57,0,0,0-.52.4,0.72,0.72,0,0,0,0,.22v1.5h-0.43v-1.45a0.56,0.56,0,0,0-.51-0.67,0.66,0.66,0,0,0-.58.66v1.46h-0.43V2738Z" transform="translate(-1592 -2678)"/><path class="cls-5" d="M1692.36,2736.7a0.27,0.27,0,0,1-.54,0,0.27,0.27,0,0,1,.28-0.28A0.26,0.26,0,0,1,1692.36,2736.7Zm-0.49,3.1v-2.42h0.44v2.42h-0.44Z" transform="translate(-1592 -2678)"/><path class="cls-5" d="M1693,2738.17c0-.31,0-0.56,0-0.79h0.39l0,0.42h0a1,1,0,0,1,.86-0.47,1.1,1.1,0,0,1,1,1.23,1.15,1.15,0,0,1-1.1,1.3,0.85,0.85,0,0,1-.75-0.38h0v1.32H1693v-2.62Zm0.44,0.65a1,1,0,0,0,0,.18,0.68,0.68,0,0,0,.66.52,0.94,0.94,0,0,0,0-1.84,0.7,0.7,0,0,0-.67.55,0.68,0.68,0,0,0,0,.18v0.42Z" transform="translate(-1592 -2678)"/><path class="cls-5" d="M1695.83,2739.35a1.15,1.15,0,0,0,.58.17,0.39,0.39,0,0,0,.47-0.36,0.5,0.5,0,0,0-.45-0.45,0.78,0.78,0,0,1-.64-0.69,0.75,0.75,0,0,1,.83-0.71,1.21,1.21,0,0,1,.6.15l-0.11.32a0.94,0.94,0,0,0-.5-0.14,0.35,0.35,0,0,0-.41.33c0,0.2.15,0.29,0.46,0.41a0.74,0.74,0,1,1-.27,1.46,1.37,1.37,0,0,1-.68-0.17Z" transform="translate(-1592 -2678)"/><path class="cls-5" d="M1699.89,2739.14c0,0.25,0,.47,0,0.66h-0.39l0-.4h0a0.91,0.91,0,0,1-.8.45,0.86,0.86,0,0,1-.84-1.06v-1.42h0.44v1.34c0,0.46.14,0.77,0.54,0.77a0.64,0.64,0,0,0,.58-0.4,0.65,0.65,0,0,0,0-.22v-1.49h0.44v1.76Z" transform="translate(-1592 -2678)"/><path class="cls-5" d="M1700.62,2738c0-.25,0-0.46,0-0.66H1701l0,0.39h0a0.84,0.84,0,0,1,.76-0.45,0.72,0.72,0,0,1,.69.49h0a1,1,0,0,1,.27-0.32,0.83,0.83,0,0,1,.54-0.17,0.86,0.86,0,0,1,.79,1.05v1.43h-0.43v-1.37c0-.47-0.17-0.75-0.53-0.75a0.57,0.57,0,0,0-.52.4,0.72,0.72,0,0,0,0,.22v1.5h-0.43v-1.45a0.56,0.56,0,0,0-.51-0.67,0.66,0.66,0,0,0-.58.66v1.46h-0.43V2738Z" transform="translate(-1592 -2678)"/><path class="cls-5" d="M1708.84,2736.25v2.93c0,0.22,0,.46,0,0.63h-0.4l0-.42h0a0.9,0.9,0,0,1-.83.48,1.1,1.1,0,0,1-1-1.23,1.16,1.16,0,0,1,1.09-1.3,0.81,0.81,0,0,1,.73.37h0v-1.45h0.44Zm-0.44,2.12a0.8,0.8,0,0,0,0-.19,0.65,0.65,0,0,0-.64-0.51,0.8,0.8,0,0,0-.73.94,0.77,0.77,0,0,0,.72.9,0.66,0.66,0,0,0,.65-0.53,0.78,0.78,0,0,0,0-.19v-0.42Z" transform="translate(-1592 -2678)"/><path class="cls-5" d="M1711.76,2738.57a1.18,1.18,0,0,1-1.21,1.29,1.15,1.15,0,0,1-1.16-1.25,1.18,1.18,0,0,1,1.2-1.29A1.15,1.15,0,0,1,1711.76,2738.57Zm-1.92,0a0.76,0.76,0,1,0,.75-0.94A0.82,0.82,0,0,0,1709.84,2738.59Z" transform="translate(-1592 -2678)"/><path class="cls-5" d="M1712.32,2736.25h0.44v3.55h-0.44v-3.55Z" transform="translate(-1592 -2678)"/><path class="cls-5" d="M1715.69,2738.57a1.18,1.18,0,0,1-1.21,1.29,1.15,1.15,0,0,1-1.16-1.25,1.18,1.18,0,0,1,1.2-1.29A1.15,1.15,0,0,1,1715.69,2738.57Zm-1.92,0a0.76,0.76,0,1,0,.75-0.94A0.82,0.82,0,0,0,1713.77,2738.59Z" transform="translate(-1592 -2678)"/><path class="cls-5" d="M1716.24,2738.13c0-.29,0-0.53,0-0.76h0.38l0,0.48h0a0.73,0.73,0,0,1,.67-0.53l0.13,0v0.42h-0.15a0.62,0.62,0,0,0-.59.57,1.26,1.26,0,0,0,0,.21v1.29h-0.44v-1.67Z" transform="translate(-1592 -2678)"/><path class="cls-5" d="M1719.78,2739.35a1.15,1.15,0,0,0,.58.17,0.39,0.39,0,0,0,.47-0.36,0.5,0.5,0,0,0-.45-0.45,0.78,0.78,0,0,1-.64-0.69,0.75,0.75,0,0,1,.84-0.71,1.2,1.2,0,0,1,.59.15l-0.11.32a0.94,0.94,0,0,0-.5-0.14,0.35,0.35,0,0,0-.41.33c0,0.2.15,0.29,0.46,0.41a0.74,0.74,0,1,1-.27,1.46,1.37,1.37,0,0,1-.68-0.17Z" transform="translate(-1592 -2678)"/><path class="cls-5" d="M1722.31,2736.7a0.27,0.27,0,0,1-.54,0,0.27,0.27,0,0,1,.28-0.28A0.26,0.26,0,0,1,1722.31,2736.7Zm-0.49,3.1v-2.42h0.44v2.42h-0.44Z" transform="translate(-1592 -2678)"/><path class="cls-5" d="M1723.52,2736.68v0.7h0.63v0.34h-0.63V2739c0,0.3.09,0.47,0.33,0.47a1,1,0,0,0,.25,0l0,0.33a1.07,1.07,0,0,1-.39.06,0.61,0.61,0,0,1-.48-0.18,0.9,0.9,0,0,1-.17-0.63v-1.32h-0.38v-0.34h0.38v-0.58Z" transform="translate(-1592 -2678)"/><path class="cls-5" d="M1727.94,2739.8l0-.31h0a0.9,0.9,0,0,1-.74.36,0.69,0.69,0,0,1-.74-0.7c0-.59.52-0.91,1.46-0.9v0a0.5,0.5,0,0,0-.55-0.56,1.21,1.21,0,0,0-.63.18l-0.1-.29a1.51,1.51,0,0,1,.8-0.21,0.86,0.86,0,0,1,.92,1v0.91a3.39,3.39,0,0,0,0,.58h-0.4Zm-0.07-1.24c-0.48,0-1,.08-1,0.55a0.39,0.39,0,0,0,.42.42,0.6,0.6,0,0,0,.58-0.41,0.44,0.44,0,0,0,0-.14v-0.42Z" transform="translate(-1592 -2678)"/><path class="cls-5" d="M1729,2738c0-.25,0-0.46,0-0.66h0.38l0,0.39h0a0.83,0.83,0,0,1,.76-0.45,0.72,0.72,0,0,1,.69.49h0a1,1,0,0,1,.27-0.32,0.83,0.83,0,0,1,.54-0.17,0.86,0.86,0,0,1,.8,1.05v1.43H1732v-1.37c0-.47-0.17-0.75-0.53-0.75a0.57,0.57,0,0,0-.52.4,0.72,0.72,0,0,0,0,.22v1.5h-0.43v-1.45a0.56,0.56,0,0,0-.51-0.67,0.66,0.66,0,0,0-.58.66v1.46H1729V2738Z" transform="translate(-1592 -2678)"/><path class="cls-5" d="M1733.43,2738.67a0.78,0.78,0,0,0,.83.84,1.6,1.6,0,0,0,.67-0.12l0.08,0.31a2,2,0,0,1-.81.15,1.12,1.12,0,0,1-1.19-1.22,1.18,1.18,0,0,1,1.14-1.31,1,1,0,0,1,1,1.14,1.7,1.7,0,0,1,0,.21h-1.7Zm1.29-.32a0.63,0.63,0,0,0-.61-0.72,0.73,0.73,0,0,0-.68.72h1.29Z" transform="translate(-1592 -2678)"/><path class="cls-5" d="M1736.22,2736.68v0.7h0.63v0.34h-0.63V2739c0,0.3.09,0.47,0.33,0.47a1,1,0,0,0,.25,0l0,0.33a1.07,1.07,0,0,1-.39.06,0.61,0.61,0,0,1-.48-0.18,0.9,0.9,0,0,1-.17-0.63v-1.32h-0.38v-0.34h0.38v-0.58Z" transform="translate(-1592 -2678)"/><path class="cls-5" d="M1737,2740.42a7.11,7.11,0,0,0,.3-1.2l0.49,0a6.14,6.14,0,0,1-.48,1.22Z" transform="translate(-1592 -2678)"/><path class="cls-5" d="M1676.62,2744c0-.25,0-0.46,0-0.66H1677l0,0.39h0a0.83,0.83,0,0,1,.76-0.45,0.72,0.72,0,0,1,.69.49h0a1,1,0,0,1,.27-0.32,0.83,0.83,0,0,1,.54-0.17,0.86,0.86,0,0,1,.8,1.05v1.43h-0.43v-1.37c0-.47-0.17-0.75-0.53-0.75a0.57,0.57,0,0,0-.52.4,0.72,0.72,0,0,0,0,.22v1.5h-0.43v-1.45a0.56,0.56,0,0,0-.51-0.67,0.66,0.66,0,0,0-.58.66v1.46h-0.43V2744Z" transform="translate(-1592 -2678)"/><path class="cls-5" d="M1681,2744.67a0.78,0.78,0,0,0,.83.84,1.6,1.6,0,0,0,.67-0.12l0.08,0.31a2,2,0,0,1-.81.15,1.12,1.12,0,0,1-1.19-1.22,1.18,1.18,0,0,1,1.14-1.31,1,1,0,0,1,1,1.14,1.7,1.7,0,0,1,0,.21H1681Zm1.29-.32a0.63,0.63,0,0,0-.61-0.72,0.73,0.73,0,0,0-.68.72h1.29Z" transform="translate(-1592 -2678)"/><path class="cls-5" d="M1683.29,2742.25h0.44v3.55h-0.44v-3.55Z" transform="translate(-1592 -2678)"/><path class="cls-5" d="M1686.29,2742.25h0.44v3.55h-0.44v-3.55Z" transform="translate(-1592 -2678)"/><path class="cls-5" d="M1688,2742.7a0.27,0.27,0,0,1-.54,0,0.27,0.27,0,0,1,.28-0.28A0.26,0.26,0,0,1,1688,2742.7Zm-0.49,3.1v-2.42h0.44v2.42h-0.44Z" transform="translate(-1592 -2678)"/><path class="cls-5" d="M1688.62,2745.8c0-.17,0-0.41,0-0.63v-2.93h0.44v1.52h0a0.9,0.9,0,0,1,.83-0.45,1.09,1.09,0,0,1,1,1.24,1.15,1.15,0,0,1-1.09,1.3,0.86,0.86,0,0,1-.81-0.46h0l0,0.4h-0.38Zm0.46-1a0.77,0.77,0,0,0,0,.16,0.68,0.68,0,0,0,.66.52,0.79,0.79,0,0,0,.74-0.93,0.79,0.79,0,0,0-.72-0.9,0.7,0.7,0,0,0-.67.54,0.83,0.83,0,0,0,0,.18v0.44Z" transform="translate(-1592 -2678)"/><path class="cls-5" d="M1691.73,2744.67a0.78,0.78,0,0,0,.83.84,1.6,1.6,0,0,0,.67-0.12l0.08,0.31a2,2,0,0,1-.81.15,1.12,1.12,0,0,1-1.19-1.22,1.18,1.18,0,0,1,1.14-1.31,1,1,0,0,1,1,1.14,1.7,1.7,0,0,1,0,.21h-1.7Zm1.29-.32a0.63,0.63,0,0,0-.61-0.72,0.73,0.73,0,0,0-.68.72H1693Z" transform="translate(-1592 -2678)"/><path class="cls-5" d="M1694,2744.13c0-.29,0-0.53,0-0.76h0.38l0,0.48h0a0.73,0.73,0,0,1,.67-0.53l0.13,0v0.42H1695a0.62,0.62,0,0,0-.59.57,1.16,1.16,0,0,0,0,.21v1.29H1694v-1.67Z" transform="translate(-1592 -2678)"/><path class="cls-5" d="M1697.94,2742.7a0.27,0.27,0,0,1-.54,0,0.27,0.27,0,0,1,.28-0.28A0.26,0.26,0,0,1,1697.94,2742.7Zm-0.49,3.1v-2.42h0.44v2.42h-0.44Z" transform="translate(-1592 -2678)"/><path class="cls-5" d="M1698.62,2744.13c0-.29,0-0.53,0-0.76H1699l0,0.48h0a0.73,0.73,0,0,1,.67-0.53l0.13,0v0.42h-0.15a0.62,0.62,0,0,0-.59.57,1.26,1.26,0,0,0,0,.21v1.29h-0.44v-1.67Z" transform="translate(-1592 -2678)"/><path class="cls-5" d="M1700.76,2742.7a0.27,0.27,0,0,1-.54,0,0.27,0.27,0,0,1,.28-0.28A0.26,0.26,0,0,1,1700.76,2742.7Zm-0.49,3.1v-2.42h0.44v2.42h-0.44Z" transform="translate(-1592 -2678)"/><path class="cls-5" d="M1703.47,2745.14c0,0.25,0,.47,0,0.66h-0.39l0-.4h0a0.91,0.91,0,0,1-.8.45,0.86,0.86,0,0,1-.84-1.06v-1.42h0.44v1.34c0,0.46.14,0.77,0.54,0.77a0.64,0.64,0,0,0,.58-0.4,0.65,0.65,0,0,0,0-.22v-1.49h0.44v1.76Z" transform="translate(-1592 -2678)"/><path class="cls-5" d="M1704.19,2744.13c0-.29,0-0.53,0-0.76h0.38l0,0.48h0a0.73,0.73,0,0,1,.67-0.53l0.13,0v0.42h-0.15a0.62,0.62,0,0,0-.59.57,1.16,1.16,0,0,0,0,.21v1.29h-0.44v-1.67Z" transform="translate(-1592 -2678)"/><path class="cls-5" d="M1706,2744.67a0.78,0.78,0,0,0,.83.84,1.6,1.6,0,0,0,.67-0.12l0.08,0.31a2,2,0,0,1-.81.15,1.12,1.12,0,0,1-1.19-1.22,1.18,1.18,0,0,1,1.14-1.31,1,1,0,0,1,1,1.14,1.7,1.7,0,0,1,0,.21H1706Zm1.29-.32a0.63,0.63,0,0,0-.61-0.72,0.73,0.73,0,0,0-.68.72h1.29Z" transform="translate(-1592 -2678)"/><path class="cls-5" d="M1712.2,2742.25v2.93c0,0.22,0,.46,0,0.63h-0.4l0-.42h0a0.89,0.89,0,0,1-.83.48,1.1,1.1,0,0,1-1-1.23,1.16,1.16,0,0,1,1.09-1.3,0.81,0.81,0,0,1,.73.37h0v-1.45h0.44Zm-0.44,2.12a0.8,0.8,0,0,0,0-.19,0.65,0.65,0,0,0-.64-0.51,0.8,0.8,0,0,0-.73.94,0.77,0.77,0,0,0,.72.9,0.66,0.66,0,0,0,.65-0.53,0.78,0.78,0,0,0,0-.19v-0.42Z" transform="translate(-1592 -2678)"/><path class="cls-5" d="M1713.42,2742.7a0.27,0.27,0,0,1-.54,0,0.27,0.27,0,0,1,.28-0.28A0.26,0.26,0,0,1,1713.42,2742.7Zm-0.49,3.1v-2.42h0.44v2.42h-0.44Z" transform="translate(-1592 -2678)"/><path class="cls-5" d="M1716.18,2743.38c0,0.18,0,.37,0,0.67v1.41a1.39,1.39,0,0,1-.35,1.11,1.29,1.29,0,0,1-.88.29,1.57,1.57,0,0,1-.81-0.2l0.11-.33a1.37,1.37,0,0,0,.71.19,0.73,0.73,0,0,0,.78-0.85v-0.27h0a0.87,0.87,0,0,1-.77.41,1.08,1.08,0,0,1-1-1.18,1.16,1.16,0,0,1,1.09-1.29,0.81,0.81,0,0,1,.76.42h0l0-.37h0.38Zm-0.46,1a0.61,0.61,0,0,0,0-.2,0.63,0.63,0,0,0-.62-0.46,0.79,0.79,0,0,0-.72.92,0.76,0.76,0,0,0,.72.87,0.64,0.64,0,0,0,.61-0.45,0.76,0.76,0,0,0,0-.24v-0.44Z" transform="translate(-1592 -2678)"/><path class="cls-5" d="M1716.86,2744c0-.25,0-0.46,0-0.66h0.39l0,0.4h0a0.89,0.89,0,0,1,.8-0.46,0.88,0.88,0,0,1,.86,1v1.45h-0.44v-1.4a0.59,0.59,0,0,0-.56-0.72,0.63,0.63,0,0,0-.59.45,0.62,0.62,0,0,0,0,.21v1.46h-0.44V2744Z" transform="translate(-1592 -2678)"/><path class="cls-5" d="M1720.13,2742.7a0.27,0.27,0,0,1-.54,0,0.27,0.27,0,0,1,.28-0.28A0.26,0.26,0,0,1,1720.13,2742.7Zm-0.49,3.1v-2.42h0.44v2.42h-0.44Z" transform="translate(-1592 -2678)"/><path class="cls-5" d="M1720.75,2745.35a1.15,1.15,0,0,0,.58.17,0.39,0.39,0,0,0,.47-0.36,0.5,0.5,0,0,0-.45-0.45,0.78,0.78,0,0,1-.64-0.69,0.75,0.75,0,0,1,.83-0.71,1.21,1.21,0,0,1,.6.15l-0.11.32a0.94,0.94,0,0,0-.5-0.14,0.35,0.35,0,0,0-.41.33c0,0.2.15,0.29,0.46,0.41a0.74,0.74,0,1,1-.27,1.46,1.37,1.37,0,0,1-.68-0.17Z" transform="translate(-1592 -2678)"/><path class="cls-5" d="M1722.73,2745.35a1.15,1.15,0,0,0,.58.17,0.39,0.39,0,0,0,.47-0.36,0.5,0.5,0,0,0-.45-0.45,0.78,0.78,0,0,1-.64-0.69,0.75,0.75,0,0,1,.83-0.71,1.21,1.21,0,0,1,.6.15l-0.11.32a0.94,0.94,0,0,0-.5-0.14,0.35,0.35,0,0,0-.41.33c0,0.2.15,0.29,0.46,0.41a0.74,0.74,0,1,1-.27,1.46,1.37,1.37,0,0,1-.68-0.17Z" transform="translate(-1592 -2678)"/><path class="cls-5" d="M1725.26,2742.7a0.27,0.27,0,0,1-.54,0,0.27,0.27,0,0,1,.28-0.28A0.26,0.26,0,0,1,1725.26,2742.7Zm-0.49,3.1v-2.42h0.44v2.42h-0.44Z" transform="translate(-1592 -2678)"/><path class="cls-5" d="M1725.94,2744c0-.25,0-0.46,0-0.66h0.38l0,0.39h0a0.84,0.84,0,0,1,.76-0.45,0.72,0.72,0,0,1,.69.49h0a1,1,0,0,1,.27-0.32,0.83,0.83,0,0,1,.54-0.17,0.86,0.86,0,0,1,.79,1.05v1.43H1729v-1.37c0-.47-0.17-0.75-0.53-0.75a0.57,0.57,0,0,0-.52.4,0.72,0.72,0,0,0,0,.22v1.5h-0.43v-1.45a0.56,0.56,0,0,0-.51-0.67,0.66,0.66,0,0,0-.58.66v1.46h-0.43V2744Z" transform="translate(-1592 -2678)"/><path class="cls-5" d="M1731.93,2744c0-.25,0-0.46,0-0.66h0.39l0,0.4h0a0.89,0.89,0,0,1,.8-0.46,0.88,0.88,0,0,1,.86,1v1.45h-0.44v-1.4a0.59,0.59,0,0,0-.56-0.72,0.63,0.63,0,0,0-.59.45,0.62,0.62,0,0,0,0,.21v1.46h-0.44V2744Z" transform="translate(-1592 -2678)"/><path class="cls-5" d="M1736.9,2744.57a1.18,1.18,0,0,1-1.21,1.29,1.15,1.15,0,0,1-1.16-1.25,1.18,1.18,0,0,1,1.2-1.29A1.15,1.15,0,0,1,1736.9,2744.57Zm-1.92,0a0.76,0.76,0,1,0,.75-0.94A0.82,0.82,0,0,0,1735,2744.59Z" transform="translate(-1592 -2678)"/><path class="cls-5" d="M1737.22,2745.54a0.3,0.3,0,0,1,.3-0.31,0.32,0.32,0,0,1,0,.63A0.3,0.3,0,0,1,1737.22,2745.54Z" transform="translate(-1592 -2678)"/><path class="cls-5" d="M1678.38,2750.22h-1.31v1.22h1.46v0.37h-1.9v-3.37h1.82v0.37h-1.39v1.07h1.31v0.36Z" transform="translate(-1592 -2678)"/><path class="cls-5" d="M1679.28,2749.38l0.35,0.52,0.25,0.39h0c0.08-.14.16-0.27,0.24-0.4l0.34-.52h0.48l-0.83,1.17,0.85,1.25h-0.5l-0.36-.55c-0.09-.14-0.17-0.28-0.26-0.42h0c-0.08.14-.17,0.28-0.25,0.42l-0.35.55h-0.49l0.86-1.24-0.82-1.19h0.49Z" transform="translate(-1592 -2678)"/><path class="cls-5" d="M1684.12,2749.38l0.48,1.36a6.21,6.21,0,0,1,.2.62h0c0.06-.2.13-0.4,0.21-0.62l0.47-1.36h0.46l-1,2.42h-0.42l-0.92-2.42h0.47Z" transform="translate(-1592 -2678)"/><path class="cls-5" d="M1686.84,2748.7a0.27,0.27,0,0,1-.54,0,0.27,0.27,0,0,1,.28-0.28A0.26,0.26,0,0,1,1686.84,2748.7Zm-0.49,3.1v-2.42h0.44v2.42h-0.44Z" transform="translate(-1592 -2678)"/><path class="cls-5" d="M1687.69,2749.38l0.48,1.36a6.21,6.21,0,0,1,.2.62h0c0.05-.2.13-0.4,0.21-0.62l0.47-1.36h0.46l-1,2.42h-0.42l-0.92-2.42h0.47Z" transform="translate(-1592 -2678)"/><path class="cls-5" d="M1690.12,2750.67a0.78,0.78,0,0,0,.83.84,1.6,1.6,0,0,0,.67-0.12l0.08,0.31a2,2,0,0,1-.81.15,1.12,1.12,0,0,1-1.19-1.22,1.18,1.18,0,0,1,1.14-1.31,1,1,0,0,1,1,1.14,1.7,1.7,0,0,1,0,.21h-1.7Zm1.29-.32a0.63,0.63,0,0,0-.61-0.72,0.73,0.73,0,0,0-.68.72h1.29Z" transform="translate(-1592 -2678)"/><path class="cls-5" d="M1692.38,2750c0-.25,0-0.46,0-0.66h0.39l0,0.4h0a0.89,0.89,0,0,1,.8-0.46,0.88,0.88,0,0,1,.86,1v1.45H1694v-1.4a0.59,0.59,0,0,0-.56-0.72,0.63,0.63,0,0,0-.59.45,0.62,0.62,0,0,0,0,.21v1.46h-0.44V2750Z" transform="translate(-1592 -2678)"/><path class="cls-5" d="M1697.25,2748.25v2.93c0,0.22,0,.46,0,0.63h-0.4l0-.42h0a0.9,0.9,0,0,1-.83.48,1.1,1.1,0,0,1-1-1.23,1.16,1.16,0,0,1,1.09-1.3,0.81,0.81,0,0,1,.73.37h0v-1.45h0.44Zm-0.44,2.12a0.8,0.8,0,0,0,0-.19,0.65,0.65,0,0,0-.64-0.51,0.8,0.8,0,0,0-.73.94,0.77,0.77,0,0,0,.72.9,0.66,0.66,0,0,0,.65-0.53,0.78,0.78,0,0,0,0-.19v-0.42Z" transform="translate(-1592 -2678)"/><path class="cls-5" d="M1700.17,2750.57a1.18,1.18,0,0,1-1.21,1.29,1.15,1.15,0,0,1-1.16-1.25,1.18,1.18,0,0,1,1.2-1.29A1.15,1.15,0,0,1,1700.17,2750.57Zm-1.92,0a0.76,0.76,0,1,0,.75-0.94A0.82,0.82,0,0,0,1698.25,2750.59Z" transform="translate(-1592 -2678)"/><path class="cls-5" d="M1703.32,2751.8v-2.09H1703v-0.34h0.34v-0.11a1.14,1.14,0,0,1,.28-0.85,0.84,0.84,0,0,1,.59-0.22,1,1,0,0,1,.38.07l-0.06.34a0.66,0.66,0,0,0-.28-0.05c-0.37,0-.47.33-0.47,0.7v0.13h0.59v0.34h-0.59v2.09h-0.44Z" transform="translate(-1592 -2678)"/><path class="cls-5" d="M1706.08,2751.8l0-.31h0a0.9,0.9,0,0,1-.74.36,0.69,0.69,0,0,1-.74-0.7c0-.59.52-0.91,1.46-0.9v0a0.5,0.5,0,0,0-.55-0.56,1.2,1.2,0,0,0-.63.18l-0.1-.29a1.51,1.51,0,0,1,.8-0.21,0.86,0.86,0,0,1,.92,1v0.91a3.39,3.39,0,0,0,0,.58h-0.4Zm-0.07-1.24c-0.48,0-1,.08-1,0.55a0.39,0.39,0,0,0,.42.42,0.6,0.6,0,0,0,.58-0.41,0.44,0.44,0,0,0,0-.14v-0.42Z" transform="translate(-1592 -2678)"/><path class="cls-5" d="M1707.09,2751.35a1.15,1.15,0,0,0,.58.17,0.39,0.39,0,0,0,.47-0.36,0.5,0.5,0,0,0-.45-0.45,0.78,0.78,0,0,1-.64-0.69,0.75,0.75,0,0,1,.83-0.71,1.21,1.21,0,0,1,.6.15l-0.11.32a0.94,0.94,0,0,0-.5-0.14,0.35,0.35,0,0,0-.41.33c0,0.2.15,0.29,0.46,0.41a0.74,0.74,0,1,1-.27,1.46,1.37,1.37,0,0,1-.68-0.17Z" transform="translate(-1592 -2678)"/><path class="cls-5" d="M1709.66,2748.68v0.7h0.63v0.34h-0.63V2751c0,0.3.08,0.47,0.33,0.47a1,1,0,0,0,.25,0l0,0.33a1.08,1.08,0,0,1-.39.06,0.61,0.61,0,0,1-.48-0.18,0.9,0.9,0,0,1-.17-0.63v-1.32h-0.38v-0.34h0.38v-0.58Z" transform="translate(-1592 -2678)"/><path class="cls-5" d="M1711.27,2748.7a0.27,0.27,0,0,1-.54,0,0.27,0.27,0,0,1,.28-0.28A0.26,0.26,0,0,1,1711.27,2748.7Zm-0.49,3.1v-2.42h0.44v2.42h-0.44Z" transform="translate(-1592 -2678)"/><path class="cls-5" d="M1714,2748.25v2.93c0,0.22,0,.46,0,0.63h-0.4l0-.42h0a0.89,0.89,0,0,1-.83.48,1.1,1.1,0,0,1-1-1.23,1.16,1.16,0,0,1,1.09-1.3,0.81,0.81,0,0,1,.73.37h0v-1.45H1714Zm-0.44,2.12a0.8,0.8,0,0,0,0-.19,0.65,0.65,0,0,0-.64-0.51,0.8,0.8,0,0,0-.73.94,0.77,0.77,0,0,0,.72.9,0.66,0.66,0,0,0,.65-0.53,0.78,0.78,0,0,0,0-.19v-0.42Z" transform="translate(-1592 -2678)"/><path class="cls-5" d="M1715.26,2748.7a0.27,0.27,0,0,1-.54,0,0.27,0.27,0,0,1,.28-0.28A0.26,0.26,0,0,1,1715.26,2748.7Zm-0.49,3.1v-2.42h0.44v2.42h-0.44Z" transform="translate(-1592 -2678)"/><path class="cls-5" d="M1716.43,2748.7a0.27,0.27,0,0,1-.54,0,0.27,0.27,0,0,1,.28-0.28A0.26,0.26,0,0,1,1716.43,2748.7Zm-0.49,3.1v-2.42h0.44v2.42h-0.44Z" transform="translate(-1592 -2678)"/><path class="cls-5" d="M1719.67,2750c0-.25,0-0.46,0-0.66H1720l0,0.39h0a0.84,0.84,0,0,1,.76-0.45,0.72,0.72,0,0,1,.69.49h0a1,1,0,0,1,.27-0.32,0.83,0.83,0,0,1,.54-0.17,0.86,0.86,0,0,1,.79,1.05v1.43h-0.43v-1.37c0-.47-0.17-0.75-0.53-0.75a0.57,0.57,0,0,0-.52.4,0.72,0.72,0,0,0,0,.22v1.5h-0.43v-1.45a0.56,0.56,0,0,0-.51-0.67,0.66,0.66,0,0,0-.58.66v1.46h-0.43V2750Z" transform="translate(-1592 -2678)"/><path class="cls-5" d="M1724.08,2750.67a0.78,0.78,0,0,0,.83.84,1.6,1.6,0,0,0,.67-0.12l0.08,0.31a2,2,0,0,1-.81.15,1.12,1.12,0,0,1-1.19-1.22,1.18,1.18,0,0,1,1.14-1.31,1,1,0,0,1,1,1.14,1.7,1.7,0,0,1,0,.21h-1.7Zm1.29-.32a0.63,0.63,0,0,0-.61-0.72,0.73,0.73,0,0,0-.68.72h1.29Z" transform="translate(-1592 -2678)"/><path class="cls-5" d="M1726.34,2748.25h0.44v3.55h-0.44v-3.55Z" transform="translate(-1592 -2678)"/><path class="cls-5" d="M1727.18,2752.42a7.11,7.11,0,0,0,.3-1.2l0.49,0a6.14,6.14,0,0,1-.48,1.22Z" transform="translate(-1592 -2678)"/><path class="cls-5" d="M1731,2751.35a1.15,1.15,0,0,0,.58.17,0.39,0.39,0,0,0,.47-0.36,0.5,0.5,0,0,0-.45-0.45,0.78,0.78,0,0,1-.64-0.69,0.75,0.75,0,0,1,.84-0.71,1.2,1.2,0,0,1,.59.15l-0.11.32a0.94,0.94,0,0,0-.5-0.14,0.35,0.35,0,0,0-.41.33c0,0.2.15,0.29,0.46,0.41a0.74,0.74,0,1,1-.27,1.46,1.37,1.37,0,0,1-.68-0.17Z" transform="translate(-1592 -2678)"/><path class="cls-5" d="M1733.28,2750.67a0.78,0.78,0,0,0,.83.84,1.6,1.6,0,0,0,.67-0.12l0.08,0.31a2,2,0,0,1-.81.15,1.12,1.12,0,0,1-1.19-1.22,1.18,1.18,0,0,1,1.14-1.31,1,1,0,0,1,1,1.14,1.7,1.7,0,0,1,0,.21h-1.7Zm1.29-.32a0.63,0.63,0,0,0-.61-0.72,0.73,0.73,0,0,0-.68.72h1.29Z" transform="translate(-1592 -2678)"/><path class="cls-5" d="M1737.64,2748.25v2.93c0,0.22,0,.46,0,0.63h-0.4l0-.42h0a0.89,0.89,0,0,1-.83.48,1.1,1.1,0,0,1-1-1.23,1.16,1.16,0,0,1,1.09-1.3,0.81,0.81,0,0,1,.73.37h0v-1.45h0.44Zm-0.44,2.12a0.8,0.8,0,0,0,0-.19,0.65,0.65,0,0,0-.64-0.51,0.8,0.8,0,0,0-.73.94,0.77,0.77,0,0,0,.72.9,0.66,0.66,0,0,0,.65-0.53,0.78,0.78,0,0,0,0-.19v-0.42Z" transform="translate(-1592 -2678)"/><path class="cls-5" d="M1676.62,2756c0-.25,0-0.46,0-0.66H1677l0,0.39h0a0.83,0.83,0,0,1,.76-0.45,0.72,0.72,0,0,1,.69.49h0a1,1,0,0,1,.27-0.32,0.83,0.83,0,0,1,.54-0.17,0.86,0.86,0,0,1,.8,1.05v1.43h-0.43v-1.37c0-.47-0.17-0.75-0.53-0.75a0.57,0.57,0,0,0-.52.4,0.72,0.72,0,0,0,0,.22v1.5h-0.43v-1.45a0.56,0.56,0,0,0-.51-0.67,0.66,0.66,0,0,0-.58.66v1.46h-0.43V2756Z" transform="translate(-1592 -2678)"/><path class="cls-5" d="M1682.13,2757.8l0-.31h0a0.9,0.9,0,0,1-.74.36,0.69,0.69,0,0,1-.74-0.7c0-.59.52-0.91,1.46-0.9v0a0.5,0.5,0,0,0-.55-0.56,1.21,1.21,0,0,0-.63.18l-0.1-.29a1.51,1.51,0,0,1,.8-0.21,0.86,0.86,0,0,1,.92,1v0.91a3.39,3.39,0,0,0,0,.58h-0.4Zm-0.07-1.24c-0.48,0-1,.08-1,0.55a0.39,0.39,0,0,0,.42.42,0.6,0.6,0,0,0,.58-0.41,0.44,0.44,0,0,0,0-.14v-0.42Z" transform="translate(-1592 -2678)"/><path class="cls-5" d="M1683.2,2754.25h0.44v3.55h-0.44v-3.55Z" transform="translate(-1592 -2678)"/><path class="cls-5" d="M1684.87,2754.7a0.27,0.27,0,0,1-.54,0,0.27,0.27,0,0,1,.28-0.28A0.26,0.26,0,0,1,1684.87,2754.7Zm-0.49,3.1v-2.42h0.44v2.42h-0.44Z" transform="translate(-1592 -2678)"/><path class="cls-5" d="M1685.49,2757.35a1.15,1.15,0,0,0,.58.17,0.39,0.39,0,0,0,.47-0.36,0.5,0.5,0,0,0-.45-0.45,0.78,0.78,0,0,1-.64-0.69,0.75,0.75,0,0,1,.84-0.71,1.2,1.2,0,0,1,.59.15l-0.11.32a0.94,0.94,0,0,0-.5-0.14,0.35,0.35,0,0,0-.41.33c0,0.2.15,0.29,0.46,0.41a0.74,0.74,0,1,1-.27,1.46,1.37,1.37,0,0,1-.68-0.17Z" transform="translate(-1592 -2678)"/><path class="cls-5" d="M1688.84,2757.8v-2.09h-0.34v-0.34h0.34v-0.11a1.14,1.14,0,0,1,.28-0.85,0.84,0.84,0,0,1,.59-0.22,1,1,0,0,1,.38.07l-0.06.34a0.66,0.66,0,0,0-.28-0.05c-0.38,0-.47.33-0.47,0.7v0.13h0.59v0.34h-0.59v2.09h-0.44Z" transform="translate(-1592 -2678)"/><path class="cls-5" d="M1691.6,2757.8l0-.31h0a0.9,0.9,0,0,1-.74.36,0.69,0.69,0,0,1-.74-0.7c0-.59.52-0.91,1.46-0.9v0a0.5,0.5,0,0,0-.55-0.56,1.21,1.21,0,0,0-.63.18l-0.1-.29a1.51,1.51,0,0,1,.8-0.21,0.86,0.86,0,0,1,.92,1v0.91a3.39,3.39,0,0,0,0,.58h-0.4Zm-0.07-1.24c-0.48,0-1,.08-1,0.55a0.39,0.39,0,0,0,.42.42,0.6,0.6,0,0,0,.58-0.41,0.44,0.44,0,0,0,0-.14v-0.42Z" transform="translate(-1592 -2678)"/><path class="cls-5" d="M1694.4,2757.71a1.63,1.63,0,0,1-.7.14,1.15,1.15,0,0,1-1.21-1.24,1.23,1.23,0,0,1,1.3-1.29,1.47,1.47,0,0,1,.61.13l-0.1.34a1,1,0,0,0-.51-0.12,0.91,0.91,0,0,0,0,1.82,1.24,1.24,0,0,0,.54-0.12Z" transform="translate(-1592 -2678)"/><path class="cls-5" d="M1695.13,2756.67a0.78,0.78,0,0,0,.83.84,1.6,1.6,0,0,0,.67-0.12l0.08,0.31a2,2,0,0,1-.81.15,1.12,1.12,0,0,1-1.19-1.22,1.18,1.18,0,0,1,1.14-1.31,1,1,0,0,1,1,1.14,1.7,1.7,0,0,1,0,.21h-1.7Zm1.29-.32a0.63,0.63,0,0,0-.61-0.72,0.73,0.73,0,0,0-.68.72h1.29Z" transform="translate(-1592 -2678)"/><path class="cls-5" d="M1697.38,2756.13c0-.29,0-0.53,0-0.76h0.38l0,0.48h0a0.73,0.73,0,0,1,.67-0.53l0.13,0v0.42h-0.15a0.62,0.62,0,0,0-.59.57,1.26,1.26,0,0,0,0,.21v1.29h-0.44v-1.67Z" transform="translate(-1592 -2678)"/><path class="cls-5" d="M1700.29,2756c0-.25,0-0.46,0-0.66h0.39l0,0.4h0a0.89,0.89,0,0,1,.8-0.46,0.88,0.88,0,0,1,.86,1v1.45h-0.44v-1.4a0.59,0.59,0,0,0-.56-0.72,0.63,0.63,0,0,0-.59.45,0.62,0.62,0,0,0,0,.21v1.46h-0.44V2756Z" transform="translate(-1592 -2678)"/><path class="cls-5" d="M1703.32,2756.67a0.78,0.78,0,0,0,.83.84,1.6,1.6,0,0,0,.67-0.12l0.08,0.31a2,2,0,0,1-.81.15,1.12,1.12,0,0,1-1.19-1.22,1.18,1.18,0,0,1,1.14-1.31,1,1,0,0,1,1,1.14,1.7,1.7,0,0,1,0,.21h-1.7Zm1.29-.32a0.63,0.63,0,0,0-.61-0.72,0.73,0.73,0,0,0-.68.72h1.29Z" transform="translate(-1592 -2678)"/><path class="cls-5" d="M1705.58,2756c0-.25,0-0.46,0-0.66h0.38l0,0.39h0a0.84,0.84,0,0,1,.76-0.45,0.72,0.72,0,0,1,.69.49h0a1,1,0,0,1,.27-0.32,0.83,0.83,0,0,1,.54-0.17,0.86,0.86,0,0,1,.79,1.05v1.43h-0.43v-1.37c0-.47-0.17-0.75-0.53-0.75a0.57,0.57,0,0,0-.52.4,0.72,0.72,0,0,0,0,.22v1.5h-0.43v-1.45a0.56,0.56,0,0,0-.51-0.67,0.66,0.66,0,0,0-.58.66v1.46h-0.43V2756Z" transform="translate(-1592 -2678)"/><path class="cls-5" d="M1711.94,2756.57a1.18,1.18,0,0,1-1.21,1.29,1.15,1.15,0,0,1-1.16-1.25,1.18,1.18,0,0,1,1.2-1.29A1.15,1.15,0,0,1,1711.94,2756.57Zm-1.92,0a0.76,0.76,0,1,0,.75-0.94A0.82,0.82,0,0,0,1710,2756.59Z" transform="translate(-1592 -2678)"/><path class="cls-5" d="M1712.49,2756.13c0-.29,0-0.53,0-0.76h0.38l0,0.48h0a0.73,0.73,0,0,1,.67-0.53l0.13,0v0.42h-0.15a0.62,0.62,0,0,0-.59.57,1.26,1.26,0,0,0,0,.21v1.29h-0.44v-1.67Z" transform="translate(-1592 -2678)"/><path class="cls-5" d="M1714.32,2756.67a0.78,0.78,0,0,0,.83.84,1.6,1.6,0,0,0,.67-0.12l0.08,0.31a2,2,0,0,1-.81.15,1.12,1.12,0,0,1-1.19-1.22,1.18,1.18,0,0,1,1.14-1.31,1,1,0,0,1,1,1.14,1.7,1.7,0,0,1,0,.21h-1.7Zm1.29-.32a0.63,0.63,0,0,0-.61-0.72,0.73,0.73,0,0,0-.68.72h1.29Z" transform="translate(-1592 -2678)"/><path class="cls-5" d="M1719.88,2757.14c0,0.25,0,.47,0,0.66h-0.39l0-.4h0a0.91,0.91,0,0,1-.8.45,0.86,0.86,0,0,1-.84-1.06v-1.42h0.44v1.34c0,0.46.14,0.77,0.54,0.77a0.64,0.64,0,0,0,.58-0.4,0.65,0.65,0,0,0,0-.22v-1.49h0.44v1.76Z" transform="translate(-1592 -2678)"/><path class="cls-5" d="M1721.14,2754.68v0.7h0.63v0.34h-0.63V2757c0,0.3.08,0.47,0.33,0.47a1,1,0,0,0,.25,0l0,0.33a1.08,1.08,0,0,1-.39.06,0.61,0.61,0,0,1-.48-0.18,0.9,0.9,0,0,1-.17-0.63v-1.32h-0.38v-0.34h0.38v-0.58Z" transform="translate(-1592 -2678)"/><path class="cls-5" d="M1722.14,2757.54a0.3,0.3,0,0,1,.3-0.31,0.32,0.32,0,0,1,0,.63A0.3,0.3,0,0,1,1722.14,2757.54Z" transform="translate(-1592 -2678)"/><path class="cls-5" d="M1727.42,2756.32c0-.47-0.06-1-0.05-1.46h0c-0.12.4-.25,0.82-0.43,1.28l-0.6,1.64H1726l-0.55-1.61c-0.16-.48-0.29-0.91-0.39-1.31h0c0,0.42,0,1-.06,1.49l-0.09,1.45h-0.42l0.24-3.37h0.56l0.58,1.63c0.14,0.42.26,0.79,0.34,1.14h0c0.08-.34.21-0.71,0.36-1.14l0.6-1.63h0.56l0.21,3.37h-0.42Z" transform="translate(-1592 -2678)"/><path class="cls-5" d="M1728.85,2756.67a0.78,0.78,0,0,0,.83.84,1.6,1.6,0,0,0,.67-0.12l0.08,0.31a2,2,0,0,1-.81.15,1.12,1.12,0,0,1-1.19-1.22,1.18,1.18,0,0,1,1.14-1.31,1,1,0,0,1,1,1.14,1.7,1.7,0,0,1,0,.21h-1.7Zm1.29-.32a0.63,0.63,0,0,0-.61-0.72,0.73,0.73,0,0,0-.68.72h1.29Z" transform="translate(-1592 -2678)"/><path class="cls-5" d="M1731.6,2754.7a0.27,0.27,0,0,1-.54,0,0.27,0.27,0,0,1,.28-0.28A0.26,0.26,0,0,1,1731.6,2754.7Zm-0.49,3.1v-2.42h0.44v2.42h-0.44Z" transform="translate(-1592 -2678)"/><path class="cls-5" d="M1733.8,2756.67a0.78,0.78,0,0,0,.83.84,1.6,1.6,0,0,0,.67-0.12l0.08,0.31a2,2,0,0,1-.81.15,1.12,1.12,0,0,1-1.19-1.22,1.18,1.18,0,0,1,1.14-1.31,1,1,0,0,1,1,1.14,1.7,1.7,0,0,1,0,.21h-1.7Zm1.29-.32a0.63,0.63,0,0,0-.61-0.72,0.73,0.73,0,0,0-.68.72h1.29Z" transform="translate(-1592 -2678)"/><path class="cls-5" d="M1736.25,2755.38l0.35,0.52,0.25,0.39h0c0.08-.14.16-0.27,0.24-0.4l0.34-.52h0.48l-0.83,1.17,0.85,1.25h-0.5l-0.36-.55c-0.09-.14-0.17-0.28-0.26-0.42h0c-0.08.14-.17,0.28-0.25,0.42l-0.35.55h-0.49l0.86-1.24-0.82-1.19h0.49Z" transform="translate(-1592 -2678)"/><path class="cls-5" d="M1676.86,2762.67a0.78,0.78,0,0,0,.83.84,1.6,1.6,0,0,0,.67-0.12l0.08,0.31a2,2,0,0,1-.81.15,1.12,1.12,0,0,1-1.19-1.22,1.18,1.18,0,0,1,1.14-1.31,1,1,0,0,1,1,1.14,1.7,1.7,0,0,1,0,.21h-1.7Zm1.29-.32a0.63,0.63,0,0,0-.61-0.72,0.73,0.73,0,0,0-.68.72h1.29Z" transform="translate(-1592 -2678)"/><path class="cls-5" d="M1679.12,2762c0-.25,0-0.46,0-0.66h0.39l0,0.4h0a0.89,0.89,0,0,1,.8-0.46,0.88,0.88,0,0,1,.86,1v1.45h-0.44v-1.4a0.59,0.59,0,0,0-.56-0.72,0.63,0.63,0,0,0-.59.45,0.62,0.62,0,0,0,0,.21v1.46h-0.44V2762Z" transform="translate(-1592 -2678)"/><path class="cls-5" d="M1682.39,2760.7a0.27,0.27,0,0,1-.54,0,0.27,0.27,0,0,1,.28-0.28A0.26,0.26,0,0,1,1682.39,2760.7Zm-0.49,3.1v-2.42h0.44v2.42h-0.44Z" transform="translate(-1592 -2678)"/><path class="cls-5" d="M1683.07,2762c0-.25,0-0.46,0-0.66h0.38l0,0.39h0a0.84,0.84,0,0,1,.76-0.45,0.72,0.72,0,0,1,.69.49h0a1,1,0,0,1,.27-0.32,0.83,0.83,0,0,1,.54-0.17,0.86,0.86,0,0,1,.79,1.05v1.43h-0.43v-1.37c0-.47-0.17-0.75-0.53-0.75a0.57,0.57,0,0,0-.52.4,0.72,0.72,0,0,0,0,.22v1.5h-0.43v-1.45a0.56,0.56,0,0,0-.51-0.67,0.66,0.66,0,0,0-.58.66v1.46h-0.43V2762Z" transform="translate(-1592 -2678)"/><path class="cls-5" d="M1690.62,2762c0-.25,0-0.46,0-0.66H1691l0,0.4h0a0.89,0.89,0,0,1,.8-0.46,0.88,0.88,0,0,1,.86,1v1.45h-0.44v-1.4a0.59,0.59,0,0,0-.56-0.72,0.63,0.63,0,0,0-.59.45,0.62,0.62,0,0,0,0,.21v1.46h-0.44V2762Z" transform="translate(-1592 -2678)"/><path class="cls-5" d="M1695.59,2762.57a1.18,1.18,0,0,1-1.21,1.29,1.15,1.15,0,0,1-1.16-1.25,1.18,1.18,0,0,1,1.2-1.29A1.15,1.15,0,0,1,1695.59,2762.57Zm-1.92,0a0.76,0.76,0,1,0,.75-0.94A0.82,0.82,0,0,0,1693.66,2762.59Z" transform="translate(-1592 -2678)"/><path class="cls-5" d="M1696.08,2763.35a1.15,1.15,0,0,0,.58.17,0.39,0.39,0,0,0,.47-0.36,0.5,0.5,0,0,0-.45-0.45,0.78,0.78,0,0,1-.64-0.69,0.75,0.75,0,0,1,.84-0.71,1.2,1.2,0,0,1,.59.15l-0.11.32a0.94,0.94,0,0,0-.5-0.14,0.35,0.35,0,0,0-.41.33c0,0.2.15,0.29,0.46,0.41a0.74,0.74,0,1,1-.27,1.46,1.37,1.37,0,0,1-.68-0.17Z" transform="translate(-1592 -2678)"/><path class="cls-5" d="M1698.65,2760.68v0.7h0.63v0.34h-0.63V2763c0,0.3.09,0.47,0.33,0.47a1,1,0,0,0,.25,0l0,0.33a1.07,1.07,0,0,1-.39.06,0.61,0.61,0,0,1-.48-0.18,0.9,0.9,0,0,1-.17-0.63v-1.32h-0.38v-0.34h0.38v-0.58Z" transform="translate(-1592 -2678)"/><path class="cls-5" d="M1699.77,2762.13c0-.29,0-0.53,0-0.76h0.38l0,0.48h0a0.73,0.73,0,0,1,.67-0.53l0.13,0v0.42h-0.15a0.62,0.62,0,0,0-.59.57,1.26,1.26,0,0,0,0,.21v1.29h-0.44v-1.67Z" transform="translate(-1592 -2678)"/><path class="cls-5" d="M1703.55,2762.57a1.18,1.18,0,0,1-1.21,1.29,1.15,1.15,0,0,1-1.16-1.25,1.18,1.18,0,0,1,1.2-1.29A1.15,1.15,0,0,1,1703.55,2762.57Zm-1.92,0a0.76,0.76,0,1,0,.75-0.94A0.82,0.82,0,0,0,1701.63,2762.59Z" transform="translate(-1592 -2678)"/><path class="cls-5" d="M1703.7,2764.42a7.11,7.11,0,0,0,.3-1.2l0.49,0a6.14,6.14,0,0,1-.48,1.22Z" transform="translate(-1592 -2678)"/><path class="cls-5" d="M1708.57,2761.38l0.48,1.36a6.21,6.21,0,0,1,.2.62h0c0.05-.2.13-0.4,0.21-0.62l0.47-1.36h0.46l-1,2.42H1709l-0.92-2.42h0.47Z" transform="translate(-1592 -2678)"/><path class="cls-5" d="M1711.3,2760.7a0.27,0.27,0,0,1-.54,0,0.27,0.27,0,0,1,.28-0.28A0.26,0.26,0,0,1,1711.3,2760.7Zm-0.49,3.1v-2.42h0.44v2.42h-0.44Z" transform="translate(-1592 -2678)"/><path class="cls-5" d="M1711.92,2763.35a1.15,1.15,0,0,0,.58.17,0.39,0.39,0,0,0,.47-0.36,0.5,0.5,0,0,0-.45-0.45,0.78,0.78,0,0,1-.64-0.69,0.75,0.75,0,0,1,.84-0.71,1.2,1.2,0,0,1,.59.15l-0.11.32a0.94,0.94,0,0,0-.5-0.14,0.35,0.35,0,0,0-.41.33c0,0.2.15,0.29,0.46,0.41a0.74,0.74,0,1,1-.27,1.46,1.37,1.37,0,0,1-.68-0.17Z" transform="translate(-1592 -2678)"/><path class="cls-5" d="M1717.58,2762.67a0.78,0.78,0,0,0,.83.84,1.6,1.6,0,0,0,.67-0.12l0.08,0.31a2,2,0,0,1-.81.15,1.12,1.12,0,0,1-1.19-1.22,1.18,1.18,0,0,1,1.14-1.31,1,1,0,0,1,1,1.14,1.7,1.7,0,0,1,0,.21h-1.7Zm1.29-.32a0.63,0.63,0,0,0-.61-0.72,0.73,0.73,0,0,0-.68.72h1.29Z" transform="translate(-1592 -2678)"/><path class="cls-5" d="M1721.19,2763.8l0-.31h0a0.9,0.9,0,0,1-.74.36,0.69,0.69,0,0,1-.74-0.7c0-.59.52-0.91,1.46-0.9v0a0.5,0.5,0,0,0-.55-0.56,1.2,1.2,0,0,0-.63.18l-0.1-.29a1.51,1.51,0,0,1,.8-0.21,0.86,0.86,0,0,1,.92,1v0.91a3.39,3.39,0,0,0,0,.58h-0.4Zm-0.07-1.24c-0.48,0-1,.08-1,0.55a0.39,0.39,0,0,0,.42.42,0.6,0.6,0,0,0,.58-0.41,0.44,0.44,0,0,0,0-.14v-0.42Z" transform="translate(-1592 -2678)"/><path class="cls-5" d="M1725.58,2763.35a1.15,1.15,0,0,0,.58.17,0.39,0.39,0,0,0,.47-0.36,0.5,0.5,0,0,0-.45-0.45,0.78,0.78,0,0,1-.64-0.69,0.75,0.75,0,0,1,.83-0.71,1.21,1.21,0,0,1,.6.15l-0.11.32a0.94,0.94,0,0,0-.5-0.14,0.35,0.35,0,0,0-.41.33c0,0.2.15,0.29,0.46,0.41a0.74,0.74,0,1,1-.27,1.46,1.37,1.37,0,0,1-.68-0.17Z" transform="translate(-1592 -2678)"/><path class="cls-5" d="M1729.81,2762.57a1.18,1.18,0,0,1-1.21,1.29,1.15,1.15,0,0,1-1.16-1.25,1.18,1.18,0,0,1,1.2-1.29A1.15,1.15,0,0,1,1729.81,2762.57Zm-1.92,0a0.76,0.76,0,1,0,.75-0.94A0.82,0.82,0,0,0,1727.89,2762.59Z" transform="translate(-1592 -2678)"/><path class="cls-5" d="M1730.36,2760.25h0.44v3.55h-0.44v-3.55Z" transform="translate(-1592 -2678)"/><path class="cls-5" d="M1733.57,2763.14c0,0.25,0,.47,0,0.66h-0.39l0-.4h0a0.91,0.91,0,0,1-.8.45,0.86,0.86,0,0,1-.84-1.06v-1.42H1732v1.34c0,0.46.14,0.77,0.54,0.77a0.64,0.64,0,0,0,.58-0.4,0.65,0.65,0,0,0,0-.22v-1.49h0.44v1.76Z" transform="translate(-1592 -2678)"/><path class="cls-5" d="M1734.83,2760.68v0.7h0.63v0.34h-0.63V2763c0,0.3.08,0.47,0.33,0.47a1,1,0,0,0,.25,0l0,0.33a1.08,1.08,0,0,1-.39.06,0.61,0.61,0,0,1-.48-0.18,0.9,0.9,0,0,1-.17-0.63v-1.32H1734v-0.34h0.38v-0.58Z" transform="translate(-1592 -2678)"/><path class="cls-5" d="M1737.29,2763.8l0-.31h0a0.9,0.9,0,0,1-.74.36,0.69,0.69,0,0,1-.74-0.7c0-.59.52-0.91,1.46-0.9v0a0.5,0.5,0,0,0-.55-0.56,1.2,1.2,0,0,0-.63.18l-0.1-.29a1.51,1.51,0,0,1,.8-0.21,0.86,0.86,0,0,1,.92,1v0.91a3.39,3.39,0,0,0,0,.58h-0.4Zm-0.07-1.24c-0.48,0-1,.08-1,0.55a0.39,0.39,0,0,0,.42.42,0.6,0.6,0,0,0,.58-0.41,0.44,0.44,0,0,0,0-.14v-0.42Z" transform="translate(-1592 -2678)"/><path class="cls-5" d="M1676.56,2769.35a1.15,1.15,0,0,0,.58.17,0.39,0.39,0,0,0,.47-0.36,0.5,0.5,0,0,0-.45-0.45,0.78,0.78,0,0,1-.64-0.69,0.75,0.75,0,0,1,.84-0.71,1.2,1.2,0,0,1,.59.15l-0.11.32a0.94,0.94,0,0,0-.5-0.14,0.35,0.35,0,0,0-.41.33c0,0.2.15,0.29,0.46,0.41a0.74,0.74,0,1,1-.27,1.46,1.37,1.37,0,0,1-.68-0.17Z" transform="translate(-1592 -2678)"/><path class="cls-5" d="M1679.94,2769.8l0-.31h0a0.9,0.9,0,0,1-.74.36,0.69,0.69,0,0,1-.74-0.7c0-.59.52-0.91,1.46-0.9v0a0.5,0.5,0,0,0-.55-0.56,1.21,1.21,0,0,0-.63.18l-0.1-.29a1.51,1.51,0,0,1,.8-0.21,0.86,0.86,0,0,1,.92,1v0.91a3.39,3.39,0,0,0,0,.58h-0.4Zm-0.07-1.24c-0.48,0-1,.08-1,0.55a0.39,0.39,0,0,0,.42.42,0.6,0.6,0,0,0,.58-0.41,0.44,0.44,0,0,0,0-.14v-0.42Z" transform="translate(-1592 -2678)"/><path class="cls-5" d="M1681,2766.25h0.44v3.55H1681v-3.55Z" transform="translate(-1592 -2678)"/><path class="cls-5" d="M1684.21,2769.14c0,0.25,0,.47,0,0.66h-0.39l0-.4h0a0.91,0.91,0,0,1-.8.45,0.86,0.86,0,0,1-.84-1.06v-1.42h0.44v1.34c0,0.46.14,0.77,0.54,0.77a0.64,0.64,0,0,0,.58-0.4,0.65,0.65,0,0,0,0-.22v-1.49h0.44v1.76Z" transform="translate(-1592 -2678)"/><path class="cls-5" d="M1685.47,2766.68v0.7h0.63v0.34h-0.63V2769c0,0.3.09,0.47,0.33,0.47a1,1,0,0,0,.25,0l0,0.33a1.07,1.07,0,0,1-.39.06,0.61,0.61,0,0,1-.48-0.18,0.9,0.9,0,0,1-.17-0.63v-1.32h-0.38v-0.34H1685v-0.58Z" transform="translate(-1592 -2678)"/><path class="cls-5" d="M1687.94,2769.8l0-.31h0a0.9,0.9,0,0,1-.74.36,0.69,0.69,0,0,1-.74-0.7c0-.59.52-0.91,1.46-0.9v0a0.5,0.5,0,0,0-.55-0.56,1.21,1.21,0,0,0-.63.18l-0.1-.29a1.51,1.51,0,0,1,.8-0.21,0.86,0.86,0,0,1,.92,1v0.91a3.39,3.39,0,0,0,0,.58h-0.4Zm-0.07-1.24c-0.48,0-1,.08-1,0.55a0.39,0.39,0,0,0,.42.42,0.6,0.6,0,0,0,.58-0.41,0.44,0.44,0,0,0,0-.14v-0.42Z" transform="translate(-1592 -2678)"/><path class="cls-5" d="M1689.52,2766.68v0.7h0.63v0.34h-0.63V2769c0,0.3.08,0.47,0.33,0.47a1,1,0,0,0,.25,0l0,0.33a1.08,1.08,0,0,1-.39.06,0.61,0.61,0,0,1-.48-0.18,0.9,0.9,0,0,1-.17-0.63v-1.32h-0.38v-0.34h0.38v-0.58Z" transform="translate(-1592 -2678)"/><path class="cls-5" d="M1692.67,2769.14c0,0.25,0,.47,0,0.66h-0.39l0-.4h0a0.91,0.91,0,0,1-.8.45,0.86,0.86,0,0,1-.84-1.06v-1.42h0.44v1.34c0,0.46.14,0.77,0.54,0.77a0.64,0.64,0,0,0,.58-0.4,0.65,0.65,0,0,0,0-.22v-1.49h0.44v1.76Z" transform="translate(-1592 -2678)"/><path class="cls-5" d="M1693.34,2769.35a1.15,1.15,0,0,0,.58.17,0.39,0.39,0,0,0,.47-0.36,0.5,0.5,0,0,0-.45-0.45,0.78,0.78,0,0,1-.64-0.69,0.75,0.75,0,0,1,.84-0.71,1.2,1.2,0,0,1,.59.15l-0.11.32a0.94,0.94,0,0,0-.5-0.14,0.35,0.35,0,0,0-.41.33c0,0.2.15,0.29,0.46,0.41a0.74,0.74,0,1,1-.27,1.46,1.37,1.37,0,0,1-.68-0.17Z" transform="translate(-1592 -2678)"/><path class="cls-5" d="M1695.22,2769.54a0.3,0.3,0,0,1,.3-0.31A0.32,0.32,0,1,1,1695.22,2769.54Z" transform="translate(-1592 -2678)"/><path class="cls-5" d="M1698.16,2769.27a1.54,1.54,0,0,0,.78.22,0.6,0.6,0,0,0,.71-0.58,0.73,0.73,0,0,0-.64-0.67,1.06,1.06,0,0,1-.89-1,1,1,0,0,1,1.09-.92,1.52,1.52,0,0,1,.75.17l-0.12.35a1.35,1.35,0,0,0-.64-0.16,0.55,0.55,0,0,0-.64.51,0.75,0.75,0,0,0,.67.65,1,1,0,0,1,.86,1,1,1,0,0,1-1.18,1,1.75,1.75,0,0,1-.86-0.21Z" transform="translate(-1592 -2678)"/><path class="cls-5" d="M1700.95,2768.67a0.78,0.78,0,0,0,.83.84,1.6,1.6,0,0,0,.67-0.12l0.08,0.31a2,2,0,0,1-.81.15,1.12,1.12,0,0,1-1.19-1.22,1.18,1.18,0,0,1,1.14-1.31,1,1,0,0,1,1,1.14,1.7,1.7,0,0,1,0,.21h-1.7Zm1.29-.32a0.63,0.63,0,0,0-.61-0.72,0.73,0.73,0,0,0-.68.72h1.29Z" transform="translate(-1592 -2678)"/><path class="cls-5" d="M1705.3,2766.25v2.93c0,0.22,0,.46,0,0.63h-0.4l0-.42h0a0.9,0.9,0,0,1-.83.48,1.1,1.1,0,0,1-1-1.23,1.16,1.16,0,0,1,1.09-1.3,0.81,0.81,0,0,1,.73.37h0v-1.45h0.44Zm-0.44,2.12a0.8,0.8,0,0,0,0-.19,0.65,0.65,0,0,0-.64-0.51,0.8,0.8,0,0,0-.73.94,0.77,0.77,0,0,0,.72.9,0.66,0.66,0,0,0,.65-0.53,0.78,0.78,0,0,0,0-.19v-0.42Z" transform="translate(-1592 -2678)"/><path class="cls-5" d="M1708.12,2768.67a0.78,0.78,0,0,0,.83.84,1.6,1.6,0,0,0,.67-0.12l0.08,0.31a2,2,0,0,1-.81.15,1.12,1.12,0,0,1-1.19-1.22,1.18,1.18,0,0,1,1.14-1.31,1,1,0,0,1,1,1.14,1.7,1.7,0,0,1,0,.21h-1.7Zm1.29-.32a0.63,0.63,0,0,0-.61-0.72,0.73,0.73,0,0,0-.68.72h1.29Z" transform="translate(-1592 -2678)"/><path class="cls-5" d="M1712.41,2769.14c0,0.25,0,.47,0,0.66H1712l0-.4h0a0.91,0.91,0,0,1-.8.45,0.86,0.86,0,0,1-.84-1.06v-1.42h0.44v1.34c0,0.46.14,0.77,0.54,0.77a0.64,0.64,0,0,0,.58-0.4,0.65,0.65,0,0,0,0-.22v-1.49h0.44v1.76Z" transform="translate(-1592 -2678)"/><path class="cls-5" d="M1715,2768c0-.25,0-0.46,0-0.66h0.39l0,0.4h0a0.89,0.89,0,0,1,.8-0.46,0.88,0.88,0,0,1,.86,1v1.45h-0.44v-1.4a0.59,0.59,0,0,0-.56-0.72,0.63,0.63,0,0,0-.59.45,0.62,0.62,0,0,0,0,.21v1.46H1715V2768Z" transform="translate(-1592 -2678)"/><path class="cls-5" d="M1718.25,2766.7a0.27,0.27,0,0,1-.54,0,0.27,0.27,0,0,1,.28-0.28A0.26,0.26,0,0,1,1718.25,2766.7Zm-0.49,3.1v-2.42h0.44v2.42h-0.44Z" transform="translate(-1592 -2678)"/><path class="cls-5" d="M1718.87,2769.35a1.15,1.15,0,0,0,.58.17,0.39,0.39,0,0,0,.47-0.36,0.5,0.5,0,0,0-.45-0.45,0.78,0.78,0,0,1-.64-0.69,0.75,0.75,0,0,1,.83-0.71,1.21,1.21,0,0,1,.6.15l-0.11.32a0.94,0.94,0,0,0-.5-0.14,0.35,0.35,0,0,0-.41.33c0,0.2.15,0.29,0.46,0.41a0.74,0.74,0,1,1-.27,1.46,1.37,1.37,0,0,1-.68-0.17Z" transform="translate(-1592 -2678)"/><path class="cls-5" d="M1720.91,2766.25h0.44v3.55h-0.44v-3.55Z" transform="translate(-1592 -2678)"/><path class="cls-5" d="M1723.93,2766.25h0.44v3.55h-0.44v-3.55Z" transform="translate(-1592 -2678)"/><path class="cls-5" d="M1727.14,2769.14c0,0.25,0,.47,0,0.66h-0.39l0-.4h0a0.91,0.91,0,0,1-.8.45,0.86,0.86,0,0,1-.84-1.06v-1.42h0.44v1.34c0,0.46.14,0.77,0.54,0.77a0.64,0.64,0,0,0,.58-0.4,0.65,0.65,0,0,0,0-.22v-1.49h0.44v1.76Z" transform="translate(-1592 -2678)"/><path class="cls-5" d="M1729.6,2769.71a1.63,1.63,0,0,1-.7.14,1.15,1.15,0,0,1-1.21-1.24,1.23,1.23,0,0,1,1.3-1.29,1.47,1.47,0,0,1,.61.13l-0.1.34a1,1,0,0,0-.51-0.12,0.91,0.91,0,0,0,0,1.82,1.24,1.24,0,0,0,.54-0.12Z" transform="translate(-1592 -2678)"/><path class="cls-5" d="M1730.6,2766.7a0.27,0.27,0,0,1-.54,0,0.27,0.27,0,0,1,.28-0.28A0.26,0.26,0,0,1,1730.6,2766.7Zm-0.49,3.1v-2.42h0.44v2.42h-0.44Z" transform="translate(-1592 -2678)"/><path class="cls-5" d="M1731.28,2766.25h0.44v3.55h-0.44v-3.55Z" transform="translate(-1592 -2678)"/><path class="cls-5" d="M1732.95,2766.7a0.27,0.27,0,0,1-.54,0,0.27,0.27,0,0,1,.28-0.28A0.26,0.26,0,0,1,1732.95,2766.7Zm-0.49,3.1v-2.42h0.44v2.42h-0.44Z" transform="translate(-1592 -2678)"/><path class="cls-5" d="M1735.66,2769.14c0,0.25,0,.47,0,0.66h-0.39l0-.4h0a0.91,0.91,0,0,1-.8.45,0.86,0.86,0,0,1-.84-1.06v-1.42h0.44v1.34c0,0.46.14,0.77,0.54,0.77a0.64,0.64,0,0,0,.58-0.4,0.65,0.65,0,0,0,0-.22v-1.49h0.44v1.76Z" transform="translate(-1592 -2678)"/><path class="cls-5" d="M1736.32,2769.35a1.15,1.15,0,0,0,.58.17,0.39,0.39,0,0,0,.47-0.36,0.5,0.5,0,0,0-.45-0.45,0.78,0.78,0,0,1-.64-0.69,0.75,0.75,0,0,1,.83-0.71,1.21,1.21,0,0,1,.6.15l-0.11.32a0.94,0.94,0,0,0-.5-0.14,0.35,0.35,0,0,0-.41.33c0,0.2.15,0.29,0.46,0.41a0.74,0.74,0,1,1-.27,1.46,1.37,1.37,0,0,1-.68-0.17Z" transform="translate(-1592 -2678)"/><path class="cls-5" d="M1677.11,2772.7a0.27,0.27,0,0,1-.54,0,0.27,0.27,0,0,1,.28-0.28A0.26,0.26,0,0,1,1677.11,2772.7Zm-0.49,3.1v-2.42h0.44v2.42h-0.44Z" transform="translate(-1592 -2678)"/><path class="cls-5" d="M1677.79,2774c0-.25,0-0.46,0-0.66h0.39l0,0.4h0a0.89,0.89,0,0,1,.8-0.46,0.88,0.88,0,0,1,.86,1v1.45h-0.44v-1.4a0.59,0.59,0,0,0-.56-0.72,0.63,0.63,0,0,0-.59.45,0.62,0.62,0,0,0,0,.21v1.46h-0.44V2774Z" transform="translate(-1592 -2678)"/><path class="cls-5" d="M1680.5,2775.35a1.15,1.15,0,0,0,.58.17,0.39,0.39,0,0,0,.47-0.36,0.5,0.5,0,0,0-.45-0.45,0.78,0.78,0,0,1-.64-0.69,0.75,0.75,0,0,1,.84-0.71,1.2,1.2,0,0,1,.59.15l-0.11.32a0.94,0.94,0,0,0-.5-0.14,0.35,0.35,0,0,0-.41.33c0,0.2.15,0.29,0.46,0.41a0.74,0.74,0,1,1-.27,1.46,1.37,1.37,0,0,1-.68-0.17Z" transform="translate(-1592 -2678)"/><path class="cls-5" d="M1684.73,2774.57a1.18,1.18,0,0,1-1.21,1.29,1.15,1.15,0,0,1-1.16-1.25,1.18,1.18,0,0,1,1.2-1.29A1.15,1.15,0,0,1,1684.73,2774.57Zm-1.92,0a0.76,0.76,0,1,0,.75-0.94A0.82,0.82,0,0,0,1682.81,2774.59Z" transform="translate(-1592 -2678)"/><path class="cls-5" d="M1685.29,2772.25h0.44v3.55h-0.44v-3.55Z" transform="translate(-1592 -2678)"/><path class="cls-5" d="M1686.71,2774.67a0.78,0.78,0,0,0,.83.84,1.6,1.6,0,0,0,.67-0.12l0.08,0.31a2,2,0,0,1-.81.15,1.12,1.12,0,0,1-1.19-1.22,1.18,1.18,0,0,1,1.14-1.31,1,1,0,0,1,1,1.14,1.7,1.7,0,0,1,0,.21h-1.7Zm1.29-.32a0.63,0.63,0,0,0-.61-0.72,0.73,0.73,0,0,0-.68.72H1688Z" transform="translate(-1592 -2678)"/><path class="cls-5" d="M1689,2774c0-.25,0-0.46,0-0.66h0.39l0,0.4h0a0.89,0.89,0,0,1,.8-0.46,0.88,0.88,0,0,1,.86,1v1.45h-0.44v-1.4a0.59,0.59,0,0,0-.56-0.72,0.63,0.63,0,0,0-.59.45,0.62,0.62,0,0,0,0,.21v1.46H1689V2774Z" transform="translate(-1592 -2678)"/><path class="cls-5" d="M1691.69,2775.35a1.15,1.15,0,0,0,.58.17,0.39,0.39,0,0,0,.47-0.36,0.5,0.5,0,0,0-.45-0.45,0.78,0.78,0,0,1-.64-0.69,0.75,0.75,0,0,1,.84-0.71,1.2,1.2,0,0,1,.59.15l-0.11.32a0.94,0.94,0,0,0-.5-0.14,0.35,0.35,0,0,0-.41.33c0,0.2.15,0.29,0.46,0.41a0.74,0.74,0,1,1-.27,1.46,1.37,1.37,0,0,1-.68-0.17Z" transform="translate(-1592 -2678)"/><path class="cls-5" d="M1693.39,2776.42a7.21,7.21,0,0,0,.3-1.2l0.49,0a6.14,6.14,0,0,1-.48,1.22Z" transform="translate(-1592 -2678)"/><path class="cls-5" d="M1698.25,2772.7a0.27,0.27,0,0,1-.54,0,0.27,0.27,0,0,1,.28-0.28A0.26,0.26,0,0,1,1698.25,2772.7Zm-0.49,3.1v-2.42h0.44v2.42h-0.44Z" transform="translate(-1592 -2678)"/><path class="cls-5" d="M1698.93,2774.17c0-.31,0-0.56,0-0.79h0.39l0,0.42h0a1,1,0,0,1,.86-0.47,1.1,1.1,0,0,1,1,1.23,1.15,1.15,0,0,1-1.1,1.3,0.85,0.85,0,0,1-.75-0.38h0v1.32h-0.44v-2.62Zm0.44,0.65a1,1,0,0,0,0,.18,0.68,0.68,0,0,0,.66.52,0.94,0.94,0,0,0,0-1.84,0.7,0.7,0,0,0-.67.55,0.68,0.68,0,0,0,0,.18v0.42Z" transform="translate(-1592 -2678)"/><path class="cls-5" d="M1701.71,2775.35a1.15,1.15,0,0,0,.58.17,0.39,0.39,0,0,0,.47-0.36,0.5,0.5,0,0,0-.45-0.45,0.78,0.78,0,0,1-.64-0.69,0.75,0.75,0,0,1,.83-0.71,1.21,1.21,0,0,1,.6.15l-0.11.32a0.94,0.94,0,0,0-.5-0.14,0.35,0.35,0,0,0-.41.33c0,0.2.15,0.29,0.46,0.41a0.74,0.74,0,1,1-.27,1.46,1.37,1.37,0,0,1-.68-0.17Z" transform="translate(-1592 -2678)"/><path class="cls-5" d="M1705.78,2775.14c0,0.25,0,.47,0,0.66h-0.39l0-.4h0a0.91,0.91,0,0,1-.8.45,0.86,0.86,0,0,1-.84-1.06v-1.42h0.44v1.34c0,0.46.14,0.77,0.54,0.77a0.64,0.64,0,0,0,.58-0.4,0.65,0.65,0,0,0,0-.22v-1.49h0.44v1.76Z" transform="translate(-1592 -2678)"/><path class="cls-5" d="M1706.51,2774c0-.25,0-0.46,0-0.66h0.38l0,0.39h0a0.83,0.83,0,0,1,.76-0.45,0.72,0.72,0,0,1,.69.49h0a1,1,0,0,1,.27-0.32,0.83,0.83,0,0,1,.54-0.17,0.86,0.86,0,0,1,.8,1.05v1.43h-0.43v-1.37c0-.47-0.17-0.75-0.53-0.75a0.57,0.57,0,0,0-.52.4,0.72,0.72,0,0,0,0,.22v1.5H1708v-1.45a0.56,0.56,0,0,0-.51-0.67,0.66,0.66,0,0,0-.58.66v1.46h-0.43V2774Z" transform="translate(-1592 -2678)"/><path class="cls-5" d="M1715.82,2772.25v2.93c0,0.22,0,.46,0,0.63h-0.4l0-.42h0a0.9,0.9,0,0,1-.83.48,1.1,1.1,0,0,1-1-1.23,1.16,1.16,0,0,1,1.09-1.3,0.81,0.81,0,0,1,.73.37h0v-1.45h0.44Zm-0.44,2.12a0.8,0.8,0,0,0,0-.19,0.65,0.65,0,0,0-.64-0.51,0.8,0.8,0,0,0-.73.94,0.77,0.77,0,0,0,.72.9,0.66,0.66,0,0,0,.65-0.53,0.78,0.78,0,0,0,0-.19v-0.42Z" transform="translate(-1592 -2678)"/><path class="cls-5" d="M1718.58,2775.14c0,0.25,0,.47,0,0.66h-0.39l0-.4h0a0.91,0.91,0,0,1-.8.45,0.86,0.86,0,0,1-.84-1.06v-1.42H1717v1.34c0,0.46.14,0.77,0.54,0.77a0.64,0.64,0,0,0,.58-0.4,0.65,0.65,0,0,0,0-.22v-1.49h0.44v1.76Z" transform="translate(-1592 -2678)"/><path class="cls-5" d="M1721.5,2774.57a1.18,1.18,0,0,1-1.21,1.29,1.15,1.15,0,0,1-1.16-1.25,1.18,1.18,0,0,1,1.2-1.29A1.15,1.15,0,0,1,1721.5,2774.57Zm-1.92,0a0.76,0.76,0,1,0,.75-0.94A0.82,0.82,0,0,0,1719.57,2774.59Z" transform="translate(-1592 -2678)"/><path class="cls-5" d="M1725.1,2774c0-.25,0-0.46,0-0.66h0.39l0,0.4h0a0.89,0.89,0,0,1,.8-0.46,0.88,0.88,0,0,1,.86,1v1.45h-0.44v-1.4a0.59,0.59,0,0,0-.56-0.72,0.63,0.63,0,0,0-.59.45,0.62,0.62,0,0,0,0,.21v1.46h-0.44V2774Z" transform="translate(-1592 -2678)"/><path class="cls-5" d="M1730.07,2774.57a1.18,1.18,0,0,1-1.21,1.29,1.15,1.15,0,0,1-1.16-1.25,1.18,1.18,0,0,1,1.2-1.29A1.15,1.15,0,0,1,1730.07,2774.57Zm-1.92,0a0.76,0.76,0,1,0,.75-0.94A0.82,0.82,0,0,0,1728.15,2774.59Z" transform="translate(-1592 -2678)"/><path class="cls-5" d="M1730.56,2775.35a1.15,1.15,0,0,0,.58.17,0.39,0.39,0,0,0,.47-0.36,0.5,0.5,0,0,0-.45-0.45,0.78,0.78,0,0,1-.64-0.69,0.75,0.75,0,0,1,.83-0.71,1.21,1.21,0,0,1,.6.15l-0.11.32a0.94,0.94,0,0,0-.5-0.14,0.35,0.35,0,0,0-.41.33c0,0.2.15,0.29,0.46,0.41a0.74,0.74,0,1,1-.27,1.46,1.37,1.37,0,0,1-.68-0.17Z" transform="translate(-1592 -2678)"/><path class="cls-5" d="M1733.13,2772.68v0.7h0.63v0.34h-0.63V2775c0,0.3.09,0.47,0.33,0.47a1,1,0,0,0,.25,0l0,0.33a1.07,1.07,0,0,1-.39.06,0.61,0.61,0,0,1-.48-0.18,0.9,0.9,0,0,1-.17-0.63v-1.32h-0.38v-0.34h0.38v-0.58Z" transform="translate(-1592 -2678)"/><path class="cls-5" d="M1734.47,2774.67a0.78,0.78,0,0,0,.83.84,1.6,1.6,0,0,0,.67-0.12l0.08,0.31a2,2,0,0,1-.81.15,1.12,1.12,0,0,1-1.19-1.22,1.18,1.18,0,0,1,1.14-1.31,1,1,0,0,1,1,1.14,1.7,1.7,0,0,1,0,.21h-1.7Zm1.29-.32a0.63,0.63,0,0,0-.61-0.72,0.73,0.73,0,0,0-.68.72h1.29Z" transform="translate(-1592 -2678)"/><path class="cls-5" d="M1736.73,2774.13c0-.29,0-0.53,0-0.76h0.38l0,0.48h0a0.73,0.73,0,0,1,.67-0.53l0.13,0v0.42h-0.15a0.62,0.62,0,0,0-.59.57,1.26,1.26,0,0,0,0,.21v1.29h-0.44v-1.67Z" transform="translate(-1592 -2678)"/><path class="cls-5" d="M1676.86,2780.67a0.78,0.78,0,0,0,.83.84,1.6,1.6,0,0,0,.67-0.12l0.08,0.31a2,2,0,0,1-.81.15,1.12,1.12,0,0,1-1.19-1.22,1.18,1.18,0,0,1,1.14-1.31,1,1,0,0,1,1,1.14,1.7,1.7,0,0,1,0,.21h-1.7Zm1.29-.32a0.63,0.63,0,0,0-.61-0.72,0.73,0.73,0,0,0-.68.72h1.29Z" transform="translate(-1592 -2678)"/><path class="cls-5" d="M1681.15,2781.14c0,0.25,0,.47,0,0.66h-0.39l0-.4h0a0.91,0.91,0,0,1-.8.45,0.86,0.86,0,0,1-.84-1.06v-1.42h0.44v1.34c0,0.46.14,0.77,0.54,0.77a0.64,0.64,0,0,0,.58-0.4,0.65,0.65,0,0,0,0-.22v-1.49h0.44v1.76Z" transform="translate(-1592 -2678)"/><path class="cls-5" d="M1682.37,2778.7a0.27,0.27,0,0,1-.54,0,0.27,0.27,0,0,1,.28-0.28A0.26,0.26,0,0,1,1682.37,2778.7Zm-0.49,3.1v-2.42h0.44v2.42h-0.44Z" transform="translate(-1592 -2678)"/><path class="cls-5" d="M1683,2781.35a1.15,1.15,0,0,0,.58.17,0.39,0.39,0,0,0,.47-0.36,0.5,0.5,0,0,0-.45-0.45,0.78,0.78,0,0,1-.64-0.69,0.75,0.75,0,0,1,.84-0.71,1.2,1.2,0,0,1,.59.15l-0.11.32a0.94,0.94,0,0,0-.5-0.14,0.35,0.35,0,0,0-.41.33c0,0.2.15,0.29,0.46,0.41a0.74,0.74,0,1,1-.27,1.46,1.37,1.37,0,0,1-.68-0.17Z" transform="translate(-1592 -2678)"/><path class="cls-5" d="M1685,2780c0-.25,0-0.46,0-0.66h0.38l0,0.39h0a0.83,0.83,0,0,1,.76-0.45,0.72,0.72,0,0,1,.69.49h0a1,1,0,0,1,.27-0.32,0.83,0.83,0,0,1,.54-0.17,0.86,0.86,0,0,1,.8,1.05v1.43h-0.43v-1.37c0-.47-0.17-0.75-0.53-0.75a0.57,0.57,0,0,0-.52.4,0.72,0.72,0,0,0,0,.22v1.5h-0.43v-1.45a0.56,0.56,0,0,0-.51-0.67,0.66,0.66,0,0,0-.58.66v1.46H1685V2780Z" transform="translate(-1592 -2678)"/><path class="cls-5" d="M1691.39,2780.57a1.18,1.18,0,0,1-1.21,1.29,1.15,1.15,0,0,1-1.16-1.25,1.18,1.18,0,0,1,1.2-1.29A1.15,1.15,0,0,1,1691.39,2780.57Zm-1.92,0a0.76,0.76,0,1,0,.75-0.94A0.82,0.82,0,0,0,1689.47,2780.59Z" transform="translate(-1592 -2678)"/><path class="cls-5" d="M1694,2778.25v2.93c0,0.22,0,.46,0,0.63h-0.4l0-.42h0a0.89,0.89,0,0,1-.83.48,1.1,1.1,0,0,1-1-1.23,1.16,1.16,0,0,1,1.09-1.3,0.81,0.81,0,0,1,.73.37h0v-1.45H1694Zm-0.44,2.12a0.8,0.8,0,0,0,0-.19,0.65,0.65,0,0,0-.64-0.51,0.8,0.8,0,0,0-.73.94,0.77,0.77,0,0,0,.72.9,0.66,0.66,0,0,0,.65-0.53,0.78,0.78,0,0,0,0-.19v-0.42Z" transform="translate(-1592 -2678)"/><path class="cls-5" d="M1701.55,2780c0-.25,0-0.46,0-0.66h0.38l0,0.39h0a0.84,0.84,0,0,1,.76-0.45,0.72,0.72,0,0,1,.69.49h0a1,1,0,0,1,.27-0.32,0.83,0.83,0,0,1,.54-0.17,0.86,0.86,0,0,1,.79,1.05v1.43h-0.43v-1.37c0-.47-0.17-0.75-0.53-0.75a0.57,0.57,0,0,0-.52.4,0.72,0.72,0,0,0,0,.22v1.5h-0.43v-1.45a0.56,0.56,0,0,0-.51-0.67,0.66,0.66,0,0,0-.58.66v1.46h-0.43V2780Z" transform="translate(-1592 -2678)"/><path class="cls-5" d="M1707.92,2780.57a1.18,1.18,0,0,1-1.21,1.29,1.15,1.15,0,0,1-1.16-1.25,1.18,1.18,0,0,1,1.2-1.29A1.15,1.15,0,0,1,1707.92,2780.57Zm-1.92,0a0.76,0.76,0,1,0,.75-0.94A0.82,0.82,0,0,0,1706,2780.59Z" transform="translate(-1592 -2678)"/><path class="cls-5" d="M1710.56,2778.25v2.93c0,0.22,0,.46,0,0.63h-0.4l0-.42h0a0.9,0.9,0,0,1-.83.48,1.1,1.1,0,0,1-1-1.23,1.16,1.16,0,0,1,1.09-1.3,0.81,0.81,0,0,1,.73.37h0v-1.45h0.44Zm-0.44,2.12a0.8,0.8,0,0,0,0-.19,0.65,0.65,0,0,0-.64-0.51,0.8,0.8,0,0,0-.73.94,0.77,0.77,0,0,0,.72.9,0.66,0.66,0,0,0,.65-0.53,0.78,0.78,0,0,0,0-.19v-0.42Z" transform="translate(-1592 -2678)"/><path class="cls-5" d="M1711.53,2780.67a0.78,0.78,0,0,0,.83.84,1.6,1.6,0,0,0,.67-0.12l0.08,0.31a2,2,0,0,1-.81.15,1.12,1.12,0,0,1-1.19-1.22,1.18,1.18,0,0,1,1.14-1.31,1,1,0,0,1,1,1.14,1.7,1.7,0,0,1,0,.21h-1.7Zm1.29-.32a0.63,0.63,0,0,0-.61-0.72,0.73,0.73,0,0,0-.68.72h1.29Z" transform="translate(-1592 -2678)"/><path class="cls-5" d="M1713.79,2780.13c0-.29,0-0.53,0-0.76h0.38l0,0.48h0a0.73,0.73,0,0,1,.67-0.53l0.13,0v0.42h-0.15a0.62,0.62,0,0,0-.59.57,1.16,1.16,0,0,0,0,.21v1.29h-0.44v-1.67Z" transform="translate(-1592 -2678)"/><path class="cls-5" d="M1716.75,2781.8l0-.31h0a0.9,0.9,0,0,1-.74.36,0.69,0.69,0,0,1-.74-0.7c0-.59.52-0.91,1.46-0.9v0a0.5,0.5,0,0,0-.55-0.56,1.2,1.2,0,0,0-.63.18l-0.1-.29a1.51,1.51,0,0,1,.8-0.21,0.86,0.86,0,0,1,.92,1v0.91a3.39,3.39,0,0,0,0,.58h-0.4Zm-0.07-1.24c-0.48,0-1,.08-1,0.55a0.39,0.39,0,0,0,.42.42,0.6,0.6,0,0,0,.58-0.41,0.44,0.44,0,0,0,0-.14v-0.42Z" transform="translate(-1592 -2678)"/><path class="cls-5" d="M1718.32,2778.68v0.7H1719v0.34h-0.63V2781c0,0.3.09,0.47,0.33,0.47a1,1,0,0,0,.25,0l0,0.33a1.07,1.07,0,0,1-.39.06,0.61,0.61,0,0,1-.48-0.18,0.9,0.9,0,0,1-.17-0.63v-1.32h-0.38v-0.34h0.38v-0.58Z" transform="translate(-1592 -2678)"/><path class="cls-5" d="M1719.94,2778.7a0.27,0.27,0,0,1-.54,0,0.27,0.27,0,0,1,.28-0.28A0.26,0.26,0,0,1,1719.94,2778.7Zm-0.49,3.1v-2.42h0.44v2.42h-0.44Z" transform="translate(-1592 -2678)"/><path class="cls-5" d="M1722.65,2781.14c0,0.25,0,.47,0,0.66h-0.39l0-.4h0a0.91,0.91,0,0,1-.8.45,0.86,0.86,0,0,1-.84-1.06v-1.42H1721v1.34c0,0.46.14,0.77,0.54,0.77a0.64,0.64,0,0,0,.58-0.4,0.65,0.65,0,0,0,0-.22v-1.49h0.44v1.76Z" transform="translate(-1592 -2678)"/><path class="cls-5" d="M1723.31,2781.35a1.15,1.15,0,0,0,.58.17,0.39,0.39,0,0,0,.47-0.36,0.5,0.5,0,0,0-.45-0.45,0.78,0.78,0,0,1-.64-0.69,0.75,0.75,0,0,1,.83-0.71,1.21,1.21,0,0,1,.6.15l-0.11.32a0.94,0.94,0,0,0-.5-0.14,0.35,0.35,0,0,0-.41.33c0,0.2.15,0.29,0.46,0.41a0.74,0.74,0,1,1-.27,1.46,1.37,1.37,0,0,1-.68-0.17Z" transform="translate(-1592 -2678)"/><path class="cls-5" d="M1733.49,2781.8l0-.31h0a0.9,0.9,0,0,1-.74.36,0.69,0.69,0,0,1-.74-0.7c0-.59.52-0.91,1.46-0.9v0a0.5,0.5,0,0,0-.55-0.56,1.21,1.21,0,0,0-.63.18l-0.1-.29a1.51,1.51,0,0,1,.8-0.21,0.86,0.86,0,0,1,.92,1v0.91a3.39,3.39,0,0,0,0,.58h-0.4Zm-0.07-1.24c-0.48,0-1,.08-1,0.55a0.39,0.39,0,0,0,.42.42,0.6,0.6,0,0,0,.58-0.41,0.44,0.44,0,0,0,0-.14v-0.42Z" transform="translate(-1592 -2678)"/><path class="cls-5" d="M1736.65,2778.25v2.93c0,0.22,0,.46,0,0.63h-0.4l0-.42h0a0.9,0.9,0,0,1-.83.48,1.1,1.1,0,0,1-1-1.23,1.16,1.16,0,0,1,1.09-1.3,0.81,0.81,0,0,1,.73.37h0v-1.45h0.44Zm-0.44,2.12a0.8,0.8,0,0,0,0-.19,0.65,0.65,0,0,0-.64-0.51,0.8,0.8,0,0,0-.73.94,0.77,0.77,0,0,0,.72.9,0.66,0.66,0,0,0,.65-0.53,0.78,0.78,0,0,0,0-.19v-0.42Z" transform="translate(-1592 -2678)"/><path class="cls-5" d="M1737.22,2781.54a0.3,0.3,0,0,1,.3-0.31A0.32,0.32,0,1,1,1737.22,2781.54Z" transform="translate(-1592 -2678)"/><path class="cls-5" d="M1676.57,2787.27a1.54,1.54,0,0,0,.78.22,0.6,0.6,0,0,0,.71-0.58,0.73,0.73,0,0,0-.64-0.67,1.06,1.06,0,0,1-.89-1,1,1,0,0,1,1.09-.92,1.52,1.52,0,0,1,.75.17l-0.12.35a1.35,1.35,0,0,0-.64-0.16,0.55,0.55,0,0,0-.64.51,0.75,0.75,0,0,0,.67.65,1,1,0,0,1,.86,1,1,1,0,0,1-1.18,1,1.75,1.75,0,0,1-.86-0.21Z" transform="translate(-1592 -2678)"/><path class="cls-5" d="M1681.12,2786.57a1.18,1.18,0,0,1-1.21,1.29,1.15,1.15,0,0,1-1.16-1.25,1.18,1.18,0,0,1,1.2-1.29A1.15,1.15,0,0,1,1681.12,2786.57Zm-1.92,0a0.76,0.76,0,1,0,.75-0.94A0.82,0.82,0,0,0,1679.2,2786.59Z" transform="translate(-1592 -2678)"/><path class="cls-5" d="M1681.49,2784.25h0.44v3.55h-0.44v-3.55Z" transform="translate(-1592 -2678)"/><path class="cls-5" d="M1682.73,2786.67a0.78,0.78,0,0,0,.83.84,1.6,1.6,0,0,0,.67-0.12l0.08,0.31a2,2,0,0,1-.81.15,1.12,1.12,0,0,1-1.19-1.22,1.18,1.18,0,0,1,1.14-1.31,1,1,0,0,1,1,1.14,1.7,1.7,0,0,1,0,.21h-1.7Zm1.29-.32a0.63,0.63,0,0,0-.61-0.72,0.73,0.73,0,0,0-.68.72H1684Z" transform="translate(-1592 -2678)"/><path class="cls-5" d="M1686.14,2787.8l0-.31h0a0.9,0.9,0,0,1-.74.36,0.69,0.69,0,0,1-.74-0.7c0-.59.52-0.91,1.46-0.9v0a0.5,0.5,0,0,0-.55-0.56,1.2,1.2,0,0,0-.63.18l-0.1-.29a1.51,1.51,0,0,1,.8-0.21,0.86,0.86,0,0,1,.92,1v0.91a3.39,3.39,0,0,0,0,.58h-0.4Zm-0.07-1.24c-0.48,0-1,.08-1,0.55a0.39,0.39,0,0,0,.42.42,0.6,0.6,0,0,0,.58-0.41,0.44,0.44,0,0,0,0-.14v-0.42Z" transform="translate(-1592 -2678)"/><path class="cls-5" d="M1687.54,2784.68v0.7h0.63v0.34h-0.63V2787c0,0.3.09,0.47,0.33,0.47a1,1,0,0,0,.25,0l0,0.33a1.07,1.07,0,0,1-.39.06,0.61,0.61,0,0,1-.48-0.18,0.9,0.9,0,0,1-.17-0.63v-1.32h-0.38v-0.34h0.38v-0.58Z" transform="translate(-1592 -2678)"/><path class="cls-5" d="M1689.77,2784.7a0.27,0.27,0,0,1-.54,0,0.27,0.27,0,0,1,.28-0.28A0.26,0.26,0,0,1,1689.77,2784.7Zm-0.49,3.1v-2.42h0.44v2.42h-0.44Z" transform="translate(-1592 -2678)"/><path class="cls-5" d="M1690.27,2786c0-.25,0-0.46,0-0.66h0.39l0,0.4h0a0.89,0.89,0,0,1,.8-0.46,0.88,0.88,0,0,1,.86,1v1.45h-0.44v-1.4a0.59,0.59,0,0,0-.56-0.72,0.63,0.63,0,0,0-.59.45,0.62,0.62,0,0,0,0,.21v1.46h-0.44V2786Z" transform="translate(-1592 -2678)"/><path class="cls-5" d="M1693.37,2784.68v0.7H1694v0.34h-0.63V2787c0,0.3.09,0.47,0.33,0.47a1,1,0,0,0,.25,0l0,0.33a1.07,1.07,0,0,1-.39.06,0.61,0.61,0,0,1-.48-0.18,0.9,0.9,0,0,1-.17-0.63v-1.32h-0.38v-0.34h0.38v-0.58Z" transform="translate(-1592 -2678)"/><path class="cls-5" d="M1694.52,2786.67a0.78,0.78,0,0,0,.83.84,1.6,1.6,0,0,0,.67-0.12l0.08,0.31a2,2,0,0,1-.81.15,1.12,1.12,0,0,1-1.19-1.22,1.18,1.18,0,0,1,1.14-1.31,1,1,0,0,1,1,1.14,1.7,1.7,0,0,1,0,.21h-1.7Zm1.29-.32a0.63,0.63,0,0,0-.61-0.72,0.73,0.73,0,0,0-.68.72h1.29Z" transform="translate(-1592 -2678)"/><path class="cls-5" d="M1696.6,2784.25H1697v3.55h-0.44v-3.55Z" transform="translate(-1592 -2678)"/><path class="cls-5" d="M1697.59,2784.25H1698v3.55h-0.44v-3.55Z" transform="translate(-1592 -2678)"/><path class="cls-5" d="M1698.83,2786.67a0.78,0.78,0,0,0,.83.84,1.6,1.6,0,0,0,.67-0.12l0.08,0.31a2,2,0,0,1-.81.15,1.12,1.12,0,0,1-1.19-1.22,1.18,1.18,0,0,1,1.14-1.31,1,1,0,0,1,1,1.14,1.7,1.7,0,0,1,0,.21h-1.7Zm1.29-.32a0.63,0.63,0,0,0-.61-0.72,0.73,0.73,0,0,0-.68.72h1.29Z" transform="translate(-1592 -2678)"/><path class="cls-5" d="M1703,2785.38c0,0.18,0,.37,0,0.67v1.41a1.39,1.39,0,0,1-.35,1.11,1.29,1.29,0,0,1-.88.29,1.57,1.57,0,0,1-.81-0.2l0.11-.33a1.37,1.37,0,0,0,.71.19,0.73,0.73,0,0,0,.78-0.85v-0.27h0a0.87,0.87,0,0,1-.77.41,1.08,1.08,0,0,1-1-1.18,1.16,1.16,0,0,1,1.09-1.29,0.81,0.81,0,0,1,.76.42h0l0-.37H1703Zm-0.46,1a0.61,0.61,0,0,0,0-.2,0.63,0.63,0,0,0-.62-0.46,0.79,0.79,0,0,0-.72.92,0.76,0.76,0,0,0,.72.87,0.64,0.64,0,0,0,.61-0.45,0.76,0.76,0,0,0,0-.24v-0.44Z" transform="translate(-1592 -2678)"/><path class="cls-5" d="M1704.86,2787.8l0-.31h0a0.9,0.9,0,0,1-.74.36,0.69,0.69,0,0,1-.74-0.7c0-.59.52-0.91,1.46-0.9v0a0.5,0.5,0,0,0-.55-0.56,1.2,1.2,0,0,0-.63.18l-0.1-.29a1.51,1.51,0,0,1,.8-0.21,0.86,0.86,0,0,1,.92,1v0.91a3.39,3.39,0,0,0,0,.58h-0.4Zm-0.07-1.24c-0.48,0-1,.08-1,0.55a0.39,0.39,0,0,0,.42.42,0.6,0.6,0,0,0,.58-0.41,0.44,0.44,0,0,0,0-.14v-0.42Z" transform="translate(-1592 -2678)"/><path class="cls-5" d="M1705.74,2786c0-.25,0-0.46,0-0.66h0.38l0,0.39h0a0.84,0.84,0,0,1,.76-0.45,0.72,0.72,0,0,1,.69.49h0a1,1,0,0,1,.27-0.32,0.83,0.83,0,0,1,.54-0.17,0.86,0.86,0,0,1,.79,1.05v1.43h-0.43v-1.37c0-.47-0.17-0.75-0.53-0.75a0.57,0.57,0,0,0-.52.4,0.72,0.72,0,0,0,0,.22v1.5h-0.43v-1.45a0.56,0.56,0,0,0-.51-0.67,0.66,0.66,0,0,0-.58.66v1.46h-0.43V2786Z" transform="translate(-1592 -2678)"/><path class="cls-5" d="M1711.06,2784.68v0.7h0.63v0.34h-0.63V2787c0,0.3.08,0.47,0.33,0.47a1,1,0,0,0,.25,0l0,0.33a1.08,1.08,0,0,1-.39.06,0.61,0.61,0,0,1-.48-0.18,0.9,0.9,0,0,1-.17-0.63v-1.32h-0.38v-0.34h0.38v-0.58Z" transform="translate(-1592 -2678)"/><path class="cls-5" d="M1712.22,2786.67a0.78,0.78,0,0,0,.83.84,1.6,1.6,0,0,0,.67-0.12l0.08,0.31a2,2,0,0,1-.81.15,1.12,1.12,0,0,1-1.19-1.22,1.18,1.18,0,0,1,1.14-1.31,1,1,0,0,1,1,1.14,1.7,1.7,0,0,1,0,.21h-1.7Zm1.29-.32a0.63,0.63,0,0,0-.61-0.72,0.73,0.73,0,0,0-.68.72h1.29Z" transform="translate(-1592 -2678)"/><path class="cls-5" d="M1714.29,2786c0-.25,0-0.46,0-0.66h0.38l0,0.39h0a0.83,0.83,0,0,1,.76-0.45,0.72,0.72,0,0,1,.69.49h0a1,1,0,0,1,.27-0.32,0.83,0.83,0,0,1,.54-0.17,0.86,0.86,0,0,1,.8,1.05v1.43h-0.43v-1.37c0-.47-0.17-0.75-0.53-0.75a0.57,0.57,0,0,0-.52.4,0.72,0.72,0,0,0,0,.22v1.5h-0.43v-1.45a0.56,0.56,0,0,0-.51-0.67,0.66,0.66,0,0,0-.58.66v1.46h-0.43V2786Z" transform="translate(-1592 -2678)"/><path class="cls-5" d="M1718.28,2786.17c0-.31,0-0.56,0-0.79h0.39l0,0.42h0a1,1,0,0,1,.86-0.47,1.1,1.1,0,0,1,1,1.23,1.15,1.15,0,0,1-1.1,1.3,0.85,0.85,0,0,1-.75-0.38h0v1.32h-0.44v-2.62Zm0.44,0.65a1,1,0,0,0,0,.18,0.68,0.68,0,0,0,.66.52,0.94,0.94,0,0,0,0-1.84,0.7,0.7,0,0,0-.67.55,0.68,0.68,0,0,0,0,.18v0.42Z" transform="translate(-1592 -2678)"/><path class="cls-5" d="M1723.13,2786.57a1.18,1.18,0,0,1-1.21,1.29,1.15,1.15,0,0,1-1.16-1.25,1.18,1.18,0,0,1,1.2-1.29A1.15,1.15,0,0,1,1723.13,2786.57Zm-1.92,0a0.76,0.76,0,1,0,.75-0.94A0.82,0.82,0,0,0,1721.21,2786.59Z" transform="translate(-1592 -2678)"/><path class="cls-5" d="M1723.5,2786.13c0-.29,0-0.53,0-0.76h0.38l0,0.48h0a0.73,0.73,0,0,1,.67-0.53l0.13,0v0.42h-0.15a0.62,0.62,0,0,0-.59.57,1.16,1.16,0,0,0,0,.21v1.29h-0.44v-1.67Z" transform="translate(-1592 -2678)"/><path class="cls-5" d="M1725.46,2784.7a0.27,0.27,0,0,1-.54,0,0.27,0.27,0,0,1,.28-0.28A0.26,0.26,0,0,1,1725.46,2784.7Zm-0.49,3.1v-2.42h0.44v2.42H1725Z" transform="translate(-1592 -2678)"/><path class="cls-5" d="M1725.93,2787.8c0-.17,0-0.41,0-0.63v-2.93h0.44v1.52h0a0.9,0.9,0,0,1,.83-0.45,1.09,1.09,0,0,1,1,1.24,1.15,1.15,0,0,1-1.09,1.3,0.86,0.86,0,0,1-.81-0.46h0l0,0.4h-0.38Zm0.46-1a0.85,0.85,0,0,0,0,.16,0.68,0.68,0,0,0,.66.52,0.79,0.79,0,0,0,.74-0.93,0.79,0.79,0,0,0-.72-0.9,0.7,0.7,0,0,0-.67.54,0.83,0.83,0,0,0,0,.18v0.44Z" transform="translate(-1592 -2678)"/><path class="cls-5" d="M1730.64,2787.14c0,0.25,0,.47,0,0.66h-0.39l0-.4h0a0.91,0.91,0,0,1-.8.45,0.86,0.86,0,0,1-.84-1.06v-1.42H1729v1.34c0,0.46.14,0.77,0.54,0.77a0.64,0.64,0,0,0,.58-0.4,0.65,0.65,0,0,0,0-.22v-1.49h0.44v1.76Z" transform="translate(-1592 -2678)"/><path class="cls-5" d="M1731.12,2787.35a1.15,1.15,0,0,0,.58.17,0.39,0.39,0,0,0,.47-0.36,0.5,0.5,0,0,0-.45-0.45,0.78,0.78,0,0,1-.64-0.69,0.75,0.75,0,0,1,.83-0.71,1.21,1.21,0,0,1,.6.15l-0.11.32a0.94,0.94,0,0,0-.5-0.14,0.35,0.35,0,0,0-.41.33c0,0.2.15,0.29,0.46,0.41a0.74,0.74,0,1,1-.27,1.46,1.37,1.37,0,0,1-.68-0.17Z" transform="translate(-1592 -2678)"/><path class="cls-5" d="M1736,2787.14c0,0.25,0,.47,0,0.66h-0.39l0-.4h0a0.91,0.91,0,0,1-.8.45,0.86,0.86,0,0,1-.84-1.06v-1.42h0.44v1.34c0,0.46.14,0.77,0.54,0.77a0.64,0.64,0,0,0,.58-0.4,0.65,0.65,0,0,0,0-.22v-1.49H1736v1.76Z" transform="translate(-1592 -2678)"/><path class="cls-5" d="M1737.24,2784.68v0.7h0.63v0.34h-0.63V2787c0,0.3.09,0.47,0.33,0.47a1,1,0,0,0,.25,0l0,0.33a1.07,1.07,0,0,1-.39.06,0.61,0.61,0,0,1-.48-0.18,0.9,0.9,0,0,1-.17-0.63v-1.32h-0.38v-0.34h0.38v-0.58Z" transform="translate(-1592 -2678)"/><path class="cls-5" d="M1678.71,2790.25v2.93c0,0.22,0,.46,0,0.63h-0.4l0-.42h0a0.9,0.9,0,0,1-.83.48,1.1,1.1,0,0,1-1-1.23,1.16,1.16,0,0,1,1.09-1.3,0.81,0.81,0,0,1,.73.37h0v-1.45h0.44Zm-0.44,2.12a0.8,0.8,0,0,0,0-.19,0.65,0.65,0,0,0-.64-0.51,0.8,0.8,0,0,0-.73.94,0.77,0.77,0,0,0,.72.9,0.66,0.66,0,0,0,.65-0.53,0.78,0.78,0,0,0,0-.19v-0.42Z" transform="translate(-1592 -2678)"/><path class="cls-5" d="M1681.46,2793.14c0,0.25,0,.47,0,0.66h-0.39l0-.4h0a0.91,0.91,0,0,1-.8.45,0.86,0.86,0,0,1-.84-1.06v-1.42h0.44v1.34c0,0.46.14,0.77,0.54,0.77a0.64,0.64,0,0,0,.58-0.4,0.65,0.65,0,0,0,0-.22v-1.49h0.44v1.76Z" transform="translate(-1592 -2678)"/><path class="cls-5" d="M1684.38,2792.57a1.18,1.18,0,0,1-1.21,1.29,1.15,1.15,0,0,1-1.16-1.25,1.18,1.18,0,0,1,1.2-1.29A1.15,1.15,0,0,1,1684.38,2792.57Zm-1.92,0a0.76,0.76,0,1,0,.75-0.94A0.82,0.82,0,0,0,1682.46,2792.59Z" transform="translate(-1592 -2678)"/><path class="cls-5" d="M1684.53,2794.42a7.11,7.11,0,0,0,.3-1.2l0.49,0a6.14,6.14,0,0,1-.48,1.22Z" transform="translate(-1592 -2678)"/><path class="cls-5" d="M1689.3,2791.38l0.48,1.36a6.21,6.21,0,0,1,.2.62h0c0.05-.2.13-0.4,0.21-0.62l0.47-1.36h0.46l-1,2.42h-0.42l-0.92-2.42h0.47Z" transform="translate(-1592 -2678)"/><path class="cls-5" d="M1692,2790.7a0.27,0.27,0,0,1-.54,0,0.27,0.27,0,0,1,.28-0.28A0.26,0.26,0,0,1,1692,2790.7Zm-0.49,3.1v-2.42H1692v2.42h-0.44Z" transform="translate(-1592 -2678)"/><path class="cls-5" d="M1692.64,2793.35a1.15,1.15,0,0,0,.58.17,0.39,0.39,0,0,0,.47-0.36,0.5,0.5,0,0,0-.45-0.45,0.78,0.78,0,0,1-.64-0.69,0.75,0.75,0,0,1,.84-0.71,1.2,1.2,0,0,1,.59.15l-0.11.32a0.94,0.94,0,0,0-.5-0.14,0.35,0.35,0,0,0-.41.33c0,0.2.15,0.29,0.46,0.41a0.74,0.74,0,1,1-.27,1.46,1.37,1.37,0,0,1-.68-0.17Z" transform="translate(-1592 -2678)"/><path class="cls-5" d="M1699.3,2793.8l0-.31h0a0.9,0.9,0,0,1-.74.36,0.69,0.69,0,0,1-.74-0.7c0-.59.52-0.91,1.46-0.9v0a0.5,0.5,0,0,0-.55-0.56,1.2,1.2,0,0,0-.63.18l-0.1-.29a1.51,1.51,0,0,1,.8-0.21,0.86,0.86,0,0,1,.92,1v0.91a3.39,3.39,0,0,0,0,.58h-0.4Zm-0.07-1.24c-0.48,0-1,.08-1,0.55a0.39,0.39,0,0,0,.42.42,0.6,0.6,0,0,0,.58-0.41,0.44,0.44,0,0,0,0-.14v-0.42Z" transform="translate(-1592 -2678)"/><path class="cls-5" d="M1700.37,2792c0-.25,0-0.46,0-0.66h0.39l0,0.4h0a0.89,0.89,0,0,1,.8-0.46,0.88,0.88,0,0,1,.86,1v1.45H1702v-1.4a0.59,0.59,0,0,0-.56-0.72,0.63,0.63,0,0,0-.59.45,0.62,0.62,0,0,0,0,.21v1.46h-0.44V2792Z" transform="translate(-1592 -2678)"/><path class="cls-5" d="M1708.62,2792.57a1.18,1.18,0,0,1-1.21,1.29,1.15,1.15,0,0,1-1.16-1.25,1.18,1.18,0,0,1,1.2-1.29A1.15,1.15,0,0,1,1708.62,2792.57Zm-1.92,0a0.76,0.76,0,1,0,.75-0.94A0.82,0.82,0,0,0,1706.7,2792.59Z" transform="translate(-1592 -2678)"/><path class="cls-5" d="M1709.17,2792c0-.25,0-0.46,0-0.66h0.38l0,0.39h0a0.83,0.83,0,0,1,.76-0.45,0.72,0.72,0,0,1,.69.49h0a1,1,0,0,1,.27-0.32,0.83,0.83,0,0,1,.54-0.17,0.86,0.86,0,0,1,.8,1.05v1.43h-0.43v-1.37c0-.47-0.17-0.75-0.53-0.75a0.57,0.57,0,0,0-.52.4,0.72,0.72,0,0,0,0,.22v1.5h-0.43v-1.45a0.56,0.56,0,0,0-.51-0.67,0.66,0.66,0,0,0-.58.66v1.46h-0.43V2792Z" transform="translate(-1592 -2678)"/><path class="cls-5" d="M1713.34,2792c0-.25,0-0.46,0-0.66h0.39l0,0.4h0a0.89,0.89,0,0,1,.8-0.46,0.88,0.88,0,0,1,.86,1v1.45H1715v-1.4a0.59,0.59,0,0,0-.56-0.72,0.63,0.63,0,0,0-.59.45,0.62,0.62,0,0,0,0,.21v1.46h-0.44V2792Z" transform="translate(-1592 -2678)"/><path class="cls-5" d="M1716.61,2790.7a0.27,0.27,0,0,1-.54,0,0.27,0.27,0,0,1,.28-0.28A0.26,0.26,0,0,1,1716.61,2790.7Zm-0.49,3.1v-2.42h0.44v2.42h-0.44Z" transform="translate(-1592 -2678)"/><path class="cls-5" d="M1717.23,2793.35a1.15,1.15,0,0,0,.58.17,0.39,0.39,0,0,0,.47-0.36,0.5,0.5,0,0,0-.45-0.45,0.78,0.78,0,0,1-.64-0.69,0.75,0.75,0,0,1,.84-0.71,1.2,1.2,0,0,1,.59.15l-0.11.32a0.94,0.94,0,0,0-.5-0.14,0.35,0.35,0,0,0-.41.33c0,0.2.15,0.29,0.46,0.41a0.74,0.74,0,1,1-.27,1.46,1.37,1.37,0,0,1-.68-0.17Z" transform="translate(-1592 -2678)"/><path class="cls-5" d="M1722.48,2793.35a1.15,1.15,0,0,0,.58.17,0.39,0.39,0,0,0,.47-0.36,0.5,0.5,0,0,0-.45-0.45,0.78,0.78,0,0,1-.64-0.69,0.75,0.75,0,0,1,.83-0.71,1.21,1.21,0,0,1,.6.15l-0.11.32a0.94,0.94,0,0,0-.5-0.14,0.35,0.35,0,0,0-.41.33c0,0.2.15,0.29,0.46,0.41a0.74,0.74,0,1,1-.27,1.46,1.37,1.37,0,0,1-.68-0.17Z" transform="translate(-1592 -2678)"/><path class="cls-5" d="M1726.55,2793.14c0,0.25,0,.47,0,0.66h-0.39l0-.4h0a0.91,0.91,0,0,1-.8.45,0.86,0.86,0,0,1-.84-1.06v-1.42h0.44v1.34c0,0.46.14,0.77,0.54,0.77a0.64,0.64,0,0,0,.58-0.4,0.65,0.65,0,0,0,0-.22v-1.49h0.44v1.76Z" transform="translate(-1592 -2678)"/><path class="cls-5" d="M1727.28,2792c0-.25,0-0.46,0-0.66h0.38l0,0.39h0a0.84,0.84,0,0,1,.76-0.45,0.72,0.72,0,0,1,.69.49h0a1,1,0,0,1,.27-0.32,0.83,0.83,0,0,1,.54-0.17,0.86,0.86,0,0,1,.79,1.05v1.43h-0.43v-1.37c0-.47-0.17-0.75-0.53-0.75a0.57,0.57,0,0,0-.52.4,0.72,0.72,0,0,0,0,.22v1.5h-0.43v-1.45a0.56,0.56,0,0,0-.51-0.67,0.66,0.66,0,0,0-.58.66v1.46h-0.43V2792Z" transform="translate(-1592 -2678)"/><path class="cls-5" d="M1731.45,2792c0-.25,0-0.46,0-0.66h0.38l0,0.39h0a0.84,0.84,0,0,1,.76-0.45,0.72,0.72,0,0,1,.69.49h0a1,1,0,0,1,.27-0.32,0.83,0.83,0,0,1,.54-0.17,0.86,0.86,0,0,1,.79,1.05v1.43h-0.43v-1.37c0-.47-0.17-0.75-0.53-0.75a0.57,0.57,0,0,0-.52.4,0.72,0.72,0,0,0,0,.22v1.5H1733v-1.45a0.56,0.56,0,0,0-.51-0.67,0.66,0.66,0,0,0-.58.66v1.46h-0.43V2792Z" transform="translate(-1592 -2678)"/><path class="cls-5" d="M1737.81,2792.57a1.18,1.18,0,0,1-1.21,1.29,1.15,1.15,0,0,1-1.16-1.25,1.18,1.18,0,0,1,1.2-1.29A1.15,1.15,0,0,1,1737.81,2792.57Zm-1.92,0a0.76,0.76,0,1,0,.75-0.94A0.82,0.82,0,0,0,1735.89,2792.59Z" transform="translate(-1592 -2678)"/><path class="cls-5" d="M1678.7,2797.38c0,0.18,0,.37,0,0.67v1.41a1.39,1.39,0,0,1-.35,1.11,1.29,1.29,0,0,1-.88.29,1.57,1.57,0,0,1-.81-0.2l0.11-.33a1.37,1.37,0,0,0,.71.19,0.73,0.73,0,0,0,.78-0.85v-0.27h0a0.87,0.87,0,0,1-.77.41,1.08,1.08,0,0,1-1-1.18,1.16,1.16,0,0,1,1.09-1.29,0.81,0.81,0,0,1,.76.42h0l0-.37h0.38Zm-0.46,1a0.61,0.61,0,0,0,0-.2,0.63,0.63,0,0,0-.62-0.46,0.79,0.79,0,0,0-.72.92,0.76,0.76,0,0,0,.72.87,0.64,0.64,0,0,0,.61-0.45,0.76,0.76,0,0,0,0-.24v-0.44Z" transform="translate(-1592 -2678)"/><path class="cls-5" d="M1679.38,2798.13c0-.29,0-0.53,0-0.76h0.38l0,0.48h0a0.73,0.73,0,0,1,.67-0.53l0.13,0v0.42h-0.15a0.62,0.62,0,0,0-.59.57,1.16,1.16,0,0,0,0,.21v1.29h-0.44v-1.67Z" transform="translate(-1592 -2678)"/><path class="cls-5" d="M1682.33,2799.8l0-.31h0a0.9,0.9,0,0,1-.74.36,0.69,0.69,0,0,1-.74-0.7c0-.59.52-0.91,1.46-0.9v0a0.5,0.5,0,0,0-.55-0.56,1.21,1.21,0,0,0-.63.18l-0.1-.29a1.51,1.51,0,0,1,.8-0.21,0.86,0.86,0,0,1,.92,1v0.91a3.39,3.39,0,0,0,0,.58h-0.4Zm-0.07-1.24c-0.48,0-1,.08-1,0.55a0.39,0.39,0,0,0,.42.42,0.6,0.6,0,0,0,.58-0.41,0.44,0.44,0,0,0,0-.14v-0.42Z" transform="translate(-1592 -2678)"/><path class="cls-5" d="M1683.65,2798.67a0.78,0.78,0,0,0,.83.84,1.6,1.6,0,0,0,.67-0.12l0.08,0.31a2,2,0,0,1-.81.15,1.12,1.12,0,0,1-1.19-1.22,1.18,1.18,0,0,1,1.14-1.31,1,1,0,0,1,1,1.14,1.7,1.7,0,0,1,0,.21h-1.7Zm1.29-.32a0.63,0.63,0,0,0-.61-0.72,0.73,0.73,0,0,0-.68.72h1.29Z" transform="translate(-1592 -2678)"/><path class="cls-5" d="M1687.63,2799.71a1.63,1.63,0,0,1-.7.14,1.15,1.15,0,0,1-1.21-1.24,1.23,1.23,0,0,1,1.3-1.29,1.49,1.49,0,0,1,.61.13l-0.1.34a1,1,0,0,0-.51-0.12,0.91,0.91,0,0,0,0,1.82,1.24,1.24,0,0,0,.54-0.12Z" transform="translate(-1592 -2678)"/><path class="cls-5" d="M1690.31,2798.57a1.18,1.18,0,0,1-1.21,1.29,1.15,1.15,0,0,1-1.16-1.25,1.18,1.18,0,0,1,1.2-1.29A1.15,1.15,0,0,1,1690.31,2798.57Zm-1.92,0a0.76,0.76,0,1,0,.75-0.94A0.82,0.82,0,0,0,1688.39,2798.59Z" transform="translate(-1592 -2678)"/><path class="cls-5" d="M1690.46,2800.42a7.21,7.21,0,0,0,.3-1.2l0.49,0a6.14,6.14,0,0,1-.48,1.22Z" transform="translate(-1592 -2678)"/><path class="cls-5" d="M1695.22,2798c0-.25,0-0.46,0-0.66h0.38l0,0.39h0a0.83,0.83,0,0,1,.76-0.45,0.72,0.72,0,0,1,.69.49h0a1,1,0,0,1,.27-0.32,0.83,0.83,0,0,1,.54-0.17,0.86,0.86,0,0,1,.8,1.05v1.43h-0.43v-1.37c0-.47-0.17-0.75-0.53-0.75a0.57,0.57,0,0,0-.52.4,0.72,0.72,0,0,0,0,.22v1.5h-0.43v-1.45a0.56,0.56,0,0,0-.51-0.67,0.66,0.66,0,0,0-.58.66v1.46h-0.43V2798Z" transform="translate(-1592 -2678)"/><path class="cls-5" d="M1699.64,2798.67a0.78,0.78,0,0,0,.83.84,1.6,1.6,0,0,0,.67-0.12l0.08,0.31a2,2,0,0,1-.81.15,1.12,1.12,0,0,1-1.19-1.22,1.18,1.18,0,0,1,1.14-1.31,1,1,0,0,1,1,1.14,1.7,1.7,0,0,1,0,.21h-1.7Zm1.29-.32a0.63,0.63,0,0,0-.61-0.72,0.73,0.73,0,0,0-.68.72h1.29Z" transform="translate(-1592 -2678)"/><path class="cls-5" d="M1701.9,2796.25h0.44v3.55h-0.44v-3.55Z" transform="translate(-1592 -2678)"/><path class="cls-5" d="M1708.61,2796.25v2.93c0,0.22,0,.46,0,0.63h-0.4l0-.42h0a0.9,0.9,0,0,1-.83.48,1.1,1.1,0,0,1-1-1.23,1.16,1.16,0,0,1,1.09-1.3,0.81,0.81,0,0,1,.73.37h0v-1.45h0.44Zm-0.44,2.12a0.8,0.8,0,0,0,0-.19,0.65,0.65,0,0,0-.64-0.51,0.8,0.8,0,0,0-.73.94,0.77,0.77,0,0,0,.72.9,0.66,0.66,0,0,0,.65-0.53,0.78,0.78,0,0,0,0-.19v-0.42Z" transform="translate(-1592 -2678)"/><path class="cls-5" d="M1709.83,2796.7a0.27,0.27,0,0,1-.54,0,0.27,0.27,0,0,1,.28-0.28A0.26,0.26,0,0,1,1709.83,2796.7Zm-0.49,3.1v-2.42h0.44v2.42h-0.44Z" transform="translate(-1592 -2678)"/><path class="cls-5" d="M1711.85,2799.8l0-.31h0a0.9,0.9,0,0,1-.74.36,0.69,0.69,0,0,1-.74-0.7c0-.59.52-0.91,1.46-0.9v0a0.5,0.5,0,0,0-.55-0.56,1.21,1.21,0,0,0-.63.18l-0.1-.29a1.51,1.51,0,0,1,.8-0.21,0.86,0.86,0,0,1,.92,1v0.91a3.39,3.39,0,0,0,0,.58h-0.4Zm-0.07-1.24c-0.48,0-1,.08-1,0.55a0.39,0.39,0,0,0,.42.42,0.6,0.6,0,0,0,.58-0.41,0.44,0.44,0,0,0,0-.14v-0.42Z" transform="translate(-1592 -2678)"/><path class="cls-5" d="M1712.92,2798c0-.25,0-0.46,0-0.66h0.38l0,0.39h0a0.83,0.83,0,0,1,.76-0.45,0.72,0.72,0,0,1,.69.49h0a1,1,0,0,1,.27-0.32,0.83,0.83,0,0,1,.54-0.17,0.86,0.86,0,0,1,.8,1.05v1.43H1716v-1.37c0-.47-0.17-0.75-0.53-0.75a0.57,0.57,0,0,0-.52.4,0.72,0.72,0,0,0,0,.22v1.5h-0.43v-1.45a0.56,0.56,0,0,0-.51-0.67,0.66,0.66,0,0,0-.58.66v1.46h-0.43V2798Z" transform="translate(-1592 -2678)"/><path class="cls-5" d="M1720.48,2799.35a1.15,1.15,0,0,0,.58.17,0.39,0.39,0,0,0,.47-0.36,0.5,0.5,0,0,0-.45-0.45,0.78,0.78,0,0,1-.64-0.69,0.75,0.75,0,0,1,.84-0.71,1.2,1.2,0,0,1,.59.15l-0.11.32a0.94,0.94,0,0,0-.5-0.14,0.35,0.35,0,0,0-.41.33c0,0.2.15,0.29,0.46,0.41a0.74,0.74,0,1,1-.27,1.46,1.37,1.37,0,0,1-.68-0.17Z" transform="translate(-1592 -2678)"/><path class="cls-5" d="M1724.24,2799.71a1.63,1.63,0,0,1-.7.14,1.15,1.15,0,0,1-1.21-1.24,1.23,1.23,0,0,1,1.3-1.29,1.47,1.47,0,0,1,.61.13l-0.1.34a1,1,0,0,0-.51-0.12,0.91,0.91,0,0,0,0,1.82,1.24,1.24,0,0,0,.54-0.12Z" transform="translate(-1592 -2678)"/><path class="cls-5" d="M1726.1,2799.8l0-.31h0a0.9,0.9,0,0,1-.74.36,0.69,0.69,0,0,1-.74-0.7c0-.59.52-0.91,1.46-0.9v0a0.5,0.5,0,0,0-.55-0.56,1.21,1.21,0,0,0-.63.18l-0.1-.29a1.51,1.51,0,0,1,.8-0.21,0.86,0.86,0,0,1,.92,1v0.91a3.39,3.39,0,0,0,0,.58h-0.4Zm-0.07-1.24c-0.48,0-1,.08-1,0.55a0.39,0.39,0,0,0,.42.42,0.6,0.6,0,0,0,.58-0.41,0.44,0.44,0,0,0,0-.14v-0.42Z" transform="translate(-1592 -2678)"/><path class="cls-5" d="M1727.41,2798.67a0.78,0.78,0,0,0,.83.84,1.6,1.6,0,0,0,.67-0.12l0.08,0.31a2,2,0,0,1-.81.15,1.12,1.12,0,0,1-1.19-1.22,1.18,1.18,0,0,1,1.14-1.31,1,1,0,0,1,1,1.14,1.7,1.7,0,0,1,0,.21h-1.7Zm1.29-.32a0.63,0.63,0,0,0-.61-0.72,0.73,0.73,0,0,0-.68.72h1.29Z" transform="translate(-1592 -2678)"/><path class="cls-5" d="M1729.84,2797.38l0.48,1.36a6.21,6.21,0,0,1,.2.62h0c0.05-.2.13-0.4,0.21-0.62l0.47-1.36h0.46l-1,2.42h-0.42l-0.92-2.42h0.47Z" transform="translate(-1592 -2678)"/><path class="cls-5" d="M1734.22,2798.57a1.18,1.18,0,0,1-1.21,1.29,1.15,1.15,0,0,1-1.16-1.25,1.18,1.18,0,0,1,1.2-1.29A1.15,1.15,0,0,1,1734.22,2798.57Zm-1.92,0a0.76,0.76,0,1,0,.75-0.94A0.82,0.82,0,0,0,1732.3,2798.59Z" transform="translate(-1592 -2678)"/><path class="cls-5" d="M1734.77,2796.25h0.44v3.55h-0.44v-3.55Z" transform="translate(-1592 -2678)"/><path class="cls-5" d="M1737.29,2799.8l0-.31h0a0.9,0.9,0,0,1-.74.36,0.69,0.69,0,0,1-.74-0.7c0-.59.52-0.91,1.46-0.9v0a0.5,0.5,0,0,0-.55-0.56,1.21,1.21,0,0,0-.63.18l-0.1-.29a1.51,1.51,0,0,1,.8-0.21,0.86,0.86,0,0,1,.92,1v0.91a3.39,3.39,0,0,0,0,.58h-0.4Zm-0.07-1.24c-0.48,0-1,.08-1,0.55a0.39,0.39,0,0,0,.42.42,0.6,0.6,0,0,0,.58-0.41,0.44,0.44,0,0,0,0-.14v-0.42Z" transform="translate(-1592 -2678)"/><g class="cls-6"><path class="cls-5" d="M1678.31,2802.25h0.44l0.87,1.51h0a0.38,0.38,0,0,1,.14-0.31,0.57,0.57,0,0,1,.38-0.12,1.8,1.8,0,0,1,1.44,1l0.83,1.44H1682l-0.8-1.39a1.23,1.23,0,0,0-1-.72,0.32,0.32,0,0,0-.34.44,0.65,0.65,0,0,0,.09.21l0.84,1.46h-0.44Z" transform="translate(-1592 -2678)"/><path class="cls-5" d="M1682.72,2804.67a1.57,1.57,0,0,0,1.32.84,1.14,1.14,0,0,0,.6-0.12l0.26,0.31a1.38,1.38,0,0,1-.72.15,2.29,2.29,0,0,1-1.9-1.22c-0.42-.73-0.32-1.31.38-1.31a2.14,2.14,0,0,1,1.66,1.14c0.05,0.09.08,0.16,0.1,0.21h-1.7Zm1.11-.32a1.3,1.3,0,0,0-1-.72c-0.45,0-.4.41-0.26,0.72h1.29Z" transform="translate(-1592 -2678)"/><path class="cls-5" d="M1684.62,2804c-0.14-.25-0.27-0.46-0.4-0.66h0.39l0.26,0.4h0a0.45,0.45,0,0,1,.54-0.46,1.79,1.79,0,0,1,1.45,1l0.84,1.45h-0.44l-0.81-1.4a1.22,1.22,0,0,0-1-.72,0.32,0.32,0,0,0-.33.45,0.76,0.76,0,0,0,.09.21l0.84,1.46h-0.44Z" transform="translate(-1592 -2678)"/><path class="cls-5" d="M1688.45,2802.25l1.69,2.93c0.12,0.22.27,0.46,0.38,0.63h-0.4l-0.26-.42h0a0.45,0.45,0,0,1-.55.48,2.3,2.3,0,0,1-1.75-1.23c-0.47-.81-0.26-1.3.33-1.3a1.5,1.5,0,0,1,.94.37h0l-0.84-1.45h0.44Zm0.78,2.12a1.4,1.4,0,0,0-.13-0.19,1.33,1.33,0,0,0-.93-0.51c-0.46,0-.49.4-0.19,0.94a1.61,1.61,0,0,0,1.23.9,0.35,0.35,0,0,0,.34-0.53,1,1,0,0,0-.09-0.19Z" transform="translate(-1592 -2678)"/><path class="cls-5" d="M1690.27,2804.13c-0.16-.29-0.31-0.53-0.46-0.76h0.38l0.29,0.48h0a0.37,0.37,0,0,1,.36-0.53l0.13,0,0.24,0.42h-0.16c-0.31,0-.39.23-0.26,0.57a1.54,1.54,0,0,0,.1.21l0.75,1.29h-0.44Z" transform="translate(-1592 -2678)"/><path class="cls-5" d="M1692.41,2804.67a1.57,1.57,0,0,0,1.32.84,1.14,1.14,0,0,0,.6-0.12l0.26,0.31a1.38,1.38,0,0,1-.72.15,2.29,2.29,0,0,1-1.9-1.22c-0.42-.73-0.32-1.31.38-1.31a2.14,2.14,0,0,1,1.66,1.14c0.05,0.09.08,0.16,0.1,0.21h-1.7Zm1.11-.32a1.3,1.3,0,0,0-1-.72c-0.45,0-.4.41-0.26,0.72h1.29Z" transform="translate(-1592 -2678)"/><path class="cls-5" d="M1694.36,2804.13c-0.16-.29-0.31-0.53-0.46-0.76h0.38l0.29,0.48h0a0.37,0.37,0,0,1,.36-0.53l0.13,0,0.24,0.42h-0.16c-0.31,0-.39.23-0.26,0.57a1.54,1.54,0,0,0,.1.21l0.75,1.29h-0.44Z" transform="translate(-1592 -2678)"/><path class="cls-5" d="M1695.68,2802.7c0.09,0.15.05,0.27-.12,0.27a0.54,0.54,0,0,1-.42-0.27c-0.09-.16,0-0.28.12-0.28A0.54,0.54,0,0,1,1695.68,2802.7Zm1.3,3.1-1.4-2.42H1696l1.4,2.42H1697Z" transform="translate(-1592 -2678)"/><path class="cls-5" d="M1696.88,2802.68l0.4,0.7h0.63l0.19,0.34h-0.63l0.75,1.31a0.74,0.74,0,0,0,.6.47,0.76,0.76,0,0,0,.24,0l0.21,0.33a0.81,0.81,0,0,1-.36.06,1,1,0,0,1-.58-0.18,1.8,1.8,0,0,1-.53-0.63l-0.76-1.32h-0.38l-0.19-.34h0.38l-0.33-.58Z" transform="translate(-1592 -2678)"/><path class="cls-5" d="M1706.85,2805.8l-0.21-.31h0a0.46,0.46,0,0,1-.53.36,1.41,1.41,0,0,1-1.14-.7c-0.34-.59,0-0.91.94-0.9l0,0a1,1,0,0,0-.87-0.56,0.74,0.74,0,0,0-.53.18l-0.27-.29a0.94,0.94,0,0,1,.67-0.21,1.75,1.75,0,0,1,1.49,1l0.52,0.91a5.68,5.68,0,0,0,.38.58h-0.4Zm-0.78-1.24c-0.49,0-1,.08-0.71.55a0.79,0.79,0,0,0,.66.42,0.31,0.31,0,0,0,.35-0.41,0.52,0.52,0,0,0-.06-0.14Z" transform="translate(-1592 -2678)"/><path class="cls-5" d="M1706.63,2802.68l0.4,0.7h0.63l0.19,0.34h-0.63L1708,2805a0.74,0.74,0,0,0,.6.47,0.76,0.76,0,0,0,.24,0l0.21,0.33a0.81,0.81,0,0,1-.36.06,1,1,0,0,1-.58-0.18,1.8,1.8,0,0,1-.53-0.63l-0.76-1.32h-0.38l-0.19-.34h0.38l-0.33-.58Z" transform="translate(-1592 -2678)"/><path class="cls-5" d="M1709.29,2805.54c-0.11-.18-0.06-0.31.12-0.31a0.6,0.6,0,0,1,.48.31c0.1,0.18.07,0.32-.12,0.32A0.61,0.61,0,0,1,1709.29,2805.54Z" transform="translate(-1592 -2678)"/><path class="cls-5" d="M1717.14,2804.22h-1.31l0.7,1.22H1718l0.21,0.37h-1.9l-1.95-3.37h1.82l0.21,0.37H1715l0.62,1.07h1.31Z" transform="translate(-1592 -2678)"/><path class="cls-5" d="M1720.36,2805.14c0.14,0.25.28,0.47,0.4,0.66h-0.39l-0.25-.4h0a0.46,0.46,0,0,1-.54.45,1.75,1.75,0,0,1-1.45-1.06l-0.82-1.42h0.44l0.77,1.34a1.24,1.24,0,0,0,1,.77,0.32,0.32,0,0,0,.35-0.4,0.77,0.77,0,0,0-.09-0.22l-0.86-1.49h0.44Z" transform="translate(-1592 -2678)"/><path class="cls-5" d="M1720.45,2804c-0.14-.25-0.27-0.46-0.4-0.66h0.38l0.25,0.39h0a0.42,0.42,0,0,1,.5-0.45,1.43,1.43,0,0,1,1,.49h0a0.45,0.45,0,0,1,.53-0.49,1.78,1.78,0,0,1,1.4,1.05l0.82,1.43h-0.43l-0.79-1.37a1.23,1.23,0,0,0-1-.75,0.29,0.29,0,0,0-.29.4,0.87,0.87,0,0,0,.09.22l0.86,1.5H1723l-0.84-1.45a1.16,1.16,0,0,0-.89-0.67,0.31,0.31,0,0,0-.29.44,0.73,0.73,0,0,0,.09.21l0.84,1.46h-0.43Z" transform="translate(-1592 -2678)"/><path class="cls-5" d="M1732.69,2805.8l-0.21-.31h0a0.46,0.46,0,0,1-.53.36,1.41,1.41,0,0,1-1.14-.7c-0.34-.59,0-0.91.94-0.9l0,0a1,1,0,0,0-.87-0.56,0.74,0.74,0,0,0-.53.18l-0.27-.29a0.94,0.94,0,0,1,.67-0.21,1.75,1.75,0,0,1,1.49,1l0.52,0.91a5.68,5.68,0,0,0,.38.58h-0.4Zm-0.78-1.24c-0.49,0-1,.08-0.71.55a0.79,0.79,0,0,0,.66.42,0.31,0.31,0,0,0,.35-0.41,0.52,0.52,0,0,0-.06-0.14Z" transform="translate(-1592 -2678)"/><path class="cls-5" d="M1732.47,2802.68l0.4,0.7h0.63l0.19,0.34h-0.63l0.75,1.31a0.73,0.73,0,0,0,.6.47,0.76,0.76,0,0,0,.24,0l0.21,0.33a0.81,0.81,0,0,1-.36.06,1,1,0,0,1-.58-0.18,1.8,1.8,0,0,1-.53-0.63l-0.76-1.32h-0.38l-0.19-.34h0.38l-0.33-.58Z" transform="translate(-1592 -2678)"/><path class="cls-5" d="M1736.8,2805.42h0a0.44,0.44,0,0,1-.54.43,2.31,2.31,0,0,1-1.73-1.23c-0.52-.91-0.17-1.31.34-1.31a1.51,1.51,0,0,1,1,.42h0l-0.2-.37h0.42c0.11,0.21.22,0.42,0.37,0.67l1.59,2.75h-0.44Zm-0.62-1.07a1.35,1.35,0,0,0-.13-0.19,1.32,1.32,0,0,0-.92-0.5c-0.46,0-.51.39-0.19,0.93a1.62,1.62,0,0,0,1.24.9,0.34,0.34,0,0,0,.35-0.48,0.88,0.88,0,0,0-.09-0.21Z" transform="translate(-1592 -2678)"/><path class="cls-5" d="M1739.82,2805.14c0.14,0.25.28,0.47,0.4,0.66h-0.39l-0.25-.4h0a0.46,0.46,0,0,1-.54.45,1.75,1.75,0,0,1-1.45-1.06l-0.82-1.42h0.44l0.77,1.34a1.24,1.24,0,0,0,1,.77,0.32,0.32,0,0,0,.35-0.4,0.77,0.77,0,0,0-.09-0.22l-0.86-1.49h0.44Z" transform="translate(-1592 -2678)"/><path class="cls-5" d="M1739.63,2802.7c0.09,0.15.05,0.27-.12,0.27a0.54,0.54,0,0,1-.42-0.27c-0.09-.16,0-0.28.12-0.28A0.54,0.54,0,0,1,1739.63,2802.7Zm1.3,3.1-1.4-2.42H1740l1.4,2.42h-0.44Z" transform="translate(-1592 -2678)"/></g></svg>