<svg xmlns="http://www.w3.org/2000/svg" width="60" height="60" viewBox="0 0 60 60"><path fill="#FFF" d="M7.98 19.498h44v29h-44z"/><path fill="#343434" d="M38.62 13.822h3.998v5.683H38.62zm-20.983 0h3.998v5.683h-3.998zm7.556 13.967v-2.393h.646v1.87h.921v.522h-1.567zm3.37 0h-1.42v-2.393h1.42v.519h-.773v.377h.717v.519h-.717v.451h.773v.527zm1.762-2.392h.724l-.784 2.393h-.761l-.78-2.393h.727l.325 1.213a3.6 3.6 0 0 1 .111.562 4.467 4.467 0 0 1 .107-.557l.331-1.218zm.983 2.392v-2.393h.649v2.393h-.649zm3.601-.726c0 .148-.038.28-.113.395a.744.744 0 0 1-.325.269 1.21 1.21 0 0 1-.499.096c-.16 0-.293-.011-.401-.033s-.221-.062-.337-.117v-.576c.123.063.251.113.385.148.133.035.255.053.366.053.096 0 .166-.017.211-.05s.067-.076.067-.128a.14.14 0 0 0-.027-.086.304.304 0 0 0-.087-.074 3.388 3.388 0 0 0-.318-.154c-.155-.071-.272-.14-.351-.206s-.136-.143-.174-.229a.77.77 0 0 1-.056-.306c0-.221.08-.393.24-.516s.381-.185.661-.185c.247 0 .5.057.758.172l-.198.499c-.224-.103-.417-.154-.579-.154-.084 0-.146.015-.184.045a.133.133 0 0 0-.058.109c0 .047.024.089.073.126s.181.104.396.203c.206.093.349.191.43.298.08.105.12.238.12.401zm1.413.726l-.489-1.724h-.015c.022.294.034.521.034.685v1.039h-.572v-2.393h.86l.499 1.698h.014l.489-1.698h.862v2.393h-.595V26.74l.003-.182c.002-.067.009-.229.022-.489h-.016l-.482 1.72h-.614zm2.197 0v-2.393h.649v2.393h-.649zm2.222 0h-.646v-1.864h-.585v-.528h1.813v.528h-.582v1.864zm2.975 0h-.649v-.976h-.751v.976h-.649v-2.393h.649v.887h.751v-.887h.649v2.393z"/><path fill="#E9463A" d="M26.153 30.409h1.033v1.29a2.84 2.84 0 0 1-.925.144c-.369 0-.653-.106-.855-.32-.201-.214-.302-.519-.302-.915 0-.386.11-.687.331-.901.22-.215.529-.322.926-.322.15 0 .293.014.427.042.133.028.25.064.349.108l-.204.507a1.265 1.265 0 0 0-.567-.127.542.542 0 0 0-.438.184c-.103.123-.154.298-.154.526 0 .224.047.394.14.512a.487.487 0 0 0 .403.176c.097 0 .185-.01.266-.028v-.375h-.428v-.501zm3.758.202c0 .402-.099.708-.296.918-.197.209-.487.313-.867.313-.376 0-.663-.105-.863-.315-.2-.211-.301-.518-.301-.92 0-.398.1-.702.299-.912s.488-.315.868-.315c.381 0 .669.104.865.312.197.209.295.515.295.919zm-1.646 0c0 .462.161.693.483.693.163 0 .284-.057.363-.169s.119-.287.119-.524c0-.239-.04-.416-.12-.53a.412.412 0 0 0-.359-.171c-.324 0-.486.234-.486.701zm3.039-.202h1.033v1.29a2.84 2.84 0 0 1-.925.144c-.369 0-.653-.106-.855-.32-.201-.214-.302-.519-.302-.915 0-.386.11-.687.331-.901.22-.215.529-.322.926-.322.15 0 .293.014.427.042.133.028.25.064.349.108l-.204.507a1.265 1.265 0 0 0-.567-.127.542.542 0 0 0-.438.184c-.103.123-.154.298-.154.526 0 .224.047.394.14.512a.487.487 0 0 0 .403.176c.097 0 .185-.01.266-.028v-.375h-.428v-.501zm3.759.202c0 .402-.099.708-.296.918-.197.209-.487.313-.867.313-.376 0-.663-.105-.863-.315-.2-.211-.301-.518-.301-.92 0-.398.1-.702.299-.912s.488-.315.868-.315c.381 0 .669.104.865.312.196.209.295.515.295.919zm-1.647 0c0 .462.161.693.483.693.163 0 .284-.057.363-.169s.119-.287.119-.524c0-.239-.04-.416-.12-.53a.412.412 0 0 0-.359-.171c-.324 0-.486.234-.486.701zm4.11-.047c0 .399-.109.707-.329.923-.221.216-.529.324-.928.324h-.773v-2.393h.828c.384 0 .68.099.889.295s.313.479.313.851zm-.671.022c0-.219-.043-.382-.13-.487s-.219-.159-.396-.159h-.188v1.341h.144c.196 0 .341-.058.432-.171.092-.115.138-.289.138-.524zm2.567 1.225l-.118-.448h-.777l-.121.448h-.71l.78-2.402h.862l.791 2.402h-.707zm-.252-.979l-.104-.393c-.023-.088-.053-.2-.087-.339a4.394 4.394 0 0 1-.068-.298c-.01.056-.029.147-.058.274-.029.128-.094.379-.192.755h.509zm3.495.979h-.848l-.874-1.686h-.015c.021.265.031.468.031.607v1.078h-.572v-2.393h.844l.871 1.662h.01a9.05 9.05 0 0 1-.023-.58v-1.082h.576v2.394zm1.583-1.897c-.154 0-.274.062-.36.188s-.129.3-.129.521c0 .46.175.69.524.69.106 0 .209-.015.308-.044.1-.029.199-.065.3-.106v.547a1.664 1.664 0 0 1-.678.132c-.36 0-.638-.104-.83-.313-.192-.21-.289-.513-.289-.908 0-.248.047-.466.141-.653a.998.998 0 0 1 .402-.433c.175-.102.381-.151.617-.151.259 0 .506.056.741.168l-.197.509a2.248 2.248 0 0 0-.266-.104.899.899 0 0 0-.284-.043zm2.53 1.897h-1.42v-2.393h1.42v.519h-.773v.377h.717v.519h-.717v.451h.773v.527zm1.065-.871v.871h-.646v-2.393h.783c.65 0 .976.235.976.707 0 .277-.135.491-.405.643l.696 1.043h-.732l-.508-.871h-.164zm0-.486h.121c.226 0 .338-.101.338-.3 0-.165-.11-.247-.332-.247h-.127v.547zm-22.65 5.378V33.44h.646v1.87h.921v.522h-1.567zm3.37 0h-1.42V33.44h1.42v.519h-.773v.377h.717v.519h-.717v.451h.773v.526zm1.762-2.392h.724l-.784 2.393h-.761l-.78-2.393h.727l.325 1.213a3.6 3.6 0 0 1 .111.562 4.467 4.467 0 0 1 .107-.557l.331-1.218zm.983 2.392V33.44h.649v2.393h-.649zm3.78-1.237c0 .153-.026.297-.08.431-.053.133-.126.237-.22.312s-.2.112-.32.112a.525.525 0 0 1-.234-.051.408.408 0 0 1-.163-.144h-.025a.548.548 0 0 1-.425.194c-.2 0-.354-.058-.46-.175-.107-.116-.16-.28-.16-.489 0-.153.033-.29.102-.408a.671.671 0 0 1 .292-.273.994.994 0 0 1 .444-.096 1.919 1.919 0 0 1 .584.099l-.034.69-.004.154c0 .094.027.141.08.141.057 0 .104-.048.139-.143s.053-.215.053-.359c0-.261-.073-.462-.221-.604-.147-.142-.356-.213-.627-.213-.207 0-.387.044-.54.13s-.271.21-.352.37c-.081.161-.121.35-.121.565 0 .278.078.493.233.645.155.15.375.227.658.227.127 0 .264-.014.41-.041s.291-.066.432-.116v.375a2.074 2.074 0 0 1-.818.155c-.424 0-.756-.11-.997-.332-.242-.221-.363-.526-.363-.918 0-.276.062-.523.188-.742s.298-.388.518-.506.469-.178.747-.178c.255 0 .48.049.677.146.195.098.346.235.451.415s.156.389.156.627zm-1.629.188c0 .108.021.188.061.237a.19.19 0 0 0 .157.073.2.2 0 0 0 .186-.102c.039-.067.064-.188.076-.359l.017-.256a.698.698 0 0 0-.111-.01c-.117 0-.211.036-.28.109s-.106.177-.106.308zm3.364-1.343h.724l-.784 2.393h-.761l-.78-2.393h.727l.325 1.213a3.6 3.6 0 0 1 .111.562 4.467 4.467 0 0 1 .107-.557l.331-1.218zm.932.077c0-.097.026-.168.08-.215s.14-.07.259-.07c.118 0 .205.024.26.072s.082.119.082.213c0 .188-.114.281-.342.281-.227 0-.339-.094-.339-.281zm.656 2.315h-.64v-1.854h.64v1.854zm2.519-2.392v1.44c0 .312-.089.555-.267.727-.177.172-.433.258-.767.258-.326 0-.576-.083-.752-.25-.175-.167-.263-.407-.263-.72V33.44h.65v1.404c0 .169.031.292.095.368s.156.114.279.114c.132 0 .228-.038.287-.113.06-.076.09-.2.09-.373v-1.4h.648zm1.148 1.521v.871h-.646V33.44h.783c.65 0 .976.235.976.707 0 .277-.135.491-.405.643l.696 1.043h-.732l-.508-.871h-.164zm0-.485h.121c.226 0 .338-.101.338-.3 0-.165-.11-.247-.332-.247h-.127v.547zm1.503 1.085c0-.101.03-.178.089-.232.06-.055.146-.082.26-.082.108 0 .19.027.249.082a.304.304 0 0 1 .087.232c0 .098-.03.175-.09.229s-.142.083-.246.083a.37.37 0 0 1-.255-.082.293.293 0 0 1-.094-.23zm1.036-2.044c0-.097.026-.168.08-.215s.14-.07.259-.07c.118 0 .205.024.26.072s.082.119.082.213c0 .188-.114.281-.342.281-.226 0-.339-.094-.339-.281zm.657 2.315h-.64v-1.854h.64v1.854zm1.878-.569c0 .198-.067.349-.202.449-.136.102-.33.152-.583.152-.138 0-.257-.007-.358-.021s-.205-.042-.311-.081v-.513c.099.044.208.08.326.108s.224.042.316.042c.139 0 .208-.031.208-.095 0-.032-.02-.062-.058-.087a2.546 2.546 0 0 0-.338-.15c-.171-.069-.289-.149-.357-.238a.546.546 0 0 1-.102-.338c0-.172.067-.306.2-.402.133-.096.321-.144.564-.144.122 0 .237.013.345.04.107.026.219.065.334.117l-.173.412a2.164 2.164 0 0 0-.271-.098.928.928 0 0 0-.232-.04c-.104 0-.157.025-.157.077 0 .031.019.059.056.081.036.022.142.067.316.137.13.053.227.105.29.157a.463.463 0 0 1 .141.181c.031.07.046.154.046.254z"/><path fill="#343434" d="M51.98 21.87v26.628H10.553v2.335h44.333V21.87z"/><path fill="#DD3B36" d="M18.679 33.02c-.502.47-1.061.752-1.758.752-.695 0-1.292-.28-1.793-.747-1.448.288-2.424.903-2.424 1.615 0 .123-.152 1.789-.152 1.789.402.815 8.427.887 8.427.097v-1.885c.001-.718-.841-1.336-2.3-1.621z"/><path fill="#343434" d="M20.093 28.441c.124-.045.319-1.787.265-1.706-.055.08-.413.087-.413.087.215-.092.178-1.007.051-.804-.136.219-.555.259-.555.259s.086-.008.165-.207c.087-.221.005-.594.005-.594-.49.273-.83.4-1.635.444a2.937 2.937 0 0 0-.984-.171c-1.74 0-3.152 1.52-3.177 3.404a.395.395 0 0 1 .236-.193.377.377 0 0 1 .325.052l-.005.013s.235.307.247.343c.011.035.336.153.403.07.067-.082.007-.774.43-1.128.464-.388 2.648-.446 3.377.055.497.342.329 1.034.419 1.155.089.119.281-.358.326-.402l.001.002c.018-.017.039-.03.06-.043a.372.372 0 0 1 .312-.035.413.413 0 0 1 .225.172v-.009c0-.265-.03-.522-.082-.77l.004.006z"/><path fill="#E9463A" d="M20.076 29.111l-.005-.005a.377.377 0 0 0-.126-.065.427.427 0 0 0-.17-.013.345.345 0 0 0-.116.033l-.026.015a.412.412 0 0 0-.06.043l-.001-.002c-.045.044-.236.521-.326.402-.09-.12.078-.813-.419-1.155-.729-.502-2.913-.443-3.377-.055-.424.354-.363 1.046-.43 1.128-.067.082-.392-.035-.403-.07-.011-.035-.247-.343-.247-.343l.005-.013-.001-.001a.414.414 0 0 0-.17-.063l-.039-.002a.354.354 0 0 0-.247.084l-.009.009a.481.481 0 0 0-.094.114c-.332.552.064 2.037.409 2.133.168.047.242.053.273.044.396 1.161 1.377 1.984 2.527 1.984 1.152 0 2.135-.827 2.53-1.992l.003.024s-.124.118.277.016c.348-.089.711-1.611.336-2.151a.551.551 0 0 0-.094-.099zm-3.069 3.371c-.745-.016-1.461-.567-1.273-.827.148-.204.43.317 1.273.317.884 0 1.125-.522 1.273-.317.188.26-.487.811-1.273.827z"/></svg>