<svg xmlns="http://www.w3.org/2000/svg" width="60" height="60" viewBox="0 0 60 60"><path fill-rule="evenodd" clip-rule="evenodd" fill="#343434" d="M49.1 39.81c0 4.506-3.687 8.192-8.193 8.192H19.06c-4.506 0-8.193-3.686-8.193-8.192V17.961c0-4.506 3.687-8.192 8.193-8.192h21.847c4.506 0 8.193 3.686 8.193 8.192V39.81z"/><path d="M28.074 24.263a2.893 2.893 0 0 1-2.895 2.893h-7.557a2.892 2.892 0 0 1-2.895-2.893v-7.556a2.892 2.892 0 0 1 2.895-2.896h7.557a2.892 2.892 0 0 1 2.895 2.896v7.556zm17.202 0a2.893 2.893 0 0 1-2.896 2.893h-7.558a2.892 2.892 0 0 1-2.894-2.893v-7.556a2.892 2.892 0 0 1 2.894-2.896h7.558c1.6 0 2.896 1.292 2.896 2.896v7.556zM28.074 41.181a2.897 2.897 0 0 1-2.895 2.897h-7.557a2.897 2.897 0 0 1-2.895-2.897v-7.56a2.896 2.896 0 0 1 2.895-2.893h7.557a2.896 2.896 0 0 1 2.895 2.893v7.56zm17.202 0a2.897 2.897 0 0 1-2.896 2.897h-7.558a2.897 2.897 0 0 1-2.894-2.897v-7.56a2.896 2.896 0 0 1 2.894-2.893h7.558c1.6 0 2.896 1.299 2.896 2.893v7.56z" fill="#E9463A"/></svg>