<svg xmlns="http://www.w3.org/2000/svg" width="60" height="60" viewBox="0 0 60 60"><path fill="#343434" d="M37.708 9.56h3.998v5.683h-3.998z"/><path fill="#FFF" d="M10.148 47.423h38.135V22.549H10.148v24.874z"/><path fill="#343434" d="M16.724 9.56h3.998v5.683h-3.998zm3.157 27.682c.514.266 1.691.76 2.869.76 1.5 0 2.261-.722 2.261-1.653 0-1.216-1.216-1.767-2.489-1.767h-1.178v-2.071h1.121c.969-.019 2.203-.38 2.203-1.425 0-.741-.607-1.292-1.823-1.292-1.007 0-2.07.437-2.584.741l-.589-2.09c.741-.475 2.223-.931 3.818-.931 2.641 0 4.104 1.387 4.104 3.078 0 1.311-.74 2.336-2.261 2.869v.039c1.482.266 2.679 1.387 2.679 3.002 0 2.185-1.919 3.78-5.053 3.78-1.596 0-2.945-.418-3.667-.874l.589-2.166zm13.717-6.953h-.038l-2.355 1.121-.475-2.166 3.267-1.52h2.395v12.348h-2.793v-9.783z"/><path fill="#343434" d="M48.283 24.167v23.256H12.407v2.744H50.74v-26z"/><path fill="#E9463A" d="M41.706 12.817v2.425h-3.998v-2.425H20.723v2.425h-3.999v-2.425h-6.576v8.636h38.135v-8.636z"/></svg>