<svg xmlns="http://www.w3.org/2000/svg" width="60" height="60" viewBox="0 0 60 60"><circle fill="#FFF" cx="30.212" cy="30.268" r="20.356"/><path fill="#E9463A" d="M39.661 27.161l-1.404-2.65-6.447 3.417a2.817 2.817 0 0 0-1.523-.487l-6.154-11.607-2.65 1.404 6.221 11.735c-.202.39-.326.825-.326 1.294a2.828 2.828 0 1 0 5.627.421l6.656-3.527z"/><path fill="#343434" d="M30.212 9.912c-11.242 0-20.356 9.114-20.356 20.356s9.114 20.356 20.356 20.356 20.355-9.115 20.355-20.356c.001-11.242-9.113-20.356-20.355-20.356zm13.28 31.508l-1.541-1.541L39.83 42l1.541 1.541a17.27 17.27 0 0 1-9.659 4.006v-2.185h-3v2.185a17.264 17.264 0 0 1-9.659-4.006L20.595 42l-2.121-2.121-1.541 1.541a17.272 17.272 0 0 1-4.001-9.658h2.179v-3h-2.179a17.269 17.269 0 0 1 4.005-9.653l1.536 1.536 2.121-2.121-1.536-1.536a17.274 17.274 0 0 1 9.653-4.001v2.174h3v-2.174a17.267 17.267 0 0 1 9.653 4.001l-1.536 1.536 2.121 2.121 1.536-1.536a17.269 17.269 0 0 1 4.005 9.653h-2.179v3h2.179a17.255 17.255 0 0 1-3.998 9.658z"/></svg>