<svg xmlns="http://www.w3.org/2000/svg" width="60" height="60" viewBox="0 0 60 60"><path fill="#343434" d="M27.816 32.862c-.05-4.587-3.981-8.291-8.828-8.291-4.836 0-8.76 3.688-8.827 8.261l-.006-.01.002.088-.002.04c0 .036.005.07.006.105.06 6.109 2.401 7.848 3.299 7.848.421 0 .643-.239.769-.494a7.88 7.88 0 0 1-1.221-2.297c-.075.021-.248.007-.645-.107-.953-.274-2.077-5.179-.408-5.643a.87.87 0 0 1 .768.126c-.003.011-.008.02-.012.031l.398.449s7.731-2.343 7.731-3.734c-.005 1.59 3.031 3.973 3.965 3.917.768-.047.684-.473.63-.624a.95.95 0 0 1 .42.03c1.682.511.685 5.386-.261 5.633s-.653-.038-.653-.038l-.008-.059a7.926 7.926 0 0 1-1.191 2.269c.12.273.348.542.797.542.91 0 3.304-1.776 3.304-8.082l-.027.04z"/><path fill="#E8463A" d="M25.854 32.556a1.01 1.01 0 0 0-.42-.03c.054.152.138.578-.63.624-.934.057-3.97-2.326-3.965-3.917 0 1.391-7.731 3.734-7.731 3.734l-.398-.449c.003-.011.008-.02.012-.031a.867.867 0 0 0-.31-.134c-.023-.005-.045-.011-.068-.014a.957.957 0 0 0-.39.022c-1.669.464-.546 5.368.408 5.643.396.114.57.128.645.107.139.418.313.814.513 1.189l.05.088c.197.36.416.703.658 1.02 1.171 1.536 2.851 2.516 4.738 2.516 1.906 0 3.602-1 4.774-2.564.237-.317.451-.657.645-1.014.014-.026.03-.05.044-.077.196-.372.366-.764.503-1.177l.008.059s-.293.286.653.038 1.942-5.122.261-5.633zm-6.929 8.347c-1.757-.039-3.446-1.376-3.002-2.005.35-.496 1.014.769 3.002.769 2.085 0 2.653-1.265 3.002-.769.444.63-1.149 1.967-3.002 2.005z"/><path fill="#DD3B36" d="M23.228 42.419c-1.183 1.108-2.665 1.773-4.31 1.773-1.638 0-3.129-.66-4.31-1.761-3.414.678-5.757 2.128-5.757 3.808 0 .291-.051 4.218-.051 4.218.947 1.922 19.179 2.092 20.179.229V46.24c.001-1.691-2.311-3.149-5.751-3.821z"/><path fill="#FFF" d="M31.414 24.108h-6.559V6.504h25.012v17.605H39.554l-8.14 5.442v-5.443z"/><path d="M27.635 9.916h16.801v1.47H27.635zm0 3.021h15.736v1.471H27.635zm0 3.022H45.5v1.47H27.635zm0 3.021h16.686v1.471H27.635z" fill="#E9463A"/><path d="M26.071 24.108h5.343v1.216h-5.343zM49.867 7.719v16.389H39.554l-6.924 4.629v2.029l8.14-5.442h10.313V7.719z" fill="#343434"/></svg>