<svg xmlns="http://www.w3.org/2000/svg" width="60" height="60" viewBox="0 0 60 60"><path fill="#FFF" d="M37.984 37.328h8.081v2.089h-8.081z"/><path fill="#343434" d="M48.506 26.359l-1.57 4.709h-2.693l1.598-4.709h-3.482l-1.57 4.709h-2.693l1.598-4.709h-3.601l-1.57 4.709H31.83l1.598-4.709h-3.719l-1.57 4.709h-2.693l1.598-4.709h-3.246l-1.57 4.709h-2.693l1.598-4.709h-3.654l-1.556 4.667H13.23l1.584-4.667h-2.188v22.643h36.507V26.359h-.627zm-32.75 10.969h6.663v2.089h-6.663v-2.089zm16.25 6.258h-16.25v-2.088h16.25v2.088zm4.04-4.17H24.418v-2.089h11.628v2.089zM17.228 24.931l3.243-1-3.421-4.232-3.268 1.008zm29.105-8.974l.63-.194-2.006-4.669-2.07.638zm-23.398 1.927l-3.38 1.043 3.446 4.224 3.355-1.034zm5.996-1.849l-3.492 1.077 3.447 4.225 3.466-1.069zm-17.654 5.444l-.686.211 2.006 4.669 2.101-.648zm23.205-7.155l-3.047.939 3.446 4.225 3.022-.932zm5.901-1.82l-3.396 1.047 3.445 4.225 3.372-1.04z"/></svg>