<svg xmlns="http://www.w3.org/2000/svg" width="60" height="60" viewBox="0 0 60 60"><path fill="#343434" d="M47.083 12.491c.069-3.151-1.424-4.686-4.653-4.757-3.508-.077-8.257 4.566-11.414 9.494-3.154-4.906-7.863-9.512-11.339-9.442-3.216.065-4.699 1.596-4.624 4.748.1 4.205 5.42 7.049 9.701 8.661l-7.391 6.888 4.375.583 1.292 3.167 4.93-5.593v25.258h6V25.987l5.154 5.846 1.292-3.167 4.375-.583-7.447-6.94c4.299-1.602 9.657-4.438 9.749-8.652zm-28.072-.037c-.004-.163 0-.293.008-.392.161-.033.406-.066.759-.073.394-.008 2.103.59 4.69 3.349a28.016 28.016 0 0 1 1.639 1.92c-5.287-1.978-7.078-4.051-7.096-4.804zm16.982 4.738c.528-.674 1.08-1.32 1.642-1.916 2.593-2.754 4.307-3.349 4.703-3.34.354.008.601.042.762.075.008.1.012.229.009.392-.017.753-1.812 2.822-7.116 4.789z"/><path d="M23.03 31.833l-1.292-3.166-4.375-.584 7.066-6.585H14.48v6h1v24h12.48V26.241zm21.75-3.75l-4.375.584-1.292 3.166-5.153-5.846v25.511h11.52v-24h1v-6h-8.766z" fill="#E9463A"/></svg>