<svg xmlns="http://www.w3.org/2000/svg" width="60" height="60" viewBox="0 0 60 60"><circle fill="#E9463A" cx="16.727" cy="41.353" r="5.832"/><ellipse fill="#E9463A" cx="29.196" cy="15.931" rx="7.364" ry="7.167"/><circle fill="#E9463A" cx="43.37" cy="41.353" r="5.832"/><path fill="#343434" stroke="#343434" stroke-width=".75" d="M29.774 29.808v-6.739a7.358 7.358 0 0 1-.578.028c-.115 0-.227-.012-.341-.017v6.727H16.307v5.736c.139-.01.278-.021.42-.021.169 0 .334.011.499.025v-4.821h25.716v4.818c.142-.01.284-.022.428-.022.166 0 .33.011.492.025v-5.739H29.774z"/></svg>