<svg xmlns="http://www.w3.org/2000/svg" width="60" height="60" viewBox="0 0 60 60"><path fill="#E9463A" d="M12.207 10.677v14.828L38.18 51.269l14.704-14.587L27.153 11.16l-14.946-.483zm10.379 11.022a3.491 3.491 0 0 1-4.906.001 3.438 3.438 0 0 1 .001-4.869 3.517 3.517 0 0 1 4.906 0 3.438 3.438 0 0 1-.001 4.868z"/><path fill="#FFF" d="M41.391 42.183L25.146 26.064l2.226-2.218 16.245 16.122zm-6.113 1.28l-13.84-13.722 2.234-2.219 13.833 13.725zm8.756-5.999L28.848 22.385l2.233-2.199L46.266 35.25z"/></svg>