<svg xmlns="http://www.w3.org/2000/svg" width="60" height="60" viewBox="0 0 60 60"><path fill="#343434" d="M13.98 7.498h32v44h-32z"/><path fill="#FFF" d="M35.98 11.404v3.094h-12v-3.094h-1.274l-6.541 7.346v29.835H43.29V11.404z"/><path fill="#B4B4B4" d="M22.706 11.404l-6.541 7.346h6.541z"/><path fill="#E9463A" d="M23.98 7.498h12v7h-12zM19.274 20.747h1.265v1.264h-1.265zM19.274 25.202h1.265v1.264h-1.265zM19.274 29.657h1.265v1.264h-1.265zM19.274 34.113h1.265v1.264h-1.265zM19.274 38.568h1.265v1.264h-1.265zM38.778 20.815l-.475.305.915.868 2.064-2.29-2.031 1.703z"/><path fill="#343434" d="M40.224 25.536v1.159h-1.708v-.724l-.138-.131v.994h1.984v-1.451zM38.516 24.942h1.615l.165-.139h-1.918v.563l.138-.088z"/><path fill="#E9463A" d="M38.778 25.274l-.475.304.915.869 2.064-2.289-2.031 1.702z"/><path fill="#343434" d="M40.224 29.876v1.16h-1.708v-.725l-.138-.132v.994h1.984v-1.451zM38.516 29.281h1.615l.165-.138h-1.918v.563l.138-.088z"/><path fill="#E9463A" d="M38.778 29.614l-.475.304.915.869 2.064-2.29-2.031 1.704z"/><path fill="#343434" d="M40.341 35.748h-1.985v-1.964h1.985v1.964zm-1.806-.179h1.627v-1.606h-1.627v1.606zM40.341 40.227h-1.985v-1.964h1.985v1.964zm-1.806-.179h1.627v-1.605h-1.627v1.605z"/><g fill="#343434"><path d="M22.322 25.4a.226.226 0 0 0-.197.104.491.491 0 0 0-.072.288c0 .254.098.381.289.381a.64.64 0 0 0 .17-.024 1.83 1.83 0 0 0 .166-.059v.302a.903.903 0 0 1-.373.072c-.199 0-.354-.058-.459-.173s-.16-.282-.16-.501c0-.137.027-.257.078-.36s.125-.184.223-.239a.662.662 0 0 1 .34-.083c.143 0 .279.03.41.093l-.109.28c-.049-.022-.098-.042-.146-.058s-.104-.023-.16-.023zM24.066 26.447h-.357v-.538h-.416v.538h-.357v-1.32h.357v.489h.416v-.489h.357v1.32zM25.136 26.447h-.785v-1.32h.785v.286h-.428v.208h.395v.286h-.395v.249h.428v.291zM25.954 25.4c-.086 0-.152.035-.199.104s-.07.165-.07.288c0 .254.096.381.289.381a.64.64 0 0 0 .17-.024c.055-.017.109-.036.164-.059v.302a.903.903 0 0 1-.373.072c-.199 0-.352-.058-.459-.173-.105-.115-.158-.282-.158-.501 0-.137.025-.257.076-.36a.561.561 0 0 1 .223-.239.674.674 0 0 1 .342-.083c.143 0 .279.03.408.093l-.109.28c-.049-.022-.098-.042-.146-.058s-.103-.023-.158-.023zM27.695 26.447h-.402l-.262-.505-.105.063v.441h-.359v-1.32h.359v.574c.018-.035.055-.092.109-.169l.277-.404h.388l-.416.592.411.728zM28.9 26.447h-.357v-1.028h-.323v-.292h1.002v.292H28.9v1.028zM30.542 26.447h-.359v-.538h-.414v.538h-.359v-1.32h.359v.489h.414v-.489h.359v1.32zM31.611 26.447h-.783v-1.32h.783v.286h-.428v.208h.396v.286h-.396v.249h.428v.291zM32.673 26.447h-.352v-1.32h.781v.286h-.43v.252h.396v.286h-.396v.496zM33.32 26.447v-1.32h.357v1.32h-.357zM34.32 25.967v.48h-.357v-1.32h.434c.357 0 .537.13.537.391 0 .152-.074.271-.223.354l.385.575h-.406l-.279-.48h-.091zm0-.269h.066c.125 0 .188-.055.188-.165 0-.091-.061-.136-.184-.136h-.07v.301zM36.077 26.046a.39.39 0 0 1-.062.219c-.041.063-.102.112-.18.147s-.17.053-.275.053c-.088 0-.16-.006-.221-.018a.863.863 0 0 1-.186-.065v-.317c.068.035.139.062.213.082.072.02.141.029.201.029.053 0 .092-.01.117-.028a.088.088 0 0 0 .037-.07c0-.019-.006-.034-.016-.048s-.025-.027-.047-.041a2.444 2.444 0 0 0-.176-.085.882.882 0 0 1-.195-.113.366.366 0 0 1-.096-.127.432.432 0 0 1-.031-.169.34.34 0 0 1 .133-.284.597.597 0 0 1 .365-.102c.137 0 .277.031.418.095l-.109.275a.78.78 0 0 0-.318-.085c-.047 0-.08.008-.102.024a.073.073 0 0 0-.031.061c0 .025.014.049.039.069.027.021.1.058.219.112a.59.59 0 0 1 .236.164c.046.06.067.133.067.222zM36.864 26.447h-.357v-1.028h-.322v-.292h1.002v.292h-.322v1.028z"/></g><g fill="#343434"><path d="M22.857 29.671v.795c0 .173-.049.307-.146.401s-.238.142-.424.142c-.18 0-.318-.046-.414-.138-.098-.092-.145-.225-.145-.397v-.803h.357v.774c0 .094.018.161.053.204.035.042.086.062.154.062.072 0 .125-.021.158-.062s.049-.11.049-.205v-.773h.358zM23.997 30.59c0 .082-.021.155-.062.219s-.102.112-.18.147-.17.053-.275.053a.842.842 0 0 1-.409-.083v-.317c.068.035.139.062.213.082s.141.029.203.029c.053 0 .092-.01.115-.028a.083.083 0 0 0 .037-.07.078.078 0 0 0-.014-.048c-.012-.014-.027-.027-.049-.041s-.08-.042-.176-.085a.86.86 0 0 1-.193-.113.366.366 0 0 1-.096-.127.415.415 0 0 1-.031-.169.34.34 0 0 1 .133-.284.593.593 0 0 1 .365-.102c.137 0 .275.031.418.095l-.109.275a.784.784 0 0 0-.32-.085c-.047 0-.08.008-.102.024a.075.075 0 0 0-.031.061c0 .025.014.049.041.069s.1.058.217.112a.599.599 0 0 1 .238.164c.044.06.067.133.067.222zM24.986 30.991H24.2v-1.32h.785v.286h-.428v.208h.395v.286h-.395v.249h.428v.291zM26.439 29.671h.398l-.432 1.32h-.42l-.432-1.32h.402l.18.669c.037.149.057.253.061.311.004-.042.012-.095.025-.157.012-.063.023-.113.033-.149l.185-.674zM26.952 29.714c0-.054.016-.093.045-.119.029-.025.076-.038.143-.038.064 0 .113.013.143.039.031.026.045.066.045.118 0 .104-.062.155-.188.155s-.188-.052-.188-.155zm.362 1.277h-.352v-1.023h.352v1.023zM28.704 29.671v.795c0 .173-.051.307-.148.401s-.238.142-.422.142c-.18 0-.318-.046-.416-.138-.096-.092-.145-.225-.145-.397v-.803h.359v.774c0 .094.018.161.051.204.035.042.088.062.156.062.072 0 .125-.021.158-.062.031-.042.049-.11.049-.205v-.773h.358zM29.337 30.511v.48h-.355v-1.32h.432c.359 0 .539.13.539.391 0 .152-.074.271-.225.354l.385.575h-.404l-.279-.48h-.093zm0-.269h.068c.123 0 .186-.055.186-.165 0-.091-.061-.136-.184-.136h-.07v.301z"/></g><g fill="#343434"><path d="M22.519 35.455h-.785v-1.32h.785v.286h-.428v.208h.395v.286h-.395v.249h.428v.291zM23.939 35.455h-.414l-.256-.413-.256.413h-.402l.438-.676-.412-.645h.396l.238.408.229-.408h.408l-.42.673.451.648zM24.87 35.455h-.783v-1.32h.783v.286h-.428v.208h.396v.286h-.396v.249h.428v.291zM25.689 34.408a.226.226 0 0 0-.197.104.491.491 0 0 0-.072.288c0 .254.098.381.289.381a.64.64 0 0 0 .17-.024 1.83 1.83 0 0 0 .166-.059v.302a.903.903 0 0 1-.373.072c-.199 0-.354-.058-.459-.173s-.16-.282-.16-.501c0-.137.027-.257.078-.36s.125-.184.223-.239a.662.662 0 0 1 .34-.083c.143 0 .279.03.41.093l-.109.28c-.049-.022-.098-.042-.146-.058s-.104-.023-.16-.023zM27.138 34.975v.48h-.355v-1.32h.432c.359 0 .539.13.539.391 0 .152-.074.271-.225.354l.385.575h-.404l-.279-.48h-.093zm0-.269h.068c.123 0 .186-.055.186-.165 0-.091-.061-.136-.184-.136h-.07v.301zM28.818 35.455h-.783v-1.32h.783v.286h-.428v.208h.396v.286h-.396v.249h.428v.291zM30.284 34.793c0 .3-.096.501-.285.605l.322.371h-.445l-.232-.294v-.002l-.002-.001c-.207 0-.365-.058-.477-.174-.109-.116-.166-.285-.166-.508 0-.22.055-.387.166-.503.109-.116.27-.174.479-.174.211 0 .369.058.479.172.107.116.161.285.161.508zm-.908 0c0 .256.088.383.266.383.09 0 .158-.03.201-.093.043-.062.064-.158.064-.29s-.021-.229-.066-.292a.225.225 0 0 0-.197-.095c-.18 0-.268.129-.268.387zM31.646 34.135v.795c0 .173-.051.307-.148.401s-.238.142-.422.142c-.18 0-.318-.046-.416-.138-.096-.092-.145-.225-.145-.397v-.803h.359v.774c0 .094.018.161.051.204.035.042.088.062.156.062.072 0 .125-.021.158-.062.031-.042.049-.11.049-.205v-.773h.358zM32.706 35.455h-.785v-1.32h.785v.286h-.428v.208h.395v.286h-.395v.249h.428v.291zM33.8 35.054a.39.39 0 0 1-.062.219c-.041.063-.102.112-.18.147s-.17.053-.275.053c-.088 0-.16-.006-.221-.018a.863.863 0 0 1-.186-.065v-.317c.068.035.139.062.213.082.072.02.141.029.201.029.053 0 .092-.01.117-.028a.088.088 0 0 0 .037-.07c0-.019-.006-.034-.016-.048s-.025-.027-.047-.041a2.444 2.444 0 0 0-.176-.085.882.882 0 0 1-.195-.113.366.366 0 0 1-.096-.127.432.432 0 0 1-.031-.169.34.34 0 0 1 .133-.284.597.597 0 0 1 .365-.102c.137 0 .277.031.418.095l-.109.275a.78.78 0 0 0-.318-.085c-.047 0-.08.008-.102.024a.073.073 0 0 0-.031.061c0 .025.014.049.039.069.027.021.1.058.219.112a.59.59 0 0 1 .236.164c.046.06.067.133.067.222zM34.587 35.455h-.357v-1.028h-.322v-.292h1.002v.292h-.322v1.028z"/></g><g fill="#343434"><path d="M22.085 39.84h-.352v-1.32h.781v.286h-.43v.252h.396v.286h-.396v.496zM23.515 39.84h-.783v-1.32h.783v.286h-.428v.208h.396v.286h-.396v.249h.428v.291zM24.53 39.84h-.785v-1.32h.785v.286h-.428v.208h.395v.286h-.395v.249h.428v.291zM24.761 39.84v-1.32h.357v1.032h.508v.288h-.865zM26.902 39.84h-.357v-1.028h-.322v-.292h1v.292h-.32v1.028zM28.542 39.84h-.357v-.538h-.416v.538h-.357v-1.32h.357v.489h.416v-.489h.357v1.32zM29.611 39.84h-.783v-1.32h.783v.286h-.428v.208h.396v.286h-.396v.249h.428v.291zM30.898 39.84l-.27-.951h-.008c.012.162.02.288.02.378v.573h-.316v-1.32h.475l.275.938h.008l.27-.938h.477v1.32h-.328v-.579-.1l.014-.271h-.008l-.268.949h-.341zM32.921 39.84l-.064-.247h-.43l-.066.247h-.393l.432-1.325h.475l.438 1.325h-.392zm-.139-.54l-.057-.217c-.014-.048-.029-.11-.049-.187a2.266 2.266 0 0 1-.037-.165 3.135 3.135 0 0 1-.033.152c-.016.07-.051.209-.105.416h.281zM33.984 39.066h.57v.712a1.56 1.56 0 0 1-.51.079c-.203 0-.361-.059-.473-.177s-.166-.286-.166-.505c0-.213.061-.379.182-.497.121-.119.293-.178.512-.178.082 0 .162.008.234.023a.936.936 0 0 1 .193.06l-.113.279a.69.69 0 0 0-.312-.07.297.297 0 0 0-.242.102.441.441 0 0 0-.086.291c0 .123.027.217.078.282a.268.268 0 0 0 .223.097.605.605 0 0 0 .146-.016v-.207h-.236v-.275zM34.823 39.84v-1.32h.357v1.32h-.357zM36.054 38.793a.226.226 0 0 0-.197.104.491.491 0 0 0-.072.288c0 .254.098.381.289.381a.64.64 0 0 0 .17-.024 1.83 1.83 0 0 0 .166-.059v.302a.903.903 0 0 1-.373.072c-.199 0-.354-.058-.459-.173s-.16-.282-.16-.501c0-.137.027-.257.078-.36s.125-.184.223-.239a.662.662 0 0 1 .34-.083c.143 0 .279.03.41.093l-.109.28c-.049-.022-.098-.042-.146-.058s-.103-.023-.16-.023z"/></g><g fill="#343434"><path d="M22.31 22.043l-.27-.952h-.008c.012.162.018.288.018.378v.574h-.316v-1.321h.477l.275.938h.008l.27-.938h.477v1.321h-.328v-.579a6.866 6.866 0 0 1 .014-.372h-.008l-.268.95h-.341zM24.335 22.043l-.064-.248h-.43l-.066.248h-.393l.43-1.327h.477l.438 1.327h-.392zm-.138-.54l-.057-.218c-.014-.048-.029-.11-.049-.187a2.266 2.266 0 0 1-.037-.165l-.033.152c-.015.07-.051.209-.105.417h.281zM25.997 22.043h-.404l-.26-.505-.105.062v.442h-.359v-1.321h.359v.574c.018-.036.055-.093.109-.17l.277-.404h.391l-.418.592.41.73zM26.925 22.043h-.785v-1.321h.785v.286h-.428v.208h.395v.287h-.395v.249h.428v.291zM28.447 22.043l-.064-.248h-.43l-.066.248h-.393l.432-1.327h.477l.436 1.327h-.392zm-.139-.54l-.057-.218c-.014-.048-.029-.11-.049-.187-.018-.077-.031-.132-.037-.165a7.534 7.534 0 0 1-.031.152l-.107.417h.281zM29.462 22.043v-1.321h.357v1.033h.508v.288h-.865zM30.538 22.043v-1.321h.359v1.321h-.359zM32.048 21.642a.392.392 0 0 1-.063.219c-.041.063-.102.112-.18.147s-.17.054-.275.054c-.088 0-.162-.007-.223-.019a.863.863 0 0 1-.186-.065v-.318c.068.034.139.062.213.081.072.02.141.029.201.029.053 0 .092-.009.117-.027a.083.083 0 0 0 .021-.118c-.01-.014-.025-.027-.047-.041s-.08-.042-.176-.085a.822.822 0 0 1-.193-.114.345.345 0 0 1-.098-.126.437.437 0 0 1-.029-.169c0-.122.043-.217.133-.285a.582.582 0 0 1 .365-.103c.137 0 .275.032.418.096l-.109.275a.784.784 0 0 0-.32-.085c-.047 0-.08.008-.102.024s-.031.036-.031.061.014.049.041.069c.025.021.1.058.217.112a.6.6 0 0 1 .238.165.36.36 0 0 1 .068.223zM32.835 22.043h-.357v-1.029h-.322v-.292h1.002v.292h-.322v1.029z"/></g><path fill="#343434" d="M40.224 21.085v1.159h-1.708v-.724l-.138-.131v.994h1.984v-1.451zM38.516 20.491h1.615l.165-.139h-1.918v.563l.138-.088z"/></svg>