<svg xmlns="http://www.w3.org/2000/svg" width="60" height="60" viewBox="0 0 60 60"><path fill="#E9463A" d="M45.98 10.893H17.73c-1.65 0-3.069 1.348-3.154 2.996 0 0-1.557 30.275-1.561 33.694-.004 2.542 2.216 3.902 4.549 3.902h28.833c1.65 0 2.811.074 2.579-1.559l-.299-6.093c1.303 0 1.116-1.438 1.116-1.438s-3.024-30.116-3.074-30.787c-.052-.67-.739-.715-.739-.715z"/><path fill="#FFF" d="M47.739 44.17H16.998c-1.543.176-2.788 1.508-2.788 3.098 0 1.591 1.245 2.922 2.788 3.099h30.741v-.061c-1.642-.078-2.974-1.377-2.974-3.038s.73-3.019 2.372-3.098h.602z"/><g fill="#FFF"><path d="M31.968 20.71a2.354 2.354 0 0 1-.764.504c.02-.115.55-.699.55-.699l2.689-2.966.045.365s-2.192 2.458-2.52 2.796m-.985.33s.123-.45.43-.808c.306-.357 2.547-2.771 2.547-2.771l.368.011-2.7 2.955c-.001 0-.532.582-.645.613m3.57-3.702l-.604-.051-2.874 3.14s-.348.43-.389.716a.522.522 0 0 1-.45.471c-.215.03-.808.337-.563.828.246.491.685.246.818.133.133-.113.225-.349.235-.604.01-.255.256-.357.358-.378.102-.021.297-.143.634-.461.338-.317 2.915-3.201 2.915-3.201l-.08-.593z"/><path d="M30.513 20.386c-.296.447-.237.614-.272.724-.001.008-.004.011-.004.011l.004-.011c.004-.028-.016-.113-.281-.305-.338-.246-.89-.082-1.002-.89 0 0 .123.123.235.133.112.011.286.103.296.205 0 0 .123-.307-.143-.665-.266-.357-.256-.675-.143-.889 0 0 .113.337.399.337 0 0-.011-.102-.072-.174 0 0 .235.194.368.235.133.041.716.46.277.982 0 0 .389-.153.317-.808 0 0 .502.389.021 1.115m.491-1.289c-.182-.715-.154-1.207-.143-1.472 0 0-.327.337-.327.818 0 0-.87-1.534.071-2.128 0 0-1.289.113-1.769 1.565 0 0-.154-.071-.174-.44 0 0-.869.982.072 2.291 0 0-.143.133-.481-.266 0 0-.215.859.869 1.248 0 0-.071.072-.215 0 0 0 .082.317.481.389.399.072.767.021.736.43 0 0 .522.143.501-.879 0 0-.143.092-.143.163 0 0 .01-.215.256-.44.245-.225.439-.594.266-1.279"/></g><path d="M23.493 26.944h-.513v-1.933h1.143v.419h-.629v.37h.58v.419h-.58v.725zm2.131 0l-.095-.362h-.628l-.098.362h-.573l.631-1.94h.696l.639 1.94h-.572zm-.203-.79l-.084-.317a7.687 7.687 0 0 1-.125-.513 4.797 4.797 0 0 1-.047.222c-.023.103-.075.306-.155.609h.411zm2.639.79h-.524v-.788h-.606v.788h-.524v-1.933h.524v.717h.606v-.717h.524v1.933zm.939-.703v.703h-.521v-1.933h.633c.525 0 .787.19.787.571 0 .224-.109.397-.327.52l.563.842h-.593l-.409-.703h-.133zm0-.392h.098c.184 0 .273-.08.273-.242 0-.133-.089-.199-.268-.199h-.104v.441zm2.457 1.095H30.31v-1.933h1.146v.419h-.625v.305h.579v.419h-.579v.364h.625v.426zm2.178 0h-.684l-.706-1.361h-.012c.017.214.024.378.024.49v.871h-.462v-1.933h.682l.703 1.343h.008a7.3 7.3 0 0 1-.019-.469v-.874h.465v1.933zm2.074 0h-.525v-.788h-.605v.788h-.525v-1.933h.525v.717h.605v-.717h.525v1.933zm1.565 0h-1.146v-1.933h1.146v.419h-.625v.305h.578v.419h-.578v.364h.625v.426zm.339 0v-1.933h.524v1.933h-.524zm1.793 0h-.521v-1.505h-.473v-.428h1.465v.428h-.471v1.505zm-10.039 6.241h-.473v.832h-1.146v-.832h-1.713v-.852l1.786-2.613h1.073v2.599h.473v.866zm-1.619-.867v-.5c0-.094.004-.221.01-.381a2.71 2.71 0 0 1 .017-.251h-.032c-.066.15-.143.292-.227.423l-.477.709h.709zm3.662-1.117c.246 0 .47.058.668.172.199.114.354.276.465.486.11.21.166.452.166.726 0 .48-.145.849-.434 1.105-.289.257-.727.385-1.313.385-.502 0-.91-.077-1.229-.232v-.952c.171.079.363.144.578.194s.398.076.554.076c.216 0 .381-.045.497-.137.115-.091.173-.226.173-.403a.463.463 0 0 0-.177-.386c-.117-.092-.295-.138-.534-.138-.183 0-.38.034-.591.103l-.426-.212.161-2.269h2.451v.967h-1.464l-.053.567c.152-.029.262-.046.326-.049s.128-.003.182-.003zm4.344 2.816h-1.18v-2.274c0-.276.006-.529.018-.759a2.304 2.304 0 0 1-.27.276l-.488.402-.602-.74 1.475-1.202h1.047v4.297z" fill="#FFF"/></svg>