<svg xmlns="http://www.w3.org/2000/svg" width="60" height="60" viewBox="0 0 60 60"><path fill="#343434" d="M49.138 10.852L22.941 20.24v20.388c-1.288-.643-2.898-1.029-4.65-1.029-4.218 0-7.639 2.216-7.639 4.947 0 2.732 3.421 4.947 7.639 4.947 4.219 0 7.639-2.215 7.639-4.947v-.001c.002-.024.012-.036.012-.062V27.489l20.162-7.275V34.78c-1.281-.629-2.872-1.006-4.603-1.006-4.219 0-7.64 2.215-7.64 4.946s3.421 4.946 7.64 4.946c4.218 0 7.639-2.215 7.639-4.946 0-.066-.011-.13-.014-.195.003-.028.014-.044.014-.078V10.852z"/></svg>