<svg xmlns="http://www.w3.org/2000/svg" width="60" height="60" viewBox="0 0 60 60"><path fill="#FFF" d="M19.014 41.529H8.219V12.556h41.165V41.53H32.411l-13.398 8.957v-8.958z"/><path fill="#E9463A" d="M26.363 34.012c0-.771.206-1.353.617-1.748.412-.394 1.013-.592 1.8-.592.76 0 1.349.201 1.766.606.418.404.625.982.625 1.734 0 .726-.211 1.299-.631 1.717-.423.418-1.008.626-1.76.626-.769 0-1.365-.205-1.786-.613-.422-.409-.631-.985-.631-1.73zm4.109-4.711h-3.355l-.701-13.457h4.756l-.7 13.457z"/><path d="M10.221 41.53h8.793v2.001h-8.793zm39.163-26.973V41.53H32.411l-11.396 7.618v3.34l13.398-8.957h16.972V14.557z" fill="#343434"/></svg>