<svg xmlns="http://www.w3.org/2000/svg" width="60" height="60" viewBox="0 0 60 60"><path d="M24.741 32.23c.026.699.154 1.37.373 2.001H38.16a6.84 6.84 0 0 0 .373-2.001H24.741zm24.511-18.619V32.23h-7.398a10.217 10.217 0 0 1-.245 2.001h9.644v-20.62h-2.001zM21.42 32.23H10.542v2.001h11.123a10.293 10.293 0 0 1-.245-2.001z" fill="#343434"/><g fill="#FFF"><path d="M38.547 31.973c0-3.81-3.099-6.909-6.909-6.909s-6.909 3.099-6.909 6.909c0 .086.01.17.013.256h13.792c.003-.085.013-.169.013-.256z"/><path d="M8.541 11.61v20.62H21.42c-.002-.086-.013-.17-.013-.256 0-5.65 4.58-10.23 10.23-10.23s10.23 4.58 10.23 10.23c0 .086-.011.17-.013.256h7.398V11.61H8.541z"/></g><path fill="#FFF" d="M33.228 42.067zm1.222-.265zm-2.809.401zm6.906-10.23c0-3.81-3.099-6.909-6.909-6.909s-6.909 3.099-6.909 6.909 3.099 6.909 6.909 6.909 6.909-3.099 6.909-6.909zm3.32.001z" opacity=".6"/><path fill="#FFF" d="M31.637 21.743c5.65 0 10.23 4.58 10.23 10.23 0-5.65-4.58-10.23-10.23-10.23s-10.23 4.58-10.23 10.23c0-5.65 4.581-10.23 10.23-10.23zm9.834 13.024zm.262-1.215z" opacity=".6"/><path fill="#343434" d="M51.051 47.764L40.445 37.158a10.166 10.166 0 0 0 1.422-5.185c0-5.65-4.58-10.23-10.23-10.23s-10.23 4.58-10.23 10.23 4.58 10.23 10.23 10.23c1.917 0 3.705-.537 5.239-1.455l10.595 10.595 3.58-3.579zM24.728 31.973c0-3.81 3.099-6.909 6.909-6.909s6.909 3.099 6.909 6.909-3.099 6.909-6.909 6.909-6.909-3.099-6.909-6.909z"/><path fill="#B4B4B4" d="M31.637 21.743c.178 0 .351.018.527.027l14.395-6.52-.825-1.822-16.96 7.683-17.092-7.684-.82 1.824 16.523 7.427a10.175 10.175 0 0 1 4.252-.935z"/></svg>