<svg xmlns="http://www.w3.org/2000/svg" width="60" height="60" viewBox="0 0 60 60"><path fill="#FFF" d="M8.856 10.61h40.711v20.62H8.856z"/><path fill="#343434" d="M49.567 12.611V31.23h-38.71v2.001h40.711v-20.62z"/><path fill="#B4B4B4" d="M29.092 22.304l-17.916-8.053.821-1.824 17.092 7.684 16.96-7.683.825 1.822z"/><path fill="#8DC04E" d="M47.315 41.6l-.004-.007-5.822-5.828-2.604 2.654 3.862 3.912H20.836c-.407 0-.649-.234-1.199-1.125-.482-.781-.397-1.86-.397-3.059v-4.916h-4v5.026c0 1.905.229 3.745 1.079 5.123 1.106 1.791 2.555 2.952 4.517 2.952h22.075l-3.978 3.803 2.604 2.516 8.381-8.425-2.603-2.626z"/></svg>