<svg xmlns="http://www.w3.org/2000/svg" width="60" height="60" viewBox="0 0 60 60"><path fill="#343434" d="M50.106 32.123v18.619h-38.71v2.001h40.711v-20.62z"/><path fill="#FFF" d="M45.231 30.122V10.03H24.256l-9.905 11.262v8.83H9.394v20.62h40.712v-20.62z"/><path fill="#E9463A" d="M18.936 24.339h19.768v1.828H18.936zm0 3.757h22.442v1.827H18.936zm0 3.755h20.961v1.828H18.936z"/><path fill="#B4B4B4" d="M24.256 10.03l-9.905 11.262h9.905zm5.375 31.786l-17.916-8.052.82-1.824 17.092 7.682 16.961-7.681.824 1.822z"/><path fill="#E9463A" d="M24.256 20.584v.708h-5.32v1.119h21.105v-1.827z"/><path fill="#343434" d="M45.231 11.894h2.181v19.957h-2.181z"/></svg>