<svg xmlns="http://www.w3.org/2000/svg" width="60" height="60" viewBox="0 0 60 60"><path fill-rule="evenodd" clip-rule="evenodd" fill="#D3C7BA" d="M9.207 9.252h40.215v40.214H9.207z"/><path fill="#25A7E0" d="M38.927 32.713c-1.106 1.791-2.795 3.119-4.757 3.119h-6.075l3.978 3.636L29.47 41.9l-8.381-8.467 2.604-2.647.004-.018 5.822-5.833 2.604 2.819-3.862 4.077h5.911c.407 0 1.011-.323 1.561-1.214.482-.781.759-1.907.759-3.107 0-1.774-.681-3.679-1.781-3.679H19.48v-4h15.23c1.799 0 3.345.944 4.353 2.653.764 1.295 1.184 3.17 1.184 4.966-.001 1.905-.469 3.885-1.32 5.263z"/></svg>