<svg xmlns="http://www.w3.org/2000/svg" width="60" height="60" viewBox="0 0 60 60"><path fill-rule="evenodd" clip-rule="evenodd" fill="#DDD1C6" d="M9.708 10.586h40.215V50.8H9.708z"/><path fill-rule="evenodd" clip-rule="evenodd" fill="#8DC04E" d="M40.091 25.659v-1.146c0-3.57-1.632-5.355-4.896-5.355h-9.84c-3.246 0-4.903 1.612-4.984 4.824h-.007v2.274h-1.976v2.621h1.976v2.379h-1.976v2.621h1.976v2.214c0 3.216 1.506 4.824 4.516 4.824h10.315c3.264 0 4.896-1.785 4.896-5.355v-1.146h-3.66v1.773c0 .611-.301.917-.904.917H24.929c-.635 0-.95-.402-.95-1.207v-2.021h6.482v-2.621h-6.482v-2.379h6.482v-2.621h-6.482v-2.466c0-.547.253-.821.759-.821h10.789c.603 0 .904.306.904.916v1.774h3.66z"/></svg>