<svg xmlns="http://www.w3.org/2000/svg" width="60" height="60" viewBox="0 0 60 60"><path fill-rule="evenodd" clip-rule="evenodd" fill="#DDD1C6" d="M9.727 10.252h40.215v40.214H9.727z"/><path fill="#EAA72F" d="M36.293 26.026a9.984 9.984 0 0 1-2.319 7.049 6.053 6.053 0 0 0-5.6-8.357 6.054 6.054 0 0 0-5.806 7.769 12.089 12.089 0 0 1-2.894-4.731h-1.601c1.421 5.747 5.563 9.582 11.539 9.582 5.259 0 11.697-5.565 12.265-11.312h-5.584zm-7.919.338a4.41 4.41 0 1 1-.003 8.821 4.41 4.41 0 0 1 .003-8.821z"/></svg>