<svg xmlns="http://www.w3.org/2000/svg" width="60" height="60" viewBox="0 0 60 60"><path fill="#FFF" d="M45.719 8.152h-21.64L13.861 19.894v31.925h31.858z"/><path fill="#B4B4B4" d="M24.079 8.152L13.861 19.894h10.218z"/><path fill="#343434" d="M45.719 14.023v37.796H19.826v2.431h28.427V14.023z"/><g fill="#343434"><path d="M27.048 20.234c0 .13-.033.245-.099.346-.066.101-.161.179-.285.234s-.27.084-.437.084c-.14 0-.256-.01-.351-.029s-.193-.054-.295-.103v-.504c.107.056.22.099.336.13.117.031.224.047.321.047.084 0 .146-.015.185-.044s.059-.066.059-.112c0-.029-.008-.054-.023-.075s-.041-.043-.076-.065a4.102 4.102 0 0 0-.278-.135 1.326 1.326 0 0 1-.307-.18.561.561 0 0 1-.201-.469c0-.192.069-.343.21-.45.141-.108.333-.162.578-.162.217 0 .438.05.663.15l-.173.437a1.255 1.255 0 0 0-.507-.135c-.074 0-.127.013-.161.039a.117.117 0 0 0-.05.096c0 .041.021.078.063.11.043.032.158.092.346.178.181.081.306.168.376.261s.106.21.106.351zm1.247.636h-.565v-1.631h-.511v-.462h1.586v.462h-.51v1.631zm2.092 0l-.103-.393h-.68l-.106.393h-.621l.683-2.102h.755l.691 2.102h-.619zm-.22-.856l-.091-.344a12.425 12.425 0 0 1-.136-.557 5.158 5.158 0 0 1-.051.24c-.025.112-.081.332-.168.66h.446zm3.058.856h-.741l-.765-1.475h-.013c.018.231.027.409.027.531v.943h-.501v-2.093h.738l.762 1.454h.009a8.038 8.038 0 0 1-.021-.508v-.946h.504v2.094zm2.229-1.091c0 .349-.097.618-.289.808-.192.188-.462.283-.811.283h-.677v-2.093h.724c.336 0 .596.086.778.258.184.171.275.42.275.744zm-.587.02c0-.191-.038-.334-.114-.427-.076-.092-.191-.139-.346-.139h-.164v1.173h.126c.172 0 .297-.05.378-.149.08-.1.12-.253.12-.458zm2.205 1.071H35.83v-2.093h1.242v.453h-.677v.33h.627v.453h-.627v.396h.677v.461zm2.359 0h-.741l-.765-1.475h-.013c.018.231.027.409.027.531v.943h-.501v-2.093h.738l.762 1.454h.009a8.038 8.038 0 0 1-.021-.508v-.946h.504v2.094zm1.694 0h-1.242v-2.093h1.242v.453h-.677v.33h.627v.453h-.627v.396h.677v.461zm-21.072 2.316h.729c.284 0 .496.042.634.127.138.084.207.216.207.395 0 .117-.03.218-.091.301a.402.402 0 0 1-.237.16v.014a.49.49 0 0 1 .282.172c.058.08.087.185.087.312 0 .189-.071.34-.214.448-.143.109-.337.164-.583.164h-.814v-2.093zm.565.803h.17a.31.31 0 0 0 .188-.051c.044-.033.066-.083.066-.148 0-.117-.089-.177-.267-.177h-.158v.376zm0 .413v.439h.198c.177 0 .266-.074.266-.224 0-.069-.024-.123-.071-.16s-.116-.056-.205-.056h-.188zm3.369-.172c0 .352-.087.619-.259.803-.173.184-.426.275-.759.275-.329 0-.58-.093-.756-.276-.175-.185-.263-.453-.263-.805 0-.349.088-.614.262-.798s.428-.276.76-.276c.333 0 .585.092.757.273.172.182.258.45.258.804zm-1.441 0c0 .404.141.606.423.606.143 0 .249-.049.318-.147.069-.098.104-.251.104-.459 0-.209-.035-.363-.105-.463-.069-.101-.175-.15-.313-.15-.285-.001-.427.204-.427.613zm2.741 1.048h-.565v-1.63h-.511v-.463h1.586v.463h-.51v1.63zm2.178-.635a.618.618 0 0 1-.384.581c-.124.055-.27.084-.437.084-.14 0-.256-.01-.351-.029a1.351 1.351 0 0 1-.295-.103v-.504c.107.055.22.099.336.129.117.031.224.047.321.047.084 0 .146-.015.185-.044a.133.133 0 0 0 .059-.112c0-.028-.008-.054-.023-.075s-.041-.043-.076-.064a3.274 3.274 0 0 0-.278-.135 1.29 1.29 0 0 1-.307-.181.558.558 0 0 1-.201-.468c0-.193.069-.344.21-.451s.333-.162.578-.162c.217 0 .438.051.663.15l-.173.437a1.268 1.268 0 0 0-.507-.134c-.074 0-.127.013-.161.038a.119.119 0 0 0-.05.096c0 .041.021.078.063.11.043.033.158.092.346.178.181.081.306.168.376.262a.557.557 0 0 1 .106.35zm1.255-1.024a.362.362 0 0 0-.315.166c-.075.11-.112.262-.112.456 0 .402.152.604.459.604a.973.973 0 0 0 .27-.038c.087-.026.174-.058.262-.094v.479a1.456 1.456 0 0 1-.593.116c-.315 0-.558-.092-.727-.275-.168-.184-.253-.448-.253-.794 0-.217.041-.407.123-.571a.873.873 0 0 1 .352-.379c.153-.088.334-.133.541-.133.226 0 .442.05.648.147l-.175.445a2.22 2.22 0 0 0-.231-.092.833.833 0 0 0-.249-.037zm2.764 1.659h-.568v-.853h-.656v.853h-.568v-2.093h.568v.776h.656v-.776h.568v2.093zm1.736 0l-.103-.392h-.68l-.106.392h-.621l.683-2.102h.755l.691 2.102h-.619zm-.22-.855l-.091-.344a11.517 11.517 0 0 1-.136-.557c-.009.049-.025.129-.051.24s-.081.332-.168.66H33zm1.622.855h-.557v-2.093h1.236v.454h-.68v.399h.627v.454h-.627v.786zm1.947 0h-.565v-1.63h-.511v-.463h1.586v.463h-.51v1.63zm2.051 0h-1.242v-2.093h1.242v.454h-.677v.329h.627v.454h-.627v.395h.677v.461zm2.36 0h-.741l-.765-1.475h-.013c.018.232.027.409.027.531v.943h-.501v-2.093h.738l.762 1.454h.009a8.01 8.01 0 0 1-.021-.508v-.946h.504v2.094zM21.84 29.81h-.638l-.414-.801-.167.101v.7h-.568v-2.093h.568v.909c.028-.057.086-.146.173-.269l.439-.641h.618l-.66.938.649 1.156zm2.185-1.05c0 .353-.087.62-.259.804-.173.183-.426.274-.759.274-.329 0-.58-.092-.756-.276-.175-.184-.263-.452-.263-.805 0-.348.088-.614.262-.798s.428-.275.76-.275c.333 0 .585.091.757.273s.258.45.258.803zm-1.608-1.457c0-.071.021-.127.065-.167a.26.26 0 0 1 .178-.06c.075 0 .135.021.18.062.044.04.066.096.066.165a.21.21 0 0 1-.066.162.256.256 0 0 1-.18.062c-.074 0-.134-.02-.178-.059s-.065-.095-.065-.165zm.167 1.457c0 .405.141.607.423.607.143 0 .249-.05.318-.147.069-.099.104-.252.104-.46 0-.209-.035-.363-.105-.463-.069-.1-.175-.149-.313-.149-.285 0-.427.204-.427.612zm.519-1.457c0-.071.021-.127.065-.167.044-.039.104-.06.181-.06s.137.021.181.062a.215.215 0 0 1 .067.165.207.207 0 0 1-.067.162.255.255 0 0 1-.181.062.261.261 0 0 1-.181-.06.21.21 0 0 1-.065-.164zm3.293 2.507h-.741l-.765-1.475h-.013c.018.231.027.409.027.531v.943h-.501v-2.093h.738l.762 1.454h.009a8.038 8.038 0 0 1-.021-.508v-.946h.504v2.094zm2.444 0h-.741l-.765-1.475h-.013c.018.231.027.409.027.531v.943h-.501v-2.093h.738l.762 1.454h.009a8.038 8.038 0 0 1-.021-.508v-.946h.504v2.094zm1.695 0h-1.242v-2.093h1.242v.453h-.677v.33h.627v.453h-.627v.396h.677v.461zm2.36 0h-.741l-.765-1.475h-.013c.018.231.027.409.027.531v.943h-.501v-2.093h.738l.762 1.454h.009a8.038 8.038 0 0 1-.021-.508v-.946h.504v2.094zm3.473 0H35.7l-.201-.912a5.74 5.74 0 0 1-.09-.513 8.105 8.105 0 0 1-.088.485l-.208.939h-.669l-.519-2.093h.546l.228 1.049c.052.232.087.417.105.554.013-.097.035-.229.067-.396.031-.167.062-.305.089-.415l.185-.791h.524l.179.791a9.41 9.41 0 0 1 .156.811 7.28 7.28 0 0 1 .102-.551l.231-1.052h.546l-.515 2.094zm2.029 0h-1.242v-2.093h1.242v.453h-.677v.33h.627v.453h-.627v.396h.677v.461zm.367 0v-2.093h.565v1.636h.806v.457h-1.371zm-17.788 4.53h-.566v-1.63h-.51v-.463h1.586v.463h-.51v1.63zm2.052 0h-1.242v-2.093h1.242v.454h-.677v.329h.627v.454h-.627v.395h.677v.461zm2.358 0h-.741l-.765-1.475h-.013c.018.232.027.409.027.531v.943h-.501v-2.093h.738l.762 1.454h.009a8.01 8.01 0 0 1-.021-.508v-.946h.504v2.094zm2.39-2.093h.633l-.686 2.093h-.666l-.683-2.093h.636l.285 1.061c.059.236.091.4.097.493.007-.067.021-.15.04-.251.021-.101.038-.179.053-.236l.291-1.067zm2.101 2.093h-1.242v-2.093h1.242v.454H29.2v.329h.627v.454H29.2v.395h.677v.461zm.932-.762v.762h-.565v-2.093h.686c.568 0 .853.206.853.618 0 .243-.118.431-.354.563l.609.911h-.641l-.444-.762h-.144zm0-.425h.105c.197 0 .297-.087.297-.262 0-.145-.098-.217-.291-.217h-.111v.479z"/><path d="M33.511 34.34l-.103-.392h-.68l-.106.392h-.621l.683-2.102h.755l.691 2.102h-.619zm-1.006-2.506c0-.072.021-.128.065-.167a.256.256 0 0 1 .178-.06.26.26 0 0 1 .18.061.212.212 0 0 1 .066.166.208.208 0 0 1-.066.162.258.258 0 0 1-.18.061.26.26 0 0 1-.178-.059.21.21 0 0 1-.065-.164zm.786 1.65l-.091-.343a11.517 11.517 0 0 1-.136-.557c-.009.049-.025.129-.051.24s-.081.332-.168.66h.446zm-.1-1.65c0-.072.022-.128.066-.167.043-.04.104-.06.18-.06s.137.021.182.062a.215.215 0 0 1 .066.165.211.211 0 0 1-.066.162.263.263 0 0 1-.182.061.257.257 0 0 1-.181-.06.207.207 0 0 1-.065-.163zm3.158 2.506h-.741l-.765-1.475h-.013c.018.232.027.409.027.531v.943h-.501v-2.093h.738l.762 1.454h.009a8.01 8.01 0 0 1-.021-.508v-.946h.504v2.094zm2.228-1.091c0 .35-.097.619-.289.808-.192.189-.462.283-.811.283H36.8v-2.093h.724c.336 0 .596.086.778.258s.275.42.275.744zm-.587.021c0-.192-.038-.334-.114-.427s-.191-.139-.346-.139h-.164v1.172h.126c.172 0 .297-.05.378-.149.08-.1.12-.252.12-.457zm2.205 1.07h-1.242v-2.093h1.242v.454h-.677v.329h.627v.454h-.627v.395h.677v.461zm-19.577 3.892v.762h-.565V36.9h.686c.568 0 .853.206.853.618 0 .242-.118.43-.354.562l.609.912h-.641l-.444-.762h-.144zm0-.425h.105c.197 0 .297-.088.297-.263 0-.144-.098-.216-.291-.216h-.111v.479zm3.412 1.186h-.741l-.765-1.475h-.013c.018.231.027.409.027.531v.943h-.501V36.9h.738l.762 1.454h.009a8.038 8.038 0 0 1-.021-.508V36.9h.504v2.093zm1.092-.593v-.396h2.715v.396h-2.715zm3.815-1.5h.729c.284 0 .496.042.634.126.138.085.207.217.207.395 0 .117-.03.218-.091.301a.397.397 0 0 1-.237.16v.015c.13.034.224.092.282.172.058.08.087.184.087.312 0 .19-.071.34-.214.449s-.337.164-.583.164h-.814V36.9zm.565.803h.17a.31.31 0 0 0 .188-.05c.044-.033.066-.083.066-.149 0-.117-.089-.176-.267-.176h-.158v.375zm0 .414v.439h.198c.177 0 .266-.075.266-.224 0-.069-.024-.123-.071-.16s-.116-.056-.205-.056h-.188zm1.307.638c0-.087.026-.155.078-.203s.128-.071.227-.071c.095 0 .167.023.218.071s.076.116.076.203a.26.26 0 0 1-.078.201.302.302 0 0 1-.216.072.325.325 0 0 1-.223-.071.253.253 0 0 1-.082-.202zm1.874.238h-.565v-1.631h-.511V36.9h1.586v.462h-.51v1.631zm.705-.238c0-.087.026-.155.078-.203s.128-.071.227-.071c.095 0 .167.023.218.071s.076.116.076.203a.26.26 0 0 1-.078.201.302.302 0 0 1-.216.072.325.325 0 0 1-.223-.071.253.253 0 0 1-.082-.202zM20.926 19.894a5.858 5.858 0 0 0-.042.186c-.02.1-.033.184-.04.25a2.988 2.988 0 0 0-.084-.436h-.569l.318.976h.666l.32-.976h-.569zm1.727.12h.627v-.12h-1.193v.976h1.242v-.461h-.676zm2.227-.056c.236-.133.354-.32.354-.562 0-.412-.284-.618-.853-.618h-.303v1.116h-.383v.976h.565v-.762h.143l.444.762h.641l-.608-.912zm-.513-.274h-.105v-.479h.111c.193 0 .291.072.291.216 0 .175-.099.263-.297.263z"/></g></svg>