<svg xmlns="http://www.w3.org/2000/svg" width="60" height="60" viewBox="0 0 60 60"><path fill="#FFF" d="M50.165 46.831c-2.625 0-2.185-1.237-2.185-1.237V15.831h-40V41.75c0 3.844 1.176 4.311 1.176 4.311s1.165.77 4.697.77h36.312z"/><path fill="#B4B4B4" d="M52.04 26.831h-4.06v19.156c.103.362.547.844 2.185.844h.091c1.189 0 1.465-.291 1.465-.291s.328-.573.318-2.042c-.008-1.468.001-17.667.001-17.667z"/><path d="M13.515 19.535c.388-.064.896-.12 1.544-.12.795 0 1.378.185 1.747.518.343.296.546.749.546 1.304 0 .564-.166 1.008-.48 1.332-.426.453-1.119.684-1.905.684-.24 0-.462-.009-.647-.056v2.497h-.804v-6.159zm.804 3.004c.176.047.398.064.666.064.971 0 1.562-.471 1.562-1.331 0-.823-.582-1.221-1.47-1.221-.352 0-.62.027-.759.064v2.424zm4.117-2.996c.406-.083.989-.129 1.544-.129.859 0 1.415.157 1.803.508.314.278.49.703.49 1.184 0 .823-.518 1.369-1.174 1.591v.028c.48.166.768.609.915 1.257.203.869.352 1.471.48 1.711h-.832c-.102-.176-.24-.712-.416-1.488-.185-.86-.518-1.184-1.248-1.212h-.759v2.7h-.804v-6.15zm.803 2.839h.823c.86 0 1.405-.472 1.405-1.184 0-.805-.582-1.155-1.433-1.165-.389 0-.666.037-.796.074v2.275zm7.4.389h-2.423v2.247h2.7v.675h-3.504V19.46h3.365v.675h-2.562v1.97h2.423v.666zm1.213 1.941c.36.223.888.407 1.442.407.823 0 1.304-.435 1.304-1.063 0-.583-.333-.915-1.174-1.239-1.018-.36-1.646-.888-1.646-1.766 0-.972.805-1.692 2.016-1.692.639 0 1.101.147 1.378.305l-.222.657a2.479 2.479 0 0 0-1.184-.296c-.851 0-1.175.508-1.175.934 0 .583.38.869 1.239 1.202 1.055.407 1.591.915 1.591 1.831 0 .962-.712 1.794-2.183 1.794-.601 0-1.257-.176-1.59-.397l.204-.677zm4.56 0c.36.223.888.407 1.442.407.823 0 1.304-.435 1.304-1.063 0-.583-.333-.915-1.174-1.239-1.018-.36-1.646-.888-1.646-1.766 0-.972.805-1.692 2.016-1.692.639 0 1.101.147 1.378.305l-.222.657a2.479 2.479 0 0 0-1.184-.296c-.851 0-1.175.508-1.175.934 0 .583.38.869 1.239 1.202 1.055.407 1.591.915 1.591 1.831 0 .962-.712 1.794-2.183 1.794-.601 0-1.257-.176-1.59-.397l.204-.677zm7.899-1.941h-2.423v2.247h2.7v.675h-3.504V19.46h3.365v.675h-2.562v1.97h2.423v.666z" fill="#343434"/><path fill="#B4B4B4" d="M28.415 46.831c-2.625 0-2.435-1.237-2.435-1.237V29.831h-15V41.75c0 3.844 1.051 4.311 1.051 4.311s1.04.77 4.572.77h11.812z"/><path fill="#343434" d="M29.197 30.107h.109v.752h.36v.091h-.469v-.843zm1.117.535c0 .224-.155.322-.302.322-.164 0-.29-.12-.29-.312 0-.203.133-.322.3-.322.175.001.292.127.292.312zm-.48.006c0 .133.076.233.184.233.105 0 .184-.099.184-.235 0-.103-.052-.233-.181-.233-.131 0-.187.12-.187.235zm.618-.115c0-.071-.001-.133-.005-.189h.096l.004.119h.005c.028-.081.094-.133.168-.133.012 0 .021.001.031.004v.104a.192.192 0 0 0-.038-.004c-.077 0-.133.059-.148.141-.002.015-.005.032-.005.051v.323h-.109v-.416zm.458.134c.002.149.098.21.208.21a.41.41 0 0 0 .168-.031l.019.079a.48.48 0 0 1-.201.038c-.187 0-.298-.123-.298-.305 0-.183.107-.327.284-.327.198 0 .25.174.25.285 0 .022-.002.04-.004.051h-.426zm.323-.079c.001-.07-.029-.179-.153-.179-.111 0-.16.103-.169.179h.322zm.242-.08c0-.062-.001-.114-.005-.164h.096l.005.098h.004a.208.208 0 0 1 .19-.111c.083 0 .145.05.171.121h.003a.252.252 0 0 1 .067-.079.208.208 0 0 1 .134-.042c.08 0 .199.052.199.263v.357h-.108v-.343c0-.116-.043-.187-.131-.187a.14.14 0 0 0-.13.1.18.18 0 0 0-.009.055v.374h-.108v-.363c0-.096-.042-.167-.126-.167-.069 0-.119.055-.136.11a.157.157 0 0 0-.009.054v.365h-.108v-.441zm1.655-.334c.001.037-.026.067-.07.067a.065.065 0 0 1-.066-.067c0-.039.029-.069.069-.069.041 0 .067.03.067.069zm-.122.776v-.606h.11v.606h-.11zm.292-.408c0-.078-.002-.14-.005-.198h.099l.005.104h.002a.237.237 0 0 1 .215-.118c.146 0 .256.124.256.308 0 .218-.133.325-.275.325a.214.214 0 0 1-.187-.095h-.002v.329H33.3v-.655zm.109.161a.17.17 0 0 0 .17.174c.116 0 .184-.095.184-.234 0-.121-.064-.225-.18-.225a.175.175 0 0 0-.166.136.17.17 0 0 0-.008.045v.104zm.587.134a.29.29 0 0 0 .145.044c.08 0 .118-.04.118-.09 0-.052-.031-.081-.113-.111-.109-.039-.16-.099-.16-.171 0-.098.079-.178.209-.178.062 0 .115.018.149.038l-.027.08a.238.238 0 0 0-.124-.035c-.065 0-.101.038-.101.083 0 .05.036.073.115.103.105.04.159.093.159.183 0 .106-.083.181-.227.181a.344.344 0 0 1-.17-.041l.027-.086zm1.017-.052c0 .063.001.118.005.165h-.098l-.006-.099h-.002a.228.228 0 0 1-.2.113c-.095 0-.209-.052-.209-.265v-.354h.11v.335c0 .115.035.193.135.193a.158.158 0 0 0 .145-.1.164.164 0 0 0 .01-.056v-.372h.11v.44zm.182-.277c0-.062-.001-.114-.005-.164h.096l.005.098h.004a.208.208 0 0 1 .19-.111c.083 0 .145.05.171.121h.002a.255.255 0 0 1 .068-.079.208.208 0 0 1 .134-.042c.08 0 .199.052.199.263v.357h-.107v-.343c0-.116-.042-.187-.131-.187-.063 0-.111.046-.13.1a.18.18 0 0 0-.009.055v.374h-.108v-.363c0-.096-.042-.167-.126-.167-.069 0-.119.055-.136.11a.157.157 0 0 0-.009.054v.365h-.108v-.441zm2.055-.446v.732c0 .054.001.115.005.156h-.099l-.005-.105h-.003a.224.224 0 0 1-.206.119c-.146 0-.259-.124-.259-.308-.001-.201.124-.325.271-.325.093 0 .155.044.183.093h.002v-.362h.111zm-.11.529a.18.18 0 0 0-.005-.046.161.161 0 0 0-.159-.127c-.114 0-.181.1-.181.234 0 .123.06.224.179.224a.165.165 0 0 0 .161-.132.178.178 0 0 0 .005-.047v-.106zm.841.051c0 .224-.155.322-.302.322-.164 0-.29-.12-.29-.312 0-.203.133-.322.3-.322.174.001.292.127.292.312zm-.481.006c0 .133.076.233.184.233.105 0 .184-.099.184-.235 0-.103-.051-.233-.182-.233-.13 0-.186.12-.186.235zm.619-.586h.11v.888h-.11v-.888zm.843.58c0 .224-.155.322-.302.322-.164 0-.29-.12-.29-.312 0-.203.133-.322.3-.322.174.001.292.127.292.312zm-.481.006c0 .133.076.233.184.233.105 0 .184-.099.184-.235 0-.103-.052-.233-.181-.233-.131 0-.187.12-.187.235zm.619-.115c0-.071-.001-.133-.005-.189h.096l.004.119h.005c.028-.081.094-.133.168-.133.012 0 .021.001.031.004v.104a.192.192 0 0 0-.038-.004c-.077 0-.133.059-.148.141-.002.015-.005.032-.005.051v.323H39.1v-.416zm.884.304a.29.29 0 0 0 .145.044c.08 0 .118-.04.118-.09 0-.052-.031-.081-.113-.111-.109-.039-.16-.099-.16-.171 0-.098.079-.178.209-.178.061 0 .115.018.149.038l-.027.08a.238.238 0 0 0-.124-.035c-.065 0-.101.038-.101.083 0 .05.036.073.115.103.105.04.159.093.159.183 0 .106-.083.181-.226.181a.344.344 0 0 1-.17-.041l.026-.086zm.632-.663c.001.037-.026.067-.07.067a.065.065 0 0 1-.066-.067c0-.039.029-.069.069-.069.041 0 .067.03.067.069zm-.122.776v-.606h.11v.606h-.11zm.425-.78v.174h.158v.084h-.158v.327c0 .075.021.117.083.117.029 0 .05-.004.064-.008l.005.083a.262.262 0 0 1-.097.015c-.051 0-.093-.016-.119-.046-.031-.033-.042-.086-.042-.158v-.33h-.094v-.084h.094v-.145l.106-.029zm1.107.78l-.009-.076h-.004a.225.225 0 0 1-.185.09c-.123 0-.185-.086-.185-.174 0-.146.13-.227.364-.225v-.012c0-.05-.014-.14-.138-.14a.31.31 0 0 0-.158.045l-.025-.073a.382.382 0 0 1 .199-.054c.185 0 .23.126.23.248v.226c0 .053.002.104.01.145h-.099zm-.017-.309c-.12-.002-.257.019-.257.136 0 .071.048.105.104.105a.15.15 0 0 0 .146-.101.107.107 0 0 0 .006-.035v-.105zm.284-.133c0-.062-.001-.114-.005-.164h.096l.005.098h.004a.208.208 0 0 1 .19-.111c.083 0 .145.05.171.121h.003a.252.252 0 0 1 .067-.079.208.208 0 0 1 .134-.042c.08 0 .199.052.199.263v.357h-.107v-.343c0-.116-.043-.187-.131-.187a.14.14 0 0 0-.13.1.18.18 0 0 0-.009.055v.374h-.108v-.363c0-.096-.042-.167-.126-.167-.069 0-.119.055-.136.11a.157.157 0 0 0-.009.054v.365h-.108v-.441zm1.104.159c.003.149.098.21.208.21a.41.41 0 0 0 .168-.031l.019.079a.482.482 0 0 1-.202.038c-.186 0-.298-.123-.298-.305 0-.183.108-.327.284-.327.198 0 .25.174.25.285 0 .022-.002.04-.004.051h-.425zm.323-.079c.001-.07-.029-.179-.153-.179-.111 0-.16.103-.169.179h.322zm.374-.418v.174h.158v.084h-.158v.327c0 .075.021.117.083.117.029 0 .05-.004.064-.008l.005.083a.262.262 0 0 1-.097.015c-.051 0-.093-.016-.119-.046-.031-.033-.042-.086-.042-.158v-.33h-.094v-.084h.094v-.145l.106-.029zm.206.934a1.79 1.79 0 0 0 .075-.299l.123-.012a1.554 1.554 0 0 1-.119.304l-.079.007zm-15.106.904c0-.062-.001-.114-.005-.164h.096l.005.098h.004a.208.208 0 0 1 .19-.111c.083 0 .145.05.171.121h.003a.252.252 0 0 1 .067-.079.208.208 0 0 1 .134-.042c.08 0 .199.052.199.263v.357h-.108v-.343c0-.116-.043-.187-.131-.187a.14.14 0 0 0-.13.1.18.18 0 0 0-.009.055v.374h-.108v-.363c0-.096-.042-.167-.126-.167-.069 0-.119.055-.136.11a.157.157 0 0 0-.009.054v.365h-.108v-.441zm1.103.159c.003.149.098.21.208.21a.41.41 0 0 0 .168-.031l.019.079a.482.482 0 0 1-.202.038c-.186 0-.298-.123-.298-.305s.108-.327.284-.327c.198 0 .25.174.25.285 0 .022-.002.04-.004.051h-.425zm.323-.079c.001-.07-.029-.179-.153-.179-.111 0-.16.103-.169.179h.322zm.242-.526h.11v.888h-.11v-.888zm.75 0h.11v.888h-.11v-.888zm.418.112c.001.037-.026.067-.07.067a.065.065 0 0 1-.066-.067c0-.039.029-.069.069-.069.041 0 .067.031.067.069zm-.123.776v-.606h.11v.606h-.11zm.288 0c.002-.041.005-.103.005-.156v-.732h.109v.38h.002a.227.227 0 0 1 .207-.111c.15 0 .257.125.255.309 0 .217-.136.324-.271.324a.217.217 0 0 1-.203-.114h-.004l-.005.1h-.095zm.114-.243a.17.17 0 0 0 .17.169c.115 0 .184-.094.184-.233 0-.121-.062-.225-.18-.225a.174.174 0 0 0-.167.135.196.196 0 0 0-.006.045v.109zm.663-.04c.003.149.098.21.208.21a.41.41 0 0 0 .168-.031l.019.079a.482.482 0 0 1-.202.038c-.186 0-.298-.123-.298-.305s.108-.327.284-.327c.198 0 .25.174.25.285 0 .022-.002.04-.004.051h-.425zm.323-.079c.001-.07-.029-.179-.153-.179-.111 0-.16.103-.169.179h.322zm.242-.055c0-.071-.001-.133-.005-.189h.096l.004.119h.005c.028-.081.094-.133.168-.133.012 0 .021.001.031.004v.104a.192.192 0 0 0-.038-.004c-.078 0-.133.059-.147.141a.26.26 0 0 0-.005.051v.323h-.109v-.416zm.987-.359c.001.037-.026.067-.07.067a.065.065 0 0 1-.066-.067c0-.039.029-.069.069-.069.041 0 .067.031.067.069zm-.123.776v-.606h.11v.606h-.11zm.293-.417c0-.071-.001-.133-.005-.189h.096l.004.119h.005c.028-.081.094-.133.168-.133.012 0 .021.001.031.004v.104a.192.192 0 0 0-.038-.004c-.077 0-.133.059-.148.141-.002.015-.005.032-.005.051v.323h-.109v-.416zm.536-.359c.001.037-.026.067-.07.067a.065.065 0 0 1-.066-.067c0-.039.029-.069.069-.069.041 0 .067.031.067.069zm-.123.776v-.606h.11v.606h-.11zm.8-.165c0 .063.001.118.005.165h-.098l-.006-.099h-.002a.228.228 0 0 1-.2.113c-.095 0-.209-.052-.209-.265v-.354h.11v.335c0 .115.035.193.135.193a.158.158 0 0 0 .145-.1.164.164 0 0 0 .01-.056v-.372h.11v.44zm.181-.252c0-.071-.001-.133-.005-.189h.096l.004.119h.005c.028-.081.094-.133.168-.133.012 0 .021.001.031.004v.104a.192.192 0 0 0-.038-.004c-.078 0-.133.059-.147.141a.26.26 0 0 0-.005.051v.323h-.109v-.416zm.458.134c.003.149.098.21.208.21a.41.41 0 0 0 .168-.031l.019.079a.482.482 0 0 1-.202.038c-.186 0-.298-.123-.298-.305s.108-.327.284-.327c.198 0 .25.174.25.285 0 .022-.002.04-.004.051h-.425zm.323-.079c.001-.07-.029-.179-.153-.179-.111 0-.16.103-.169.179h.322zm1.22-.526v.732c0 .054.001.115.005.156h-.099l-.005-.105h-.002a.223.223 0 0 1-.206.119c-.146 0-.259-.124-.259-.308-.001-.201.124-.325.271-.325.093 0 .155.044.183.093h.002v-.362h.11zm-.11.529a.18.18 0 0 0-.005-.046.161.161 0 0 0-.159-.127c-.114 0-.181.1-.181.234 0 .123.06.224.179.224a.165.165 0 0 0 .161-.132.178.178 0 0 0 .005-.047v-.106zm.415-.417c.001.037-.026.067-.07.067a.065.065 0 0 1-.066-.067c0-.039.029-.069.069-.069.041 0 .067.031.067.069zm-.123.776v-.606h.11v.606h-.11zm.814-.606c-.002.044-.005.093-.005.167v.352c0 .139-.028.224-.086.277a.322.322 0 0 1-.22.073.391.391 0 0 1-.201-.05l.028-.084c.04.025.103.047.178.047.113 0 .195-.059.195-.211v-.067h-.004a.217.217 0 0 1-.193.101c-.15 0-.258-.128-.258-.295 0-.205.134-.322.273-.322.105 0 .163.055.189.105h.002l.005-.092h.097zm-.113.239a.158.158 0 0 0-.16-.166c-.105 0-.18.089-.18.229 0 .119.06.218.179.218a.16.16 0 0 0 .153-.113.201.201 0 0 0 .009-.059v-.109zm.283-.075c0-.062-.001-.114-.005-.164h.097l.006.1h.002c.03-.057.1-.114.2-.114.084 0 .214.05.214.258v.362h-.11v-.349c0-.098-.036-.179-.14-.179a.156.156 0 0 0-.148.113.156.156 0 0 0-.008.051v.364h-.11v-.442zm.816-.334c.001.037-.026.067-.07.067a.065.065 0 0 1-.066-.067c0-.039.029-.069.069-.069.041 0 .067.031.067.069zm-.122.776v-.606h.11v.606h-.11zm.277-.113a.29.29 0 0 0 .145.044c.08 0 .118-.04.118-.09 0-.052-.031-.081-.113-.111-.109-.039-.16-.099-.16-.171 0-.098.079-.178.209-.178.062 0 .115.018.149.038l-.027.08a.238.238 0 0 0-.124-.035c-.065 0-.101.038-.101.083 0 .05.036.073.115.103.105.04.159.093.159.183 0 .106-.083.181-.227.181a.344.344 0 0 1-.17-.041l.027-.086zm.496 0a.29.29 0 0 0 .145.044c.08 0 .118-.04.118-.09 0-.052-.031-.081-.113-.111-.109-.039-.16-.099-.16-.171 0-.098.079-.178.209-.178.062 0 .115.018.149.038l-.027.08a.238.238 0 0 0-.124-.035c-.065 0-.101.038-.101.083 0 .05.036.073.115.103.105.04.159.093.159.183 0 .106-.083.181-.227.181a.344.344 0 0 1-.17-.041l.027-.086zm.632-.663c.001.037-.026.067-.07.067a.065.065 0 0 1-.066-.067c0-.039.029-.069.069-.069.041 0 .067.031.067.069zm-.122.776v-.606h.11v.606h-.11zm.292-.442c0-.062-.001-.114-.005-.164h.096l.005.098h.004a.208.208 0 0 1 .19-.111c.083 0 .145.05.171.121h.002a.255.255 0 0 1 .068-.079.208.208 0 0 1 .134-.042c.08 0 .199.052.199.263v.357h-.107v-.343c0-.116-.042-.187-.131-.187-.063 0-.111.046-.13.1a.18.18 0 0 0-.009.055v.374h-.108v-.363c0-.096-.042-.167-.126-.167-.069 0-.119.055-.136.11a.157.157 0 0 0-.009.054v.365h-.108v-.441zm1.498 0c0-.062-.001-.114-.005-.164h.097l.006.1h.002c.03-.057.1-.114.2-.114.084 0 .214.05.214.258v.362h-.11v-.349c0-.098-.036-.179-.14-.179a.156.156 0 0 0-.148.113.156.156 0 0 0-.008.051v.364h-.11v-.442zm1.242.134c0 .224-.155.322-.302.322-.164 0-.29-.12-.29-.312 0-.203.133-.322.3-.322.174.001.292.127.292.312zm-.481.006c0 .133.076.233.184.233.105 0 .184-.099.184-.235 0-.103-.051-.233-.182-.233-.129 0-.186.12-.186.235zm.563.237c0-.046.031-.079.075-.079s.074.032.074.079c0 .045-.029.079-.075.079-.044 0-.074-.034-.074-.079zm-14.712 1.17h-.328v.304h.365v.091h-.474v-.843h.455v.091h-.347v.266h.328v.091zm.226-.211l.086.13.061.099h.004c.02-.036.04-.067.06-.1l.085-.129h.119l-.207.293.213.313h-.125l-.089-.136a1.653 1.653 0 0 1-.065-.105H30c-.02.036-.041.069-.064.105l-.088.136h-.121l.215-.309-.205-.297h.123zm1.209 0l.119.34c.02.055.036.105.049.155h.004c.014-.05.031-.1.052-.155l.117-.34h.115l-.238.606h-.105l-.23-.606h.117zm.681-.17c.001.037-.026.067-.07.067a.065.065 0 0 1-.066-.067c0-.039.029-.069.069-.069a.066.066 0 0 1 .067.069zm-.123.776v-.606h.11v.606h-.11zm.335-.606l.119.34c.02.055.036.105.049.155h.004c.014-.05.031-.1.051-.155l.117-.34h.115l-.237.606h-.105l-.23-.606h.117zm.608.323c.002.149.098.21.208.21a.41.41 0 0 0 .168-.031l.019.079a.48.48 0 0 1-.201.038c-.187 0-.298-.123-.298-.305s.107-.327.284-.327c.198 0 .25.174.25.285 0 .022-.002.04-.004.051h-.426zm.323-.079c.001-.07-.029-.179-.153-.179-.111 0-.16.103-.169.179h.322zm.242-.08c0-.062-.001-.114-.005-.164h.097l.006.1h.002c.03-.057.1-.114.2-.114.084 0 .214.05.214.258v.362h-.11v-.349c0-.098-.036-.179-.14-.179a.156.156 0 0 0-.148.113.156.156 0 0 0-.008.051v.364h-.11v-.442zm1.217-.446v.732c0 .054.001.115.005.156h-.099l-.005-.105h-.003a.224.224 0 0 1-.206.119c-.146 0-.259-.124-.259-.308-.001-.201.124-.325.271-.325.093 0 .155.044.183.093h.002v-.362h.111zm-.11.529a.18.18 0 0 0-.005-.046.161.161 0 0 0-.159-.127c-.114 0-.181.1-.181.234 0 .123.06.224.179.224a.165.165 0 0 0 .161-.132.178.178 0 0 0 .005-.047v-.106zm.84.051c0 .224-.155.322-.302.322-.164 0-.29-.12-.29-.312 0-.203.133-.322.3-.322.174.001.292.127.292.312zm-.48.006c0 .133.076.233.184.233.105 0 .184-.099.184-.235 0-.103-.051-.233-.182-.233-.13 0-.186.12-.186.235zm1.268.302v-.522h-.085v-.084h.085v-.029c0-.085.019-.163.07-.212a.21.21 0 0 1 .148-.056c.039 0 .073.009.094.018l-.015.085a.157.157 0 0 0-.07-.014c-.094 0-.118.083-.118.175v.032h.146v.084h-.146v.522h-.109zm.689 0l-.009-.076h-.004a.225.225 0 0 1-.185.09c-.123 0-.185-.086-.185-.174 0-.146.13-.227.364-.225v-.012c0-.05-.014-.14-.138-.14a.31.31 0 0 0-.158.045l-.025-.073a.382.382 0 0 1 .199-.054c.185 0 .23.126.23.248v.226c0 .053.002.104.01.145h-.099zm-.016-.309c-.12-.002-.257.019-.257.136 0 .071.048.105.104.105a.15.15 0 0 0 .146-.101.107.107 0 0 0 .006-.035v-.105zm.268.196a.29.29 0 0 0 .145.044c.08 0 .118-.04.118-.09 0-.052-.031-.081-.113-.111-.109-.039-.16-.099-.16-.171 0-.098.079-.178.209-.178.062 0 .115.018.149.038l-.027.08a.238.238 0 0 0-.124-.035c-.065 0-.101.038-.101.083 0 .05.036.073.115.103.105.04.159.093.159.183 0 .106-.083.181-.227.181a.344.344 0 0 1-.17-.041l.027-.086zm.643-.667v.174h.158v.084h-.158v.327c0 .075.021.117.083.117.029 0 .05-.004.064-.008l.005.083a.264.264 0 0 1-.098.015c-.051 0-.093-.016-.119-.046-.031-.033-.042-.086-.042-.158v-.33h-.094v-.084h.094v-.145l.107-.029zm.404.004c.001.037-.026.067-.07.067a.065.065 0 0 1-.066-.067c0-.039.029-.069.069-.069.04.001.067.031.067.069zm-.123.776v-.606h.11v.606h-.11zm.815-.888v.732c0 .054.001.115.005.156h-.099l-.005-.105h-.002a.223.223 0 0 1-.206.119c-.146 0-.259-.124-.259-.308-.001-.201.124-.325.271-.325.093 0 .155.044.183.093h.002v-.362h.11zm-.11.529a.18.18 0 0 0-.005-.046.161.161 0 0 0-.159-.127c-.114 0-.181.1-.181.234 0 .123.06.224.179.224a.165.165 0 0 0 .161-.132.178.178 0 0 0 .005-.047v-.106zm.415-.417c.001.037-.026.067-.07.067a.065.065 0 0 1-.066-.067c0-.039.029-.069.069-.069a.066.066 0 0 1 .067.069zm-.122.776v-.606h.11v.606h-.11zm.415-.776c.001.037-.026.067-.07.067a.065.065 0 0 1-.066-.067c0-.039.029-.069.069-.069.04.001.067.031.067.069zm-.123.776v-.606h.11v.606h-.11zm.931-.442c0-.062-.001-.114-.005-.164h.096l.005.098h.004a.208.208 0 0 1 .19-.111c.083 0 .145.05.171.121h.002a.255.255 0 0 1 .068-.079.208.208 0 0 1 .134-.042c.08 0 .199.052.199.263v.357h-.107v-.343c0-.116-.042-.187-.131-.187-.063 0-.111.046-.13.1a.18.18 0 0 0-.009.055v.374h-.108v-.363c0-.096-.042-.167-.126-.167-.069 0-.119.055-.136.11a.157.157 0 0 0-.009.054v.365h-.108v-.441zm1.104.159c.002.149.098.21.208.21a.41.41 0 0 0 .168-.031l.019.079a.48.48 0 0 1-.201.038c-.187 0-.298-.123-.298-.305s.107-.327.284-.327c.198 0 .25.174.25.285 0 .022-.002.04-.004.051h-.426zm.323-.079c.001-.07-.029-.179-.153-.179-.111 0-.16.103-.169.179h.322zm.242-.526h.11v.888h-.11v-.888zm.211 1.042a1.79 1.79 0 0 0 .075-.299l.123-.012a1.554 1.554 0 0 1-.119.304l-.079.007zm.954-.267a.29.29 0 0 0 .145.044c.08 0 .118-.04.118-.09 0-.052-.031-.081-.113-.111-.109-.039-.16-.099-.16-.171 0-.098.079-.178.209-.178.061 0 .115.018.149.038l-.027.08a.238.238 0 0 0-.124-.035c-.065 0-.101.038-.101.083 0 .05.036.073.115.103.105.04.159.093.159.183 0 .106-.083.181-.226.181a.344.344 0 0 1-.17-.041l.026-.086zm.571-.17c.003.149.098.21.208.21a.41.41 0 0 0 .168-.031l.019.079a.482.482 0 0 1-.202.038c-.186 0-.298-.123-.298-.305s.108-.327.284-.327c.198 0 .25.174.25.285 0 .022-.002.04-.004.051h-.425zm.323-.079c.001-.07-.029-.179-.153-.179-.111 0-.16.103-.169.179h.322zm.765-.526v.732c0 .054.001.115.005.156h-.099l-.005-.105h-.002a.223.223 0 0 1-.206.119c-.146 0-.259-.124-.259-.308-.001-.201.124-.325.271-.325.093 0 .155.044.183.093h.002v-.362h.11zm-.11.529a.18.18 0 0 0-.005-.046.161.161 0 0 0-.159-.127c-.114 0-.181.1-.181.234 0 .123.06.224.179.224a.165.165 0 0 0 .161-.132.178.178 0 0 0 .005-.047v-.106zm-15.145 1.417c0-.063-.001-.114-.005-.164h.096l.005.098h.004a.208.208 0 0 1 .19-.111c.083 0 .145.05.171.121h.003a.252.252 0 0 1 .067-.079.208.208 0 0 1 .134-.042c.08 0 .199.052.199.263v.357h-.108v-.343c0-.116-.043-.187-.131-.187a.14.14 0 0 0-.13.1.18.18 0 0 0-.009.055v.374h-.108v-.363c0-.096-.042-.167-.126-.167-.069 0-.119.055-.136.11a.157.157 0 0 0-.009.054v.365h-.108v-.441zm1.378.442l-.009-.076h-.004a.225.225 0 0 1-.185.09c-.123 0-.185-.086-.185-.174 0-.146.13-.227.364-.225v-.012c0-.05-.014-.14-.138-.14a.31.31 0 0 0-.158.045l-.025-.073a.382.382 0 0 1 .199-.054c.185 0 .23.126.23.248v.226c0 .053.002.104.01.145h-.099zm-.017-.309c-.12-.002-.257.019-.257.136 0 .071.048.105.104.105a.15.15 0 0 0 .146-.101.107.107 0 0 0 .006-.035v-.105zm.284-.579h.11v.888h-.11v-.888zm.417.112c.001.037-.026.067-.07.067a.065.065 0 0 1-.066-.067c0-.039.029-.069.069-.069a.066.066 0 0 1 .067.069zm-.122.776v-.606h.11v.606h-.11zm.277-.113a.29.29 0 0 0 .145.044c.08 0 .118-.04.118-.09 0-.052-.031-.081-.113-.111-.109-.039-.16-.099-.16-.171 0-.098.079-.178.209-.178.061 0 .115.018.149.038l-.027.08a.238.238 0 0 0-.124-.035c-.065 0-.101.038-.101.083 0 .05.036.073.115.103.105.04.159.093.159.183 0 .106-.083.181-.226.181a.344.344 0 0 1-.17-.041l.026-.086zm.84.113v-.522h-.085v-.084h.085v-.029c0-.085.019-.163.07-.212a.21.21 0 0 1 .148-.056c.039 0 .073.009.094.018l-.015.085a.157.157 0 0 0-.07-.014c-.094 0-.118.083-.118.175v.032h.146v.084h-.146v.522h-.109zm.689 0l-.009-.076h-.004a.225.225 0 0 1-.185.09c-.123 0-.185-.086-.185-.174 0-.146.13-.227.364-.225v-.012c0-.05-.014-.14-.138-.14a.31.31 0 0 0-.158.045l-.025-.073a.382.382 0 0 1 .199-.054c.185 0 .23.126.23.248v.226c0 .053.002.104.01.145h-.099zm-.016-.309c-.12-.002-.257.019-.257.136 0 .071.048.105.104.105a.15.15 0 0 0 .146-.101.107.107 0 0 0 .006-.035v-.105zm.715.287a.408.408 0 0 1-.174.035c-.183 0-.302-.124-.302-.309 0-.186.128-.322.325-.322a.37.37 0 0 1 .153.031l-.025.085a.256.256 0 0 0-.128-.029c-.139 0-.214.103-.214.229 0 .14.09.227.21.227a.306.306 0 0 0 .135-.03l.02.083zm.182-.261c.002.149.098.21.208.21a.41.41 0 0 0 .168-.031l.019.079a.48.48 0 0 1-.201.038c-.187 0-.298-.123-.298-.305s.107-.327.284-.327c.198 0 .25.174.25.285 0 .022-.002.04-.004.051h-.426zm.323-.079c.001-.07-.029-.179-.153-.179-.111 0-.16.103-.169.179h.322zm.242-.055c0-.071-.001-.133-.005-.189h.096l.004.119h.005c.028-.081.094-.133.168-.133.012 0 .021.001.031.004v.104a.192.192 0 0 0-.038-.004c-.077 0-.133.059-.148.141-.002.015-.005.032-.005.051v.323h-.109v-.416zm.728-.025c0-.063-.001-.114-.005-.164h.097l.006.1h.002c.03-.057.1-.114.2-.114.084 0 .214.05.214.258v.362h-.11v-.349c0-.098-.036-.179-.14-.179a.156.156 0 0 0-.148.113.156.156 0 0 0-.008.051v.364h-.11v-.442zm.755.159c.003.149.098.21.208.21a.41.41 0 0 0 .168-.031l.019.079a.482.482 0 0 1-.202.038c-.186 0-.298-.123-.298-.305s.108-.327.284-.327c.198 0 .25.174.25.285 0 .022-.002.04-.004.051h-.425zm.323-.079c.001-.07-.029-.179-.153-.179-.111 0-.16.103-.169.179h.322zm.242-.08c0-.063-.001-.114-.005-.164h.096l.005.098h.004a.208.208 0 0 1 .19-.111c.083 0 .145.05.171.121h.002a.255.255 0 0 1 .068-.079.208.208 0 0 1 .134-.042c.08 0 .199.052.199.263v.357h-.107v-.343c0-.116-.042-.187-.131-.187-.063 0-.111.046-.13.1a.18.18 0 0 0-.009.055v.374h-.108v-.363c0-.096-.042-.167-.126-.167-.069 0-.119.055-.136.11a.157.157 0 0 0-.009.054v.365h-.108v-.441zm1.59.134c0 .224-.155.322-.302.322-.164 0-.29-.12-.29-.312 0-.203.133-.322.3-.322.175.001.292.127.292.312zm-.48.007c0 .133.076.233.184.233.105 0 .184-.099.184-.235 0-.103-.052-.233-.181-.233-.131-.001-.187.119-.187.235zm.618-.116c0-.071-.001-.133-.005-.189h.096l.004.119h.005c.028-.081.094-.133.168-.133.012 0 .021.001.031.004v.104a.192.192 0 0 0-.038-.004c-.077 0-.133.059-.148.141-.002.015-.005.032-.005.051v.323h-.109v-.416zm.458.134c.002.149.098.21.208.21a.41.41 0 0 0 .168-.031l.019.079a.48.48 0 0 1-.201.038c-.187 0-.298-.123-.298-.305s.107-.327.284-.327c.198 0 .25.174.25.285 0 .022-.002.04-.004.051h-.426zm.323-.079c.001-.07-.029-.179-.153-.179-.111 0-.16.103-.169.179h.322zm1.067.197c0 .063.001.118.005.165h-.097l-.006-.099h-.002a.228.228 0 0 1-.2.113c-.095 0-.209-.052-.209-.265v-.354h.11v.335c0 .115.035.193.135.193a.158.158 0 0 0 .145-.1.164.164 0 0 0 .01-.056v-.372h.11v.44zm.315-.615v.174h.158v.084h-.158v.327c0 .075.021.117.083.117.029 0 .05-.004.064-.008l.005.083a.264.264 0 0 1-.098.015c-.051 0-.093-.016-.119-.046-.031-.033-.042-.086-.042-.158v-.33h-.094v-.084h.094v-.145l.107-.029zm.251.715c0-.046.031-.079.075-.079s.074.032.074.079c0 .045-.029.079-.075.079-.044 0-.074-.034-.074-.079zm1.318-.305c-.006-.118-.014-.259-.013-.364h-.004a5.405 5.405 0 0 1-.106.32l-.149.409h-.082l-.136-.402a3.566 3.566 0 0 1-.097-.328h-.003c-.002.105-.009.246-.016.373l-.022.362h-.104l.059-.843h.139l.144.408c.035.104.064.196.085.284h.004a2.96 2.96 0 0 1 .089-.284l.15-.408h.139l.052.843h-.106l-.023-.37zm.36.087c.003.149.098.21.208.21a.41.41 0 0 0 .168-.031l.019.079a.482.482 0 0 1-.202.038c-.186 0-.298-.123-.298-.305s.108-.327.284-.327c.198 0 .25.174.25.285 0 .022-.002.04-.004.051h-.425zm.323-.079c.001-.07-.029-.179-.153-.179-.111 0-.16.103-.169.179h.322zm.364-.414c.001.037-.026.067-.07.067a.065.065 0 0 1-.066-.067c0-.039.029-.069.069-.069a.066.066 0 0 1 .067.069zm-.122.776v-.606h.11v.606h-.11zm.672-.283c.003.149.098.21.208.21a.41.41 0 0 0 .168-.031l.019.079a.482.482 0 0 1-.202.038c-.186 0-.298-.123-.298-.305s.108-.327.284-.327c.198 0 .25.174.25.285 0 .022-.002.04-.004.051h-.425zm.323-.079c.001-.07-.029-.179-.153-.179-.111 0-.16.103-.169.179h.322zm.289-.244l.086.13.061.099h.004c.02-.036.04-.067.06-.1l.085-.129h.119l-.207.293.213.313H44.4l-.089-.136a1.653 1.653 0 0 1-.065-.105h-.003c-.02.036-.041.069-.064.105l-.088.136h-.121l.215-.309-.205-.297h.123zm-14.848 1.823c.003.149.098.21.208.21a.41.41 0 0 0 .168-.031l.019.079a.482.482 0 0 1-.202.038c-.186 0-.298-.123-.298-.305 0-.183.108-.327.284-.327.198 0 .25.174.25.285 0 .022-.002.04-.004.051h-.425zm.323-.079c.001-.07-.029-.179-.153-.179-.111 0-.16.103-.169.179h.322zm.242-.08c0-.062-.001-.114-.005-.164h.097l.006.1h.002c.03-.057.1-.114.2-.114.084 0 .214.05.214.258v.362h-.11v-.349c0-.098-.036-.179-.14-.179a.156.156 0 0 0-.148.113.156.156 0 0 0-.008.051v.364h-.11v-.442zm.816-.334c.001.037-.026.067-.07.067a.065.065 0 0 1-.066-.067c0-.039.029-.069.069-.069a.066.066 0 0 1 .067.069zm-.122.776v-.606h.11v.606h-.11zm.292-.442c0-.062-.001-.114-.005-.164h.096l.005.098h.004a.208.208 0 0 1 .19-.111c.083 0 .145.05.171.121h.002a.255.255 0 0 1 .068-.079.208.208 0 0 1 .134-.042c.08 0 .199.052.199.263v.357h-.107v-.343c0-.116-.042-.187-.131-.187-.063 0-.111.046-.13.1a.18.18 0 0 0-.009.055v.374h-.108v-.363c0-.096-.042-.167-.126-.167-.069 0-.119.055-.136.11a.157.157 0 0 0-.009.054v.365h-.108v-.441zm1.888 0c0-.062-.001-.114-.005-.164h.097l.006.1h.002c.03-.057.1-.114.2-.114.084 0 .214.05.214.258v.362H33.1v-.349c0-.098-.036-.179-.14-.179a.156.156 0 0 0-.148.113.156.156 0 0 0-.008.051v.364h-.11v-.442zm1.242.134c0 .224-.155.322-.302.322-.164 0-.29-.12-.29-.312 0-.203.133-.322.3-.322.175.001.292.127.292.312zm-.48.007c0 .133.076.233.184.233.105 0 .184-.099.184-.235 0-.103-.052-.233-.181-.233-.131-.001-.187.119-.187.235zm.604.189a.29.29 0 0 0 .145.044c.08 0 .118-.04.118-.09 0-.052-.031-.081-.113-.111-.109-.039-.16-.099-.16-.171 0-.098.079-.178.209-.178.061 0 .115.018.149.038l-.027.08a.238.238 0 0 0-.124-.035c-.065 0-.101.038-.101.083 0 .05.036.073.115.103.105.04.159.093.159.183 0 .106-.083.181-.226.181a.344.344 0 0 1-.17-.041l.026-.086zm.642-.667v.174h.158v.084h-.158v.327c0 .075.021.117.083.117.029 0 .05-.004.064-.008l.005.083a.262.262 0 0 1-.097.015c-.051 0-.093-.016-.119-.046-.031-.033-.042-.086-.042-.158v-.33h-.094v-.084h.094V36.2l.106-.029zm.281.362c0-.071-.001-.133-.005-.189h.096l.004.119h.005c.028-.081.094-.133.168-.133.012 0 .021.001.031.004v.104a.192.192 0 0 0-.038-.004c-.077 0-.133.059-.148.141-.002.015-.005.032-.005.051v.323h-.109v-.416zm.945.109c0 .224-.155.322-.302.322-.164 0-.29-.12-.29-.312 0-.203.133-.322.3-.322.174.001.292.127.292.312zm-.481.007c0 .133.076.233.184.233.105 0 .184-.099.184-.235 0-.103-.052-.233-.181-.233-.131-.001-.187.119-.187.235zm.517.455a1.79 1.79 0 0 0 .075-.299l.123-.012a1.554 1.554 0 0 1-.119.304l-.079.007zm1.219-.76l.119.34c.02.055.036.105.049.155h.004c.014-.05.031-.1.051-.155l.117-.34h.115l-.238.606h-.105l-.23-.606h.118zm.681-.17c.001.037-.026.067-.07.067a.065.065 0 0 1-.066-.067c0-.039.029-.069.069-.069a.066.066 0 0 1 .067.069zm-.122.776v-.606h.11v.606h-.11zm.277-.112a.29.29 0 0 0 .145.044c.08 0 .118-.04.118-.09 0-.052-.031-.081-.113-.111-.109-.039-.16-.099-.16-.171 0-.098.079-.178.209-.178.061 0 .115.018.149.038l-.027.08a.238.238 0 0 0-.124-.035c-.065 0-.101.038-.101.083 0 .05.036.073.115.103.105.04.159.093.159.183 0 .106-.083.181-.226.181a.344.344 0 0 1-.17-.041l.026-.086zm1.417-.171c.003.149.098.21.208.21a.41.41 0 0 0 .168-.031l.019.079a.482.482 0 0 1-.202.038c-.186 0-.298-.123-.298-.305 0-.183.108-.327.284-.327.198 0 .25.174.25.285 0 .022-.002.04-.004.051h-.425zm.323-.079c.001-.07-.029-.179-.153-.179-.111 0-.16.103-.169.179h.322zm.578.362l-.009-.076h-.004a.225.225 0 0 1-.185.09c-.123 0-.185-.086-.185-.174 0-.146.13-.227.364-.225v-.012c0-.05-.014-.14-.138-.14a.31.31 0 0 0-.158.045l-.025-.073a.382.382 0 0 1 .199-.054c.185 0 .23.126.23.248v.226c0 .053.002.104.01.145h-.099zm-.017-.309c-.12-.002-.257.019-.257.136 0 .071.048.105.104.105a.15.15 0 0 0 .146-.101.107.107 0 0 0 .006-.035v-.105zm1.114.197a.29.29 0 0 0 .145.044c.08 0 .118-.04.118-.09 0-.052-.031-.081-.113-.111-.109-.039-.16-.099-.16-.171 0-.098.079-.178.209-.178.062 0 .115.018.149.038l-.027.08a.238.238 0 0 0-.124-.035c-.065 0-.101.038-.101.083 0 .05.036.073.115.103.105.04.159.093.159.183 0 .106-.083.181-.227.181a.344.344 0 0 1-.17-.041l.027-.086zm1.058-.196c0 .224-.155.322-.302.322-.164 0-.29-.12-.29-.312 0-.203.133-.322.3-.322.175.001.292.127.292.312zm-.48.007c0 .133.076.233.184.233.105 0 .184-.099.184-.235 0-.103-.051-.233-.182-.233-.13-.001-.186.119-.186.235zm.619-.587h.11v.888h-.11v-.888zm.801.723c0 .063.001.118.005.165h-.097l-.006-.099h-.002a.228.228 0 0 1-.2.113c-.095 0-.209-.052-.209-.265v-.354h.11v.335c0 .115.035.193.135.193a.158.158 0 0 0 .145-.1.164.164 0 0 0 .01-.056v-.372h.11v.44zm.315-.614v.174h.158v.084h-.158v.327c0 .075.021.117.083.117.029 0 .05-.004.064-.008l.005.083a.264.264 0 0 1-.098.015c-.051 0-.093-.016-.119-.046-.031-.033-.042-.086-.042-.158v-.33h-.094v-.084h.094V36.2l.107-.029zm.616.779l-.009-.076h-.004a.225.225 0 0 1-.185.09c-.123 0-.185-.086-.185-.174 0-.146.13-.227.364-.225v-.012c0-.05-.014-.14-.138-.14a.31.31 0 0 0-.158.045l-.025-.073a.382.382 0 0 1 .199-.054c.185 0 .23.126.23.248v.226c0 .053.002.104.01.145h-.099zm-.016-.309c-.12-.002-.257.019-.257.136 0 .071.048.105.104.105a.15.15 0 0 0 .146-.101.107.107 0 0 0 .006-.035v-.105zm-15.168 1.697a.29.29 0 0 0 .145.044c.08 0 .118-.04.118-.09 0-.052-.031-.081-.113-.111-.109-.039-.16-.099-.16-.171 0-.098.079-.178.209-.178.061 0 .115.018.149.038l-.027.08a.238.238 0 0 0-.124-.035c-.065 0-.101.038-.101.083 0 .05.036.073.115.103.105.04.159.093.159.183 0 .106-.083.181-.226.181a.344.344 0 0 1-.17-.041l.026-.086zm.845.112l-.009-.076h-.004a.225.225 0 0 1-.185.09c-.123 0-.185-.086-.185-.174 0-.146.13-.227.364-.225v-.012c0-.05-.014-.14-.138-.14a.31.31 0 0 0-.158.045l-.025-.073a.382.382 0 0 1 .199-.054c.185 0 .23.126.23.248v.226c0 .053.002.104.01.145h-.099zm-.016-.309c-.12-.002-.257.019-.257.136 0 .071.048.105.104.105a.15.15 0 0 0 .146-.101.107.107 0 0 0 .006-.035v-.105zm.283-.579h.11v.888h-.11v-.888zm.802.723c0 .063.001.118.005.165H31l-.006-.099h-.002a.228.228 0 0 1-.2.113c-.095 0-.209-.052-.209-.265v-.354h.11v.335c0 .115.035.193.135.193a.158.158 0 0 0 .145-.1.164.164 0 0 0 .01-.056v-.372h.11v.44zm.314-.614v.174h.158v.084h-.158v.327c0 .075.021.117.083.117.029 0 .05-.004.064-.008l.005.083a.262.262 0 0 1-.097.015c-.051 0-.093-.016-.119-.046-.031-.033-.042-.086-.042-.158v-.33h-.094v-.084h.093V37.7l.107-.029zm.617.779l-.009-.076h-.004a.225.225 0 0 1-.185.09c-.123 0-.185-.086-.185-.174 0-.146.13-.227.364-.225v-.012c0-.05-.014-.14-.138-.14a.31.31 0 0 0-.158.045l-.025-.073a.382.382 0 0 1 .199-.054c.185 0 .23.126.23.248v.226c0 .053.002.104.01.145h-.099zm-.016-.309c-.12-.002-.257.019-.257.136 0 .071.048.105.104.105a.15.15 0 0 0 .146-.101.107.107 0 0 0 .006-.035v-.105zm.411-.47v.174h.158v.084h-.158v.327c0 .075.021.117.083.117.029 0 .05-.004.064-.008l.005.083a.264.264 0 0 1-.098.015c-.051 0-.093-.016-.119-.046-.031-.033-.042-.086-.042-.158v-.33h-.094v-.084h.094V37.7l.107-.029zm.788.614c0 .063.001.118.005.165h-.097l-.006-.099h-.002a.228.228 0 0 1-.2.113c-.095 0-.209-.052-.209-.265v-.354h.11v.335c0 .115.035.193.135.193a.158.158 0 0 0 .145-.1.164.164 0 0 0 .01-.056v-.372h.11v.44zm.167.053a.29.29 0 0 0 .145.044c.08 0 .118-.04.118-.09 0-.052-.031-.081-.113-.111-.109-.039-.16-.099-.16-.171 0-.098.079-.178.209-.178.061 0 .115.018.149.038l-.027.08a.238.238 0 0 0-.124-.035c-.065 0-.101.038-.101.083 0 .05.036.073.115.103.105.04.159.093.159.183 0 .106-.083.181-.226.181a.344.344 0 0 1-.17-.041l.026-.086zm.47.047c0-.046.031-.079.075-.079s.074.032.074.079c0 .045-.029.079-.075.079-.044 0-.074-.034-.074-.079zm.736-.067c.049.03.12.055.195.055.111 0 .176-.059.176-.144 0-.079-.045-.124-.159-.168-.137-.049-.223-.12-.223-.239 0-.131.109-.229.273-.229.086 0 .149.02.187.042l-.03.089a.338.338 0 0 0-.16-.04c-.115 0-.159.069-.159.126 0 .079.051.118.168.163.143.055.215.124.215.248 0 .13-.096.243-.295.243a.436.436 0 0 1-.215-.054l.027-.092zm.696-.151c.002.149.098.21.208.21a.41.41 0 0 0 .168-.031l.019.079a.48.48 0 0 1-.201.038c-.187 0-.298-.123-.298-.305 0-.183.107-.327.284-.327.198 0 .25.174.25.285 0 .022-.002.04-.004.051h-.426zm.323-.078c.001-.07-.029-.179-.153-.179-.111 0-.16.103-.169.179h.322zm.765-.527v.732c0 .054.001.115.005.156h-.099l-.005-.105h-.003a.224.224 0 0 1-.206.119c-.146 0-.259-.124-.259-.308-.001-.201.124-.325.271-.325.093 0 .155.044.183.093h.002v-.362h.111zm-.11.529a.18.18 0 0 0-.005-.046.161.161 0 0 0-.159-.127c-.114 0-.181.1-.181.234 0 .123.06.224.179.224a.165.165 0 0 0 .161-.132.178.178 0 0 0 .005-.047v-.106zm.815.076c.003.149.098.21.208.21a.41.41 0 0 0 .168-.031l.019.079a.482.482 0 0 1-.202.038c-.186 0-.298-.123-.298-.305 0-.183.108-.327.284-.327.198 0 .25.174.25.285 0 .022-.002.04-.004.051h-.425zm.323-.078c.001-.07-.029-.179-.153-.179-.111 0-.16.103-.169.179h.322zm.749.196c0 .063.001.118.005.165h-.097l-.006-.099h-.003a.228.228 0 0 1-.2.113c-.095 0-.209-.052-.209-.265v-.354h.11v.335c0 .115.035.193.135.193a.158.158 0 0 0 .145-.1.164.164 0 0 0 .01-.056v-.372h.11v.44zm.644-.277c0-.062-.001-.114-.005-.164h.097l.006.1h.002c.03-.057.1-.114.2-.114.084 0 .214.05.214.258v.362h-.11v-.349c0-.098-.036-.179-.14-.179a.156.156 0 0 0-.148.113.156.156 0 0 0-.008.051v.364h-.11v-.442zm.817-.334c.001.037-.026.067-.07.067a.065.065 0 0 1-.066-.067c0-.039.029-.069.069-.069a.066.066 0 0 1 .067.069zm-.123.776v-.606h.11v.606h-.11zm.278-.112a.29.29 0 0 0 .145.044c.08 0 .118-.04.118-.09 0-.052-.031-.081-.113-.111-.109-.039-.16-.099-.16-.171 0-.098.079-.178.209-.178.062 0 .115.018.149.038l-.027.08a.238.238 0 0 0-.124-.035c-.065 0-.101.038-.101.083 0 .05.036.073.115.103.105.04.159.093.159.183 0 .106-.083.181-.227.181a.344.344 0 0 1-.17-.041l.027-.086zm.51-.776h.11v.888h-.11v-.888zm.757 0h.11v.888h-.11v-.888zm.801.723c0 .063.001.118.005.165h-.097l-.006-.099h-.002a.228.228 0 0 1-.2.113c-.095 0-.209-.052-.209-.265v-.354h.11v.335c0 .115.035.193.135.193a.158.158 0 0 0 .145-.1.164.164 0 0 0 .01-.056v-.372h.11v.44zm.614.143a.408.408 0 0 1-.174.035c-.183 0-.302-.124-.302-.309 0-.186.128-.322.325-.322a.37.37 0 0 1 .153.031l-.025.085a.256.256 0 0 0-.128-.029c-.139 0-.214.103-.214.229 0 .14.09.227.21.227a.31.31 0 0 0 .135-.03l.02.083zm.251-.754c.001.037-.026.067-.07.067a.065.065 0 0 1-.066-.067c0-.039.029-.069.069-.069a.066.066 0 0 1 .067.069zm-.123.776v-.606h.11v.606h-.11zm.293-.888h.11v.888h-.11v-.888zm.417.112c.001.037-.026.067-.07.067a.065.065 0 0 1-.066-.067c0-.039.029-.069.069-.069a.066.066 0 0 1 .067.069zm-.122.776v-.606h.11v.606h-.11zm.799-.165c0 .063.001.118.005.165h-.098l-.006-.099h-.002a.228.228 0 0 1-.2.113c-.095 0-.209-.052-.209-.265v-.354h.11v.335c0 .115.035.193.135.193a.158.158 0 0 0 .145-.1.164.164 0 0 0 .01-.056v-.372h.11v.44zm.167.053a.29.29 0 0 0 .145.044c.08 0 .118-.04.118-.09 0-.052-.031-.081-.113-.111-.109-.039-.16-.099-.16-.171 0-.098.079-.178.209-.178.062 0 .115.018.149.038l-.027.08a.238.238 0 0 0-.124-.035c-.065 0-.101.038-.101.083 0 .05.036.073.115.103.105.04.159.093.159.183 0 .106-.083.181-.227.181a.344.344 0 0 1-.17-.041l.027-.086zm-14.805.836c.001.037-.026.067-.07.067a.065.065 0 0 1-.066-.067c0-.039.029-.069.069-.069a.066.066 0 0 1 .067.069zm-.122.776v-.606h.11v.606h-.11zm.292-.442c0-.062-.001-.114-.005-.164h.097l.006.1h.002c.03-.057.1-.114.2-.114.084 0 .214.05.214.258v.362h-.11v-.349c0-.098-.036-.179-.14-.179a.156.156 0 0 0-.148.113.156.156 0 0 0-.008.051v.364h-.11v-.442zm.679.33a.29.29 0 0 0 .145.044c.08 0 .118-.04.118-.09 0-.052-.031-.081-.113-.111-.109-.039-.16-.099-.16-.171 0-.098.079-.178.209-.178.061 0 .115.018.149.038l-.027.08a.238.238 0 0 0-.124-.035c-.065 0-.101.038-.101.083 0 .05.036.073.115.103.105.04.159.093.159.183 0 .106-.083.181-.226.181a.344.344 0 0 1-.17-.041l.026-.086zm1.058-.196c0 .224-.155.322-.302.322-.164 0-.29-.12-.29-.312 0-.203.133-.322.3-.322.174.001.292.127.292.312zm-.48.007c0 .133.076.233.184.233.105 0 .184-.099.184-.235 0-.103-.051-.233-.182-.233-.13-.001-.186.119-.186.235zm.618-.587h.11v.888h-.11v-.888zm.357.605c.002.149.098.21.208.21a.41.41 0 0 0 .168-.031l.019.079a.48.48 0 0 1-.201.038c-.187 0-.298-.123-.298-.305s.107-.327.284-.327c.198 0 .25.174.25.285 0 .022-.002.04-.004.051h-.426zm.322-.078c.001-.07-.029-.179-.153-.179-.111 0-.16.103-.169.179h.322zm.242-.081c0-.062-.001-.114-.005-.164h.097l.006.1h.002c.03-.057.1-.114.2-.114.084 0 .214.05.214.258v.362h-.11v-.349c0-.098-.036-.179-.14-.179a.156.156 0 0 0-.148.113.156.156 0 0 0-.008.051v.364h-.11v-.442zm.679.33a.29.29 0 0 0 .145.044c.08 0 .118-.04.118-.09 0-.052-.031-.081-.113-.111-.109-.039-.16-.099-.16-.171 0-.098.079-.178.209-.178.061 0 .115.018.149.038l-.027.08a.238.238 0 0 0-.124-.035c-.065 0-.101.038-.101.083 0 .05.036.073.115.103.105.04.159.093.159.183 0 .106-.083.181-.226.181a.344.344 0 0 1-.17-.041l.026-.086zm.426.266a1.79 1.79 0 0 0 .075-.299l.123-.012a1.554 1.554 0 0 1-.119.304l-.079.007zm1.215-.93c.001.037-.026.067-.07.067a.065.065 0 0 1-.066-.067c0-.039.029-.069.069-.069a.066.066 0 0 1 .067.069zm-.123.776v-.606h.11v.606h-.11zm.293-.408c0-.078-.002-.14-.005-.198h.099l.005.104h.002a.237.237 0 0 1 .215-.118c.146 0 .256.124.256.308 0 .218-.133.325-.275.325a.214.214 0 0 1-.187-.095h-.002v.329h-.109v-.655zm.109.162a.17.17 0 0 0 .17.174c.116 0 .184-.095.184-.234 0-.121-.064-.225-.18-.225a.175.175 0 0 0-.166.136.17.17 0 0 0-.008.045v.104zm.587.134a.29.29 0 0 0 .145.044c.08 0 .118-.04.118-.09 0-.052-.031-.081-.113-.111-.109-.039-.16-.099-.16-.171 0-.098.079-.178.209-.178.062 0 .115.018.149.038l-.027.08a.238.238 0 0 0-.124-.035c-.065 0-.101.038-.101.083 0 .05.036.073.115.103.105.04.159.093.159.183 0 .106-.083.181-.227.181a.344.344 0 0 1-.17-.041l.027-.086zm1.017-.053c0 .063.001.118.005.165h-.097l-.006-.099h-.002a.228.228 0 0 1-.2.113c-.095 0-.209-.052-.209-.265v-.354h.11v.335c0 .115.035.193.135.193a.158.158 0 0 0 .145-.1.164.164 0 0 0 .01-.056v-.372h.11v.44zm.182-.277c0-.062-.001-.114-.005-.164h.096l.005.098h.004a.208.208 0 0 1 .19-.111c.083 0 .145.05.171.121h.003a.252.252 0 0 1 .067-.079.208.208 0 0 1 .134-.042c.08 0 .199.052.199.263v.357h-.108v-.343c0-.116-.043-.187-.131-.187a.14.14 0 0 0-.13.1.18.18 0 0 0-.009.055v.374h-.108v-.363c0-.096-.042-.167-.126-.167-.069 0-.119.055-.136.11a.157.157 0 0 0-.009.054v.365h-.108v-.441zm2.328-.446v.732c0 .054.001.115.005.156h-.099l-.005-.105h-.003a.224.224 0 0 1-.206.119c-.146 0-.259-.124-.259-.308-.001-.201.124-.325.271-.325.093 0 .155.044.183.093h.002v-.362h.111zm-.11.529a.18.18 0 0 0-.005-.046.161.161 0 0 0-.159-.127c-.114 0-.181.1-.181.234 0 .123.06.224.179.224a.165.165 0 0 0 .161-.132.178.178 0 0 0 .005-.047v-.106zm.799.194c0 .063.001.118.005.165h-.098l-.006-.099h-.002a.228.228 0 0 1-.2.113c-.095 0-.209-.052-.209-.265v-.354h.11v.335c0 .115.035.193.135.193a.158.158 0 0 0 .145-.1.164.164 0 0 0 .01-.056v-.372h.11v.44zm.73-.143c0 .224-.155.322-.302.322-.164 0-.29-.12-.29-.312 0-.203.133-.322.3-.322.174.001.292.127.292.312zm-.481.007c0 .133.076.233.184.233.105 0 .184-.099.184-.235 0-.103-.052-.233-.181-.233-.13-.001-.187.119-.187.235zm1.382-.141c0-.062-.001-.114-.005-.164h.097l.006.1h.002c.03-.057.1-.114.2-.114.084 0 .214.05.214.258v.362h-.11v-.349c0-.098-.036-.179-.14-.179a.156.156 0 0 0-.148.113.156.156 0 0 0-.008.051v.364h-.11v-.442zm1.242.134c0 .224-.155.322-.302.322-.164 0-.29-.12-.29-.312 0-.203.133-.322.3-.322.174.001.292.127.292.312zm-.481.007c0 .133.076.233.184.233.105 0 .184-.099.184-.235 0-.103-.051-.233-.182-.233-.129-.001-.186.119-.186.235zm.604.189a.29.29 0 0 0 .145.044c.08 0 .118-.04.118-.09 0-.052-.031-.081-.113-.111-.109-.039-.16-.099-.16-.171 0-.098.079-.178.209-.178.062 0 .115.018.149.038l-.028.078a.238.238 0 0 0-.124-.035c-.065 0-.101.038-.101.083 0 .05.036.073.115.103.105.04.159.093.159.183 0 .106-.083.181-.227.181a.344.344 0 0 1-.17-.041l.028-.084zm.643-.667v.174h.158v.084h-.158v.327c0 .075.021.117.083.117.029 0 .05-.004.064-.008l.005.083a.262.262 0 0 1-.097.015c-.051 0-.093-.016-.119-.046-.031-.033-.042-.086-.042-.158v-.33h-.094v-.084h.094V39.2l.106-.029zm.335.496c.002.149.098.21.208.21a.41.41 0 0 0 .168-.031l.019.079a.48.48 0 0 1-.201.038c-.187 0-.298-.123-.298-.305s.107-.327.284-.327c.198 0 .25.174.25.285 0 .022-.002.04-.004.051h-.426zm.322-.078c.001-.07-.029-.179-.153-.179-.111 0-.16.103-.169.179h.322zm.243-.056c0-.071-.001-.133-.005-.189h.096l.004.119h.005c.028-.081.094-.133.168-.133.012 0 .021.001.031.004v.104a.192.192 0 0 0-.038-.004c-.077 0-.133.059-.148.141-.002.015-.005.032-.005.051v.323h-.109v-.416zm-14.968 1.634c.003.149.098.21.208.21a.41.41 0 0 0 .168-.031l.019.079a.482.482 0 0 1-.202.038c-.186 0-.298-.123-.298-.305s.108-.327.284-.327c.198 0 .25.174.25.285 0 .022-.002.04-.004.051h-.425zm.323-.078c.001-.07-.029-.179-.153-.179-.111 0-.16.103-.169.179h.322zm.749.196c0 .063.001.118.005.165h-.097l-.006-.099h-.002a.228.228 0 0 1-.2.113c-.095 0-.209-.052-.209-.265v-.354h.11v.335c0 .115.035.193.135.193a.158.158 0 0 0 .145-.1.164.164 0 0 0 .01-.056v-.372h.11v.44zm.304-.611c.001.037-.026.067-.07.067a.065.065 0 0 1-.066-.067c0-.039.029-.069.069-.069a.066.066 0 0 1 .067.069zm-.122.776v-.606h.11v.606h-.11zm.277-.112a.29.29 0 0 0 .145.044c.08 0 .118-.04.118-.09 0-.052-.031-.081-.113-.111-.109-.039-.16-.099-.16-.171 0-.098.079-.178.209-.178.061 0 .115.018.149.038l-.027.08a.238.238 0 0 0-.124-.035c-.065 0-.101.038-.101.083 0 .05.036.073.115.103.105.04.159.093.159.183 0 .106-.083.181-.226.181a.344.344 0 0 1-.17-.041l.026-.086zm.51-.33c0-.062-.001-.114-.005-.164h.096l.005.098h.004a.208.208 0 0 1 .19-.111c.083 0 .145.05.171.121h.003a.252.252 0 0 1 .067-.079.208.208 0 0 1 .134-.042c.08 0 .199.052.199.263v.357h-.108v-.343c0-.116-.043-.187-.131-.187a.14.14 0 0 0-.13.1.18.18 0 0 0-.009.055v.374h-.108v-.363c0-.096-.042-.167-.126-.167-.069 0-.119.055-.136.11a.157.157 0 0 0-.009.054v.365h-.108v-.441zm1.591.134c0 .224-.155.322-.302.322-.164 0-.29-.12-.29-.312 0-.203.133-.322.3-.322.174.001.292.127.292.312zm-.481.007c0 .133.076.233.184.233.105 0 .184-.099.184-.235 0-.103-.051-.233-.182-.233-.129-.001-.186.119-.186.235zm1.142-.587v.732c0 .054.001.115.005.156h-.099l-.005-.105h-.002a.223.223 0 0 1-.206.119c-.146 0-.259-.124-.259-.308-.001-.201.124-.325.271-.325.093 0 .155.044.183.093h.002v-.362h.11zm-.11.529a.18.18 0 0 0-.005-.046.161.161 0 0 0-.159-.127c-.114 0-.181.1-.181.234 0 .123.06.224.179.224a.165.165 0 0 0 .161-.132.178.178 0 0 0 .005-.047v-.106zm1.99-.083c0-.062-.001-.114-.005-.164h.096l.005.098h.004a.208.208 0 0 1 .19-.111c.083 0 .145.05.171.121h.002a.255.255 0 0 1 .068-.079.208.208 0 0 1 .134-.042c.08 0 .199.052.199.263v.357h-.107v-.343c0-.116-.042-.187-.131-.187-.063 0-.111.046-.13.1a.18.18 0 0 0-.009.055v.374h-.108v-.363c0-.096-.042-.167-.126-.167-.069 0-.119.055-.136.11a.157.157 0 0 0-.009.054v.365h-.108v-.441zm1.591.134c0 .224-.155.322-.302.322-.164 0-.29-.12-.29-.312 0-.203.133-.322.3-.322.174.001.292.127.292.312zm-.481.007c0 .133.076.233.184.233.105 0 .184-.099.184-.235 0-.103-.052-.233-.181-.233-.13-.001-.187.119-.187.235zm1.142-.587v.732c0 .054.001.115.005.156h-.099l-.005-.105h-.003a.224.224 0 0 1-.206.119c-.146 0-.259-.124-.259-.308-.001-.201.124-.325.271-.325.093 0 .155.044.183.093h.002v-.362h.111zm-.11.529a.18.18 0 0 0-.005-.046.161.161 0 0 0-.159-.127c-.114 0-.181.1-.181.234 0 .123.06.224.179.224a.165.165 0 0 0 .161-.132.178.178 0 0 0 .005-.047v-.106zm.353.076c.003.149.098.21.208.21a.41.41 0 0 0 .168-.031l.019.079a.482.482 0 0 1-.202.038c-.186 0-.298-.123-.298-.305s.108-.327.284-.327c.198 0 .25.174.25.285 0 .022-.002.04-.004.051h-.425zm.323-.078c.001-.07-.029-.179-.153-.179-.111 0-.16.103-.169.179h.322zm.242-.056c0-.071-.001-.133-.005-.189h.096l.004.119h.005c.028-.081.094-.133.168-.133.012 0 .021.001.031.004v.104a.192.192 0 0 0-.038-.004c-.078 0-.133.059-.147.141a.26.26 0 0 0-.005.051v.323h-.109v-.416zm.738.417l-.009-.076h-.004a.225.225 0 0 1-.185.09c-.123 0-.185-.086-.185-.174 0-.146.13-.227.364-.225v-.012c0-.05-.014-.14-.138-.14a.31.31 0 0 0-.158.045l-.025-.073a.382.382 0 0 1 .199-.054c.185 0 .23.126.23.248v.226c0 .053.002.104.01.145h-.099zm-.016-.309c-.12-.002-.257.019-.257.136 0 .071.048.105.104.105a.15.15 0 0 0 .146-.101.107.107 0 0 0 .006-.035v-.105zm.411-.47v.174h.158v.084h-.158v.327c0 .075.021.117.083.117.029 0 .05-.004.064-.008l.005.083a.262.262 0 0 1-.097.015c-.051 0-.093-.016-.119-.046-.031-.033-.042-.086-.042-.158v-.33h-.095v-.084h.094V40.7l.107-.029zm.404.003c.001.037-.026.067-.07.067a.065.065 0 0 1-.066-.067c0-.039.029-.069.069-.069a.066.066 0 0 1 .067.069zm-.123.776v-.606h.11v.606h-.11zm.8-.165c0 .063.001.118.005.165h-.098l-.006-.099H40.6a.228.228 0 0 1-.2.113c-.095 0-.209-.052-.209-.265v-.354h.11v.335c0 .115.035.193.135.193a.158.158 0 0 0 .145-.1.164.164 0 0 0 .01-.056v-.372h.11v.44zm.167.053a.29.29 0 0 0 .145.044c.08 0 .118-.04.118-.09 0-.052-.031-.081-.113-.111-.109-.039-.16-.099-.16-.171 0-.098.079-.178.209-.178.062 0 .115.018.149.038l-.027.08a.238.238 0 0 0-.124-.035c-.065 0-.101.038-.101.083 0 .05.036.073.115.103.105.04.159.093.159.183 0 .106-.083.181-.227.181a.344.344 0 0 1-.17-.041l.027-.086zm2.543.112l-.009-.076h-.004a.225.225 0 0 1-.185.09c-.123 0-.185-.086-.185-.174 0-.146.13-.227.364-.225v-.012c0-.05-.014-.14-.138-.14a.31.31 0 0 0-.158.045l-.025-.073a.382.382 0 0 1 .199-.054c.185 0 .23.126.23.248v.226c0 .053.002.104.01.145h-.099zm-.016-.309c-.12-.002-.257.019-.257.136 0 .071.048.105.104.105a.15.15 0 0 0 .146-.101.107.107 0 0 0 .006-.035v-.105zm.806-.579v.732c0 .054.001.115.005.156h-.099l-.005-.105H44.1a.224.224 0 0 1-.206.119c-.146 0-.259-.124-.259-.308-.001-.201.124-.325.271-.325.093 0 .155.044.183.093h.002v-.362h.111zm-.11.529a.18.18 0 0 0-.005-.046.161.161 0 0 0-.159-.127c-.114 0-.181.1-.181.234 0 .123.06.224.179.224a.165.165 0 0 0 .161-.132.178.178 0 0 0 .005-.047v-.106zm.254.294c0-.046.031-.079.075-.079s.074.032.074.079c0 .045-.029.079-.075.079-.045 0-.074-.034-.074-.079zm-15.164 1.433c.049.03.12.055.195.055.111 0 .176-.059.176-.144 0-.079-.045-.124-.159-.168-.137-.049-.223-.12-.223-.239 0-.131.109-.229.273-.229.086 0 .149.02.187.042l-.03.089a.338.338 0 0 0-.16-.04c-.115 0-.159.069-.159.126 0 .079.051.118.168.163.143.055.215.124.215.248 0 .13-.096.243-.295.243a.436.436 0 0 1-.215-.054l.027-.092zm1.137-.176c0 .224-.155.322-.302.322-.164 0-.29-.12-.29-.312 0-.203.133-.322.3-.322.175.001.292.127.292.312zm-.48.007c0 .133.076.233.184.233.105 0 .184-.099.184-.235 0-.103-.051-.233-.182-.233-.13-.001-.186.119-.186.235zm.572-.587h.11v.888h-.11v-.888zm.31.605c.003.149.098.21.208.21a.41.41 0 0 0 .168-.031l.019.079a.482.482 0 0 1-.202.038c-.186 0-.298-.123-.298-.305s.108-.327.284-.327c.198 0 .25.174.25.285 0 .022-.002.04-.004.051h-.425zm.323-.078c.001-.07-.029-.179-.153-.179-.111 0-.16.103-.169.179h.322zm.531.361l-.009-.076h-.004a.225.225 0 0 1-.185.09c-.123 0-.185-.086-.185-.174 0-.146.13-.227.364-.225v-.012c0-.05-.014-.14-.138-.14a.31.31 0 0 0-.158.045l-.025-.073a.382.382 0 0 1 .199-.054c.185 0 .23.126.23.248v.226c0 .053.002.104.01.145h-.099zm-.016-.309c-.12-.002-.257.019-.257.136 0 .071.048.105.104.105a.15.15 0 0 0 .146-.101.107.107 0 0 0 .006-.035v-.105zm.365-.47v.174h.158v.084h-.158v.327c0 .075.021.117.083.117.029 0 .05-.004.064-.008l.005.083a.262.262 0 0 1-.097.015c-.051 0-.093-.016-.119-.046-.031-.033-.042-.086-.042-.158v-.33h-.094v-.084h.094V42.2l.106-.029zm.559.004c.001.037-.026.067-.07.067a.065.065 0 0 1-.066-.067c0-.039.029-.069.069-.069.041 0 .067.03.067.069zm-.123.775v-.606h.11v.606h-.11zm.246-.442c0-.063-.001-.114-.005-.164h.097l.006.1h.002c.03-.057.1-.114.2-.114.084 0 .214.05.214.258v.362h-.11v-.349c0-.098-.036-.179-.14-.179a.156.156 0 0 0-.148.113.156.156 0 0 0-.008.051v.364h-.11v-.442zm.776-.337v.174h.158v.084h-.158v.327c0 .075.021.117.083.117.029 0 .05-.004.064-.008l.005.083a.262.262 0 0 1-.097.015c-.051 0-.093-.016-.119-.046-.031-.033-.042-.086-.042-.158v-.33h-.096v-.084h.094V42.2l.108-.029zm.288.496c.003.149.098.21.208.21a.41.41 0 0 0 .168-.031l.019.079a.482.482 0 0 1-.202.038c-.186 0-.298-.123-.298-.305s.108-.327.284-.327c.198 0 .25.174.25.285 0 .022-.002.04-.004.051h-.425zm.323-.078c.001-.07-.029-.179-.153-.179-.111 0-.16.103-.169.179h.322zm.196-.527h.11v.888h-.11v-.888zm.249 0h.11v.888h-.11v-.888zm.31.605c.002.149.098.21.208.21a.41.41 0 0 0 .168-.031l.019.079a.48.48 0 0 1-.201.038c-.187 0-.298-.123-.298-.305s.107-.327.284-.327c.198 0 .25.174.25.285 0 .022-.002.04-.004.051h-.426zm.323-.078c.001-.07-.029-.179-.153-.179-.111 0-.16.103-.169.179h.322zm.717-.245c-.002.044-.005.093-.005.167v.352c0 .139-.028.224-.086.277a.322.322 0 0 1-.22.073.391.391 0 0 1-.201-.05l.028-.084c.04.025.103.047.177.047.113 0 .195-.059.195-.211v-.067h-.002a.217.217 0 0 1-.193.101c-.15 0-.258-.128-.258-.295 0-.205.134-.322.273-.322.105 0 .163.055.189.105h.002l.005-.092h.096zm-.114.239a.158.158 0 0 0-.16-.166c-.105 0-.18.089-.18.229 0 .119.06.218.179.218a.161.161 0 0 0 .153-.113.201.201 0 0 0 .009-.059v-.109zm.58.367l-.009-.076h-.004a.225.225 0 0 1-.185.09c-.123 0-.185-.086-.185-.174 0-.146.13-.227.364-.225v-.012c0-.05-.014-.14-.138-.14a.31.31 0 0 0-.158.045l-.025-.073a.382.382 0 0 1 .199-.054c.185 0 .23.126.23.248v.226c0 .053.002.104.01.145h-.099zm-.016-.309c-.12-.002-.257.019-.257.136 0 .071.048.105.104.105a.15.15 0 0 0 .146-.101.107.107 0 0 0 .006-.035v-.105zm.237-.133c0-.063-.001-.114-.005-.164h.096l.005.098h.004a.208.208 0 0 1 .19-.111c.083 0 .145.05.171.121h.002a.255.255 0 0 1 .068-.079.208.208 0 0 1 .134-.042c.08 0 .199.052.199.263v.357h-.107v-.343c0-.116-.042-.187-.131-.187-.063 0-.111.046-.13.1a.18.18 0 0 0-.009.055v.374h-.108v-.363c0-.096-.042-.167-.126-.167-.069 0-.119.055-.136.11a.157.157 0 0 0-.009.054v.365h-.108v-.441zm1.331-.337v.174h.158v.084h-.158v.327c0 .075.021.117.083.117.029 0 .05-.004.064-.008l.005.083a.264.264 0 0 1-.098.015c-.051 0-.093-.016-.119-.046-.031-.033-.042-.086-.042-.158v-.33h-.094v-.084h.094V42.2l.107-.029zm.288.496c.003.149.098.21.208.21a.41.41 0 0 0 .168-.031l.019.079a.482.482 0 0 1-.202.038c-.186 0-.298-.123-.298-.305s.108-.327.284-.327c.198 0 .25.174.25.285 0 .022-.002.04-.004.051h-.425zm.323-.078c.001-.07-.029-.179-.153-.179-.111 0-.16.103-.169.179h.322zm.196-.081c0-.063-.001-.114-.005-.164h.096l.005.098h.004a.208.208 0 0 1 .19-.111c.083 0 .145.05.171.121h.003a.252.252 0 0 1 .067-.079.208.208 0 0 1 .134-.042c.08 0 .199.052.199.263v.357h-.107v-.343c0-.116-.043-.187-.131-.187a.14.14 0 0 0-.13.1.18.18 0 0 0-.009.055v.374h-.108v-.363c0-.096-.042-.167-.126-.167-.069 0-.119.055-.136.11a.157.157 0 0 0-.009.054v.365h-.108v-.441zm.996.034c0-.078-.002-.14-.005-.198h.099l.005.104h.002a.237.237 0 0 1 .215-.118c.146 0 .256.124.256.308 0 .218-.133.325-.275.325a.214.214 0 0 1-.187-.095h-.002v.329h-.109v-.655zm.109.162a.17.17 0 0 0 .17.174c.116 0 .184-.095.184-.234 0-.121-.064-.225-.18-.225a.175.175 0 0 0-.166.136.17.17 0 0 0-.008.045v.104zm1.104-.062c0 .224-.155.322-.302.322-.164 0-.29-.12-.29-.312 0-.203.133-.322.3-.322.175.001.292.127.292.312zm-.48.007c0 .133.076.233.184.233.105 0 .184-.099.184-.235 0-.103-.051-.233-.182-.233-.13-.001-.186.119-.186.235zm.572-.116c0-.071-.001-.133-.005-.189h.096l.004.119h.005c.028-.081.094-.133.168-.133.012 0 .021.001.031.004v.104a.192.192 0 0 0-.038-.004c-.078 0-.133.059-.147.141a.26.26 0 0 0-.005.051v.323h-.109v-.416zm.49-.358c.001.037-.026.067-.07.067a.065.065 0 0 1-.066-.067c0-.039.029-.069.069-.069.041 0 .067.03.067.069zm-.122.775v-.606h.11v.606h-.11zm.241 0c.002-.041.005-.103.005-.156v-.732h.109v.38h.002a.227.227 0 0 1 .207-.111c.15 0 .256.125.255.309 0 .217-.136.324-.271.324a.217.217 0 0 1-.203-.114h-.004l-.005.1h-.095zm.114-.243a.17.17 0 0 0 .17.169c.115 0 .184-.094.184-.233 0-.121-.062-.225-.18-.225a.174.174 0 0 0-.167.135.196.196 0 0 0-.006.045v.109zm1.063.078c0 .063.001.118.005.165h-.097l-.006-.099H42.6a.228.228 0 0 1-.2.113c-.095 0-.209-.052-.209-.265v-.354h.11v.335c0 .115.035.193.135.193a.158.158 0 0 0 .145-.1.164.164 0 0 0 .01-.056v-.372h.11v.44zm.121.053a.29.29 0 0 0 .145.044c.08 0 .118-.04.118-.09 0-.052-.031-.081-.113-.111-.109-.039-.16-.099-.16-.171 0-.098.079-.178.209-.178.062 0 .115.018.149.038l-.027.08a.238.238 0 0 0-.124-.035c-.065 0-.101.038-.101.083 0 .05.036.073.115.103.105.04.159.093.159.183 0 .106-.083.181-.227.181a.344.344 0 0 1-.17-.041l.027-.086zm1.215-.053c0 .063.001.118.005.165h-.098l-.006-.099h-.002a.228.228 0 0 1-.2.113c-.095 0-.209-.052-.209-.265v-.354h.11v.335c0 .115.035.193.135.193a.158.158 0 0 0 .145-.1.164.164 0 0 0 .01-.056v-.372h.11v.44zm.314-.614v.174h.158v.084h-.158v.327c0 .075.021.117.083.117.029 0 .05-.004.064-.008l.005.083a.262.262 0 0 1-.097.015c-.051 0-.093-.016-.119-.046-.031-.033-.042-.086-.042-.158v-.33h-.094v-.084h.094V42.2l.106-.029zm-14.633 1.391v.732c0 .054.001.115.005.156h-.099l-.005-.105h-.003a.224.224 0 0 1-.206.119c-.146 0-.259-.124-.259-.308-.001-.201.124-.325.271-.325.093 0 .155.044.183.093h.002v-.362h.111zm-.111.529a.18.18 0 0 0-.005-.046.161.161 0 0 0-.159-.127c-.114 0-.181.1-.181.234 0 .123.06.224.179.224a.165.165 0 0 0 .161-.132.178.178 0 0 0 .005-.047v-.106zm.8.194c0 .063.001.118.005.165h-.098l-.006-.099h-.002a.228.228 0 0 1-.2.113c-.095 0-.209-.052-.209-.265v-.354h.11v.335c0 .115.035.193.135.193a.158.158 0 0 0 .145-.1.164.164 0 0 0 .01-.056v-.372h.11v.44zm.729-.143c0 .224-.155.322-.302.322-.164 0-.29-.12-.29-.312 0-.203.133-.322.3-.322.175.001.292.127.292.312zm-.48.007c0 .133.076.233.184.233.105 0 .184-.099.184-.235 0-.103-.052-.233-.181-.233-.131-.001-.187.119-.187.235zm.517.455a1.79 1.79 0 0 0 .075-.299l.123-.012a1.554 1.554 0 0 1-.119.304l-.079.007zm1.192-.76l.119.34c.02.055.036.105.049.155h.004c.014-.05.031-.1.051-.155l.117-.34h.115l-.238.606h-.105l-.23-.606h.118zm.682-.169c.001.037-.026.067-.07.067a.065.065 0 0 1-.066-.067c0-.039.029-.069.069-.069.041 0 .067.03.067.069zm-.123.775v-.606h.11v.606h-.11zm.278-.112a.29.29 0 0 0 .145.044c.08 0 .118-.04.118-.09 0-.052-.031-.081-.113-.111-.109-.039-.16-.099-.16-.171 0-.098.079-.178.209-.178.061 0 .115.018.149.038l-.027.08a.238.238 0 0 0-.124-.035c-.065 0-.101.038-.101.083 0 .05.036.073.115.103.105.04.159.093.159.183 0 .106-.083.181-.226.181a.344.344 0 0 1-.17-.041l.026-.086zm1.665.112l-.009-.076h-.004a.225.225 0 0 1-.185.09c-.123 0-.185-.086-.185-.174 0-.146.13-.227.364-.225v-.012c0-.05-.014-.14-.138-.14a.31.31 0 0 0-.158.045l-.025-.073a.382.382 0 0 1 .199-.054c.185 0 .23.126.23.248v.226c0 .053.002.104.01.145h-.099zm-.017-.309c-.12-.002-.257.019-.257.136 0 .071.048.105.104.105a.15.15 0 0 0 .146-.101.107.107 0 0 0 .006-.035v-.105zm.284-.132c0-.062-.001-.114-.005-.164h.097l.006.1h.002c.03-.057.1-.114.2-.114.084 0 .214.05.214.258v.362h-.11v-.349c0-.098-.036-.179-.14-.179a.156.156 0 0 0-.148.113.156.156 0 0 0-.008.051v.364h-.11v-.442zm2.061.133c0 .224-.155.322-.302.322-.164 0-.29-.12-.29-.312 0-.203.133-.322.3-.322.175.001.292.127.292.312zm-.48.007c0 .133.076.233.184.233.105 0 .184-.099.184-.235 0-.103-.052-.233-.181-.233-.131-.001-.187.119-.187.235zm.618-.14c0-.062-.001-.114-.005-.164h.096l.005.098h.004a.208.208 0 0 1 .19-.111c.083 0 .145.05.171.121h.003a.252.252 0 0 1 .067-.079.208.208 0 0 1 .134-.042c.08 0 .199.052.199.263v.357h-.108v-.343c0-.116-.043-.187-.131-.187a.14.14 0 0 0-.13.1.18.18 0 0 0-.009.055v.374h-.108v-.363c0-.096-.042-.167-.126-.167-.069 0-.119.055-.136.11a.157.157 0 0 0-.009.054v.365h-.108v-.441zm1.043 0c0-.062-.001-.114-.005-.164h.097l.006.1h.002c.03-.057.1-.114.2-.114.084 0 .214.05.214.258v.362h-.11v-.349c0-.098-.036-.179-.14-.179a.156.156 0 0 0-.148.113.156.156 0 0 0-.008.051v.364h-.11v-.442zm.816-.334c.001.037-.026.067-.07.067a.065.065 0 0 1-.066-.067c0-.039.029-.069.069-.069.041 0 .067.03.067.069zm-.122.775v-.606h.11v.606h-.11zm.277-.112a.29.29 0 0 0 .145.044c.08 0 .118-.04.118-.09 0-.052-.031-.081-.113-.111-.109-.039-.16-.099-.16-.171 0-.098.079-.178.209-.178.061 0 .115.018.149.038l-.027.08a.238.238 0 0 0-.124-.035c-.065 0-.101.038-.101.083 0 .05.036.073.115.103.105.04.159.093.159.183 0 .106-.083.181-.226.181a.344.344 0 0 1-.17-.041l.026-.086zm1.315 0a.29.29 0 0 0 .145.044c.08 0 .118-.04.118-.09 0-.052-.031-.081-.113-.111-.109-.039-.16-.099-.16-.171 0-.098.079-.178.209-.178.062 0 .115.018.149.038l-.027.08a.238.238 0 0 0-.124-.035c-.065 0-.101.038-.101.083 0 .05.036.073.115.103.105.04.159.093.159.183 0 .106-.083.181-.227.181a.344.344 0 0 1-.17-.041l.027-.086zm1.016-.053c0 .063.001.118.005.165h-.098l-.006-.099h-.002a.228.228 0 0 1-.2.113c-.095 0-.209-.052-.209-.265v-.354h.11v.335c0 .115.035.193.135.193a.158.158 0 0 0 .145-.1.164.164 0 0 0 .01-.056v-.372h.11v.44zm.182-.276c0-.062-.001-.114-.005-.164h.096l.005.098h.004a.208.208 0 0 1 .19-.111c.083 0 .145.05.171.121h.002a.255.255 0 0 1 .068-.079.208.208 0 0 1 .134-.042c.08 0 .199.052.199.263v.357h-.107v-.343c0-.116-.042-.187-.131-.187-.063 0-.111.046-.13.1a.18.18 0 0 0-.009.055v.374h-.108v-.363c0-.096-.042-.167-.126-.167-.069 0-.119.055-.136.11a.157.157 0 0 0-.009.054v.365h-.108v-.441zm1.043 0c0-.062-.001-.114-.005-.164h.096l.005.098h.004a.208.208 0 0 1 .19-.111c.083 0 .145.05.171.121h.002a.255.255 0 0 1 .068-.079.208.208 0 0 1 .134-.042c.08 0 .199.052.199.263v.357h-.107v-.343c0-.116-.042-.187-.131-.187-.063 0-.111.046-.13.1a.18.18 0 0 0-.009.055v.374h-.108v-.363c0-.096-.042-.167-.126-.167-.069 0-.119.055-.136.11a.157.157 0 0 0-.009.054v.365h-.108v-.441zm1.59.133c0 .224-.155.322-.302.322-.164 0-.29-.12-.29-.312 0-.203.133-.322.3-.322.174.001.292.127.292.312zm-.48.007c0 .133.076.233.184.233.105 0 .184-.099.184-.235 0-.103-.052-.233-.181-.233-.131-.001-.187.119-.187.235zm-14.297 1.195c-.002.044-.005.093-.005.167v.352c0 .139-.028.224-.086.277a.322.322 0 0 1-.22.073.391.391 0 0 1-.201-.05l.028-.084c.04.025.103.047.177.047.113 0 .195-.059.195-.211v-.067H29.6a.217.217 0 0 1-.193.101c-.15 0-.258-.128-.258-.295 0-.205.134-.322.273-.322.105 0 .163.055.189.105h.002l.005-.092h.097zm-.113.239a.158.158 0 0 0-.16-.166c-.105 0-.18.089-.18.229 0 .119.06.218.179.218a.161.161 0 0 0 .153-.113.201.201 0 0 0 .009-.059v-.109zm.283-.05c0-.071-.001-.133-.005-.189h.096l.004.119h.005c.028-.081.094-.133.168-.133.012 0 .021.001.031.004v.104a.192.192 0 0 0-.038-.004c-.078 0-.133.059-.147.141a.26.26 0 0 0-.005.051v.323h-.109v-.416zm.738.417l-.009-.076h-.004a.225.225 0 0 1-.185.09c-.123 0-.185-.086-.185-.174 0-.146.13-.227.364-.225v-.012c0-.05-.014-.14-.138-.14a.31.31 0 0 0-.158.045l-.025-.073a.382.382 0 0 1 .199-.054c.185 0 .23.126.23.248v.226c0 .053.002.104.01.145h-.099zm-.017-.309c-.12-.002-.257.019-.257.136 0 .071.048.105.104.105a.15.15 0 0 0 .146-.101.107.107 0 0 0 .006-.035v-.105zm.345.026c.003.149.098.21.208.21a.41.41 0 0 0 .168-.031l.019.079a.482.482 0 0 1-.202.038c-.186 0-.298-.123-.298-.305 0-.183.108-.327.284-.327.198 0 .25.174.25.285 0 .022-.002.04-.004.051h-.425zm.323-.078c.001-.07-.029-.179-.153-.179-.111 0-.16.103-.169.179h.322zm.674.339a.408.408 0 0 1-.174.035c-.183 0-.302-.124-.302-.309 0-.186.127-.322.325-.322a.37.37 0 0 1 .153.031l-.025.085a.256.256 0 0 0-.128-.029c-.139 0-.214.103-.214.229 0 .14.09.227.21.227a.31.31 0 0 0 .135-.03l.02.083zm.669-.286c0 .224-.155.322-.302.322-.164 0-.29-.12-.29-.312 0-.203.133-.322.3-.322.174.001.292.127.292.312zm-.481.007c0 .133.076.233.184.233.105 0 .184-.099.184-.235 0-.103-.051-.233-.182-.233-.129-.001-.186.119-.186.235zm.518.455a1.79 1.79 0 0 0 .075-.299l.123-.012a1.554 1.554 0 0 1-.119.304l-.079.007zm1.191-.595c0-.062-.001-.114-.005-.164h.096l.005.098h.004a.208.208 0 0 1 .19-.111c.083 0 .145.05.171.121h.003a.252.252 0 0 1 .067-.079.208.208 0 0 1 .134-.042c.08 0 .199.052.199.263v.357h-.108v-.343c0-.116-.043-.187-.131-.187a.14.14 0 0 0-.13.1.18.18 0 0 0-.009.055v.374h-.108v-.363c0-.096-.042-.167-.126-.167-.069 0-.119.055-.136.11a.157.157 0 0 0-.009.054v.365h-.108v-.441zm1.104.158c.003.149.098.21.208.21a.41.41 0 0 0 .168-.031l.019.079a.482.482 0 0 1-.202.038c-.186 0-.298-.123-.298-.305 0-.183.108-.327.284-.327.198 0 .25.174.25.285 0 .022-.002.04-.004.051h-.425zm.323-.078c.001-.07-.029-.179-.153-.179-.111 0-.16.103-.169.179h.322zm.242-.527h.11v.888h-.11v-.888zm1.679 0v.732c0 .054.001.115.005.156h-.099l-.005-.105h-.003a.224.224 0 0 1-.206.119c-.146 0-.259-.124-.259-.308-.001-.201.124-.325.271-.325.093 0 .155.044.183.093h.002v-.362h.111zm-.11.529a.18.18 0 0 0-.005-.046.161.161 0 0 0-.159-.127c-.114 0-.181.1-.181.234 0 .123.06.224.179.224a.165.165 0 0 0 .161-.132.178.178 0 0 0 .005-.047v-.106zm.415-.416c.001.037-.026.067-.07.067a.065.065 0 0 1-.066-.067c0-.039.029-.069.069-.069.041 0 .067.03.067.069zm-.123.775v-.606h.11v.606h-.11zm.628 0l-.009-.076h-.004a.225.225 0 0 1-.185.09c-.123 0-.185-.086-.185-.174 0-.146.13-.227.364-.225v-.012c0-.05-.014-.14-.138-.14a.31.31 0 0 0-.158.045l-.025-.073a.382.382 0 0 1 .199-.054c.185 0 .23.126.23.248v.226c0 .053.002.104.01.145h-.099zm-.016-.309c-.12-.002-.257.019-.257.136 0 .071.048.105.104.105a.15.15 0 0 0 .146-.101.107.107 0 0 0 .006-.035v-.105zm.283-.132c0-.062-.001-.114-.005-.164h.096l.005.098h.004a.208.208 0 0 1 .19-.111c.083 0 .145.05.171.121h.003a.252.252 0 0 1 .067-.079.208.208 0 0 1 .134-.042c.08 0 .199.052.199.263v.357h-.108v-.343c0-.116-.043-.187-.131-.187a.14.14 0 0 0-.13.1.18.18 0 0 0-.009.055v.374h-.106v-.363c0-.096-.042-.167-.126-.167-.069 0-.119.055-.136.11a.157.157 0 0 0-.009.054v.365h-.109v-.441zm1.889.329a.29.29 0 0 0 .145.044c.08 0 .118-.04.118-.09 0-.052-.031-.081-.113-.111-.109-.039-.16-.099-.16-.171 0-.098.079-.178.209-.178.061 0 .115.018.149.038l-.027.08a.238.238 0 0 0-.124-.035c-.065 0-.101.038-.101.083 0 .05.036.073.115.103.105.04.159.093.159.183 0 .106-.083.181-.226.181a.344.344 0 0 1-.17-.041l.026-.086zm.942.09a.408.408 0 0 1-.174.035c-.183 0-.302-.124-.302-.309 0-.186.128-.322.325-.322a.37.37 0 0 1 .153.031l-.025.085a.256.256 0 0 0-.128-.029c-.139 0-.214.103-.214.229 0 .14.09.227.21.227a.31.31 0 0 0 .135-.03l.02.083zm.464.022l-.009-.076h-.004a.225.225 0 0 1-.185.09c-.123 0-.185-.086-.185-.174 0-.146.13-.227.364-.225v-.012c0-.05-.014-.14-.138-.14a.31.31 0 0 0-.158.045l-.025-.073a.382.382 0 0 1 .199-.054c.185 0 .23.126.23.248v.226c0 .053.002.104.01.145h-.099zm-.016-.309c-.12-.002-.257.019-.257.136 0 .071.048.105.104.105a.15.15 0 0 0 .146-.101.107.107 0 0 0 .006-.035v-.105zm.344.026c.003.149.098.21.208.21a.41.41 0 0 0 .168-.031l.019.079a.482.482 0 0 1-.202.038c-.186 0-.298-.123-.298-.305 0-.183.108-.327.284-.327.198 0 .25.174.25.285 0 .022-.002.04-.004.051h-.425zm.323-.078c.001-.07-.029-.179-.153-.179-.111 0-.16.103-.169.179h.322zm.285-.245l.119.34c.02.055.036.105.049.155h.004c.014-.05.031-.1.051-.155l.117-.34h.115l-.238.606h-.105l-.23-.606h.118zm1.094.298c0 .224-.155.322-.302.322-.164 0-.29-.12-.29-.312 0-.203.133-.322.3-.322.174.001.292.127.292.312zm-.48.007c0 .133.076.233.184.233.105 0 .184-.099.184-.235 0-.103-.052-.233-.181-.233-.131-.001-.187.119-.187.235zm.618-.587h.11v.888h-.11v-.888zm.631.888l-.009-.076h-.004a.225.225 0 0 1-.185.09c-.123 0-.185-.086-.185-.174 0-.146.13-.227.364-.225v-.012c0-.05-.014-.14-.138-.14a.31.31 0 0 0-.158.045l-.025-.073a.382.382 0 0 1 .199-.054c.185 0 .23.126.23.248v.226c0 .053.002.104.01.145h-.099zm-.017-.309c-.12-.002-.257.019-.257.136 0 .071.048.105.104.105a.15.15 0 0 0 .146-.101.107.107 0 0 0 .006-.035v-.105z"/></svg>