<svg xmlns="http://www.w3.org/2000/svg" width="60" height="60" viewBox="0 0 60 60"><g fill="#343434"><path d="M37.156 24.536h2.007v2.006h-2.007zM13.934 40.02h5.876v5.876h-5.876zm0-27.096h5.876v5.877h-5.876z"/><path d="M23.682 9.054H10.063v13.619h13.619V9.054zm-2.006 2.004v9.607h-9.608v-9.607h9.608z"/><path d="M46.835 26.471h-1.866v-1.935h-2.004v1.935h-1.936v1.936h-1.936v2.003H41.1v-1.933h1.866v5.736H41.1v-1.936h-3.944v2.006h3.873v1.862h-1.936v3.944H41.1v-1.936h1.866v3.869h3.87v1.865h-3.87v1.937H41.1v-1.937h-1.937v-1.933h-2.007v2.004h1.937v1.866h-3.799V40.09h1.933v-2.006h-3.869v-1.866h1.936v-5.877h-1.936v-1.863h1.936V18.73h-1.936v-1.934h-1.937V14.93h3.873V9.054h-2.006v3.87h-1.866v-1.933h-1.933V9.054h-3.943v3.94h2.007v-1.935h1.865v1.935h1.933v1.865h-5.806v2.004h3.873v1.866h-1.936v1.936h-1.936v3.87H19.74v1.935h-1.866v-1.935h-3.94v1.935h-1.866v-1.935h-2.004v2.006H12v5.735h-1.936v2.006h2.004v-1.936h1.866v1.936h5.876v-1.936h1.866v1.936h3.869v5.806h1.936v1.865h-1.936v3.94h1.936v1.866h-1.936v2.003h3.943v-1.936h1.863v1.936h7.812v-1.936h1.866v1.936h5.877v-2.003h-3.873v-1.866h3.873v-1.936h1.933v-7.813h-5.806v-1.862h1.937v-5.806h1.866v1.933h1.936v1.867h-1.936v2.006h2.003v-1.936h1.936v-3.94h-1.936v-1.865h1.936v-2.006h-3.939v1.936zm-21.22-1.865h1.937v-3.87h1.865v1.936h1.933v1.864h-1.933v1.935h-3.802v-1.865zm7.743 23.156v-1.866h1.866v1.866h-1.866zm-5.806-13.549V30.41h1.865v3.803h-1.865zm3.799.071v3.8h-3.799v-1.866h1.936v-1.933h1.863zm-3.87-5.806v1.863h-1.866v-1.863h1.866zm5.806-.07h-1.936v1.933h-1.863v-3.798h3.799v1.865zm0-7.672v1.865h-1.866v-1.865h1.866zm-5.735 21.287h5.735v1.865h-5.735v-1.865zM15.94 28.408v-1.865h1.866v1.865H15.94zm7.671 2.003v1.867h-1.865v-1.867h1.865zm-1.935-1.933v1.863H19.81v-1.863h1.866zm1.935-1.935v1.865h-1.865v-1.865h1.865zm-3.872 5.735h-5.736v-1.867h5.736v1.867z"/><path d="M41.029 12.924h5.877v5.877h-5.877zM10.063 49.765h13.619V36.146H10.063v13.619zm2.004-2.003v-9.607h9.608v9.607h-9.608zm36.704-1.936h2.003v2.003h-2.003z"/><path d="M37.156 9.054v13.619h13.619V9.054H37.156zm11.615 2.004v9.607h-9.608v-9.607h9.608z"/></g></svg>