<svg xmlns="http://www.w3.org/2000/svg" width="60" height="60" viewBox="0 0 60 60"><path fill="#25A7E0" d="M47.164 48.831H12.521l-2.286-21h38.53z"/><path fill="#67C6E2" d="M48.633 28l-6.04-17H16.415l-6.04 17h5.836l-.535-3.897h.513l-.464-3.923h.746l-.283-3.744h.745l-.333-3.372h25.463l-.332 3.372h.746l-.334 3.744h.797l-.442 3.923h.49L42.454 28z"/><path d="M23.362 41.78l2.859 2.747 8.284-8.313-2.859-2.747zm-.992 3.803l3.849-1.057-2.857-2.745zm11.722-14.581l-1.896 1.903 2.859 2.747 1.896-1.903zM16.211 28h26.243l.534-3.897h-.49l.442-3.923h-.797l.334-3.744h-.746l.332-3.372H16.6l.333 3.372h-.745l.283 3.744h-.746l.464 3.923h-.513z" fill="#FFF"/></svg>