<svg xmlns="http://www.w3.org/2000/svg" width="60" height="60" viewBox="0 0 60 60"><path fill="#8DC04E" d="M47.664 48.831H13.021l-2.286-21h38.53z"/><path fill="#FFF" d="M16.711 28h26.243l.534-3.897h-.49l.442-3.923h-.797l.334-3.744h-.746l.332-3.372H17.1l.333 3.372h-.745l.283 3.744h-.746l.464 3.923h-.513z"/><path fill="#AECF6E" d="M49.133 28l-6.04-17H16.915l-6.04 17h5.836l-.535-3.897h.513l-.464-3.923h.746l-.283-3.744h.745l-.333-3.372h25.463l-.332 3.372h.746l-.334 3.744h.797l-.442 3.923h.49L42.954 28z"/><path fill="#FFF" d="M37.153 37.078h-6.101v-6.076h-2.44v6.076h-6.1v2.43h6.1v6.075h2.44v-6.075h6.101z"/></svg>