<svg xmlns="http://www.w3.org/2000/svg" width="60" height="60" viewBox="0 0 60 60"><path fill="#E9463A" d="M45.117 29.943c0-.681-.048-1.35-.132-2.009a23.881 23.881 0 0 0 4.258-2.808c-.215-.96-.573-1.878-.921-2.796a28.744 28.744 0 0 0-4.905.52 15.372 15.372 0 0 0-2.362-3.401c.721-1.455 1.262-2.959 1.709-4.602-.774-.6-1.546-1.21-2.401-1.696a26.622 26.622 0 0 0-3.483 3.101 14.602 14.602 0 0 0-4.131-1.403 24.038 24.038 0 0 0-1.297-4.499 14.826 14.826 0 0 0-1.298-.045h-.001c-.433-.002-.866.009-1.299.045a24.047 24.047 0 0 0-1.296 4.498 14.654 14.654 0 0 0-4.131 1.403 26.687 26.687 0 0 0-3.483-3.1c-.856.485-1.628 1.096-2.402 1.696.448 1.642.988 3.146 1.71 4.601a15.345 15.345 0 0 0-2.362 3.402 28.754 28.754 0 0 0-4.904-.52c-.348.918-.706 1.836-.921 2.796a23.821 23.821 0 0 0 4.258 2.807 15.68 15.68 0 0 0-.132 2.009c0 .682.047 1.351.132 2.009a23.936 23.936 0 0 0-4.258 2.808c.216.96.573 1.877.921 2.795a28.767 28.767 0 0 0 4.905-.519 15.366 15.366 0 0 0 2.362 3.4c-.72 1.455-1.262 2.959-1.71 4.602.774.6 1.546 1.21 2.402 1.695a26.527 26.527 0 0 0 3.483-3.099 14.631 14.631 0 0 0 4.131 1.402c.283 1.5.712 3.047 1.297 4.497.433.036.866.047 1.299.046h.001c.432.001.865-.01 1.298-.046a24.02 24.02 0 0 0 1.297-4.497 14.663 14.663 0 0 0 4.131-1.402 26.535 26.535 0 0 0 3.483 3.099c.856-.485 1.628-1.096 2.401-1.695-.447-1.643-.988-3.146-1.709-4.602a15.4 15.4 0 0 0 2.362-3.4c1.573.306 3.217.485 4.905.519.348-.918.705-1.836.921-2.795a23.996 23.996 0 0 0-4.258-2.809c.082-.655.13-1.324.13-2.007zm-14.963 9.035c-4.87 0-8.819-4.046-8.819-9.035 0-4.99 3.949-9.035 8.819-9.035 4.871 0 8.82 4.046 8.82 9.035s-3.949 9.035-8.82 9.035z"/></svg>