<svg xmlns="http://www.w3.org/2000/svg" width="60" height="60" viewBox="0 0 60 60"><path fill="#343434" d="M47.019 12.631S36.15 22.738 13.239 22.738v12.426c1.737 0 3.393.058 4.987.155L21.193 50.9l9.538.085-1.877-9.96h.011l-.846-4.444c13.077 2.664 18.999 8.157 18.999 8.157V12.631z"/><path fill="#E9463A" d="M50.519 44.182c0 .975-.788 1.773-1.75 1.773-.963 0-1.75-.798-1.75-1.773V13.167c0-.975.788-1.773 1.75-1.773.963 0 1.75.798 1.75 1.773v31.015zm-36.405-9.011c-.481-.004-.875-1.603-.875-3.554v-5.335c0-1.95.356-3.549.792-3.553.436-.004 1.034-.031.386-.031h-2.834c-.911 0-1.656 1.596-1.656 3.546v5.417c0 1.95.745 3.546 1.656 3.546h2.954c.713 0 .058-.031-.423-.036z"/></svg>