<svg xmlns="http://www.w3.org/2000/svg" width="60" height="60" viewBox="0 0 60 60"><g fill="#E9463A"><path d="M15.516 33.44V13.963H8.097v21.314l4.471-3.307zM19.495 35.422l2.814-3.475V13.963h-6.521v19.611zM24.24 29.564l4.866 2.741V13.963h-6.525V31.61zM39.761 24.918l2.934 1.989V13.963h-6.523v17.113zM33.887 34.999l2.014-3.456v-17.58h-6.524v18.495zM34.744 37.688l-5.367-3.021v11.37h6.524V35.748z"/><path d="M40.467 28.096l-4.295 7.196v10.745h6.523V29.886zM42.968 13.963v12.85l6.255-8.347.99.313-7.245 11.015v16.243h8.935V13.963zM20.142 37.877l-4.354-2.17v10.33h6.521V35.199zM24.82 32.099l-2.239 2.764v11.174h6.525V34.514zM12.936 34.286l-4.839 3.627v8.124h7.419V35.572z"/></g></svg>