<svg xmlns="http://www.w3.org/2000/svg" width="60" height="60" viewBox="0 0 60 60"><path fill="#8DC04E" d="M39.911 17.727c-.501-5.409-5.048-9.644-10.587-9.644-5.874 0-10.635 4.761-10.635 10.636 0 .946.135 1.858.367 2.73a8.085 8.085 0 0 0-4.789 7.381 8.089 8.089 0 0 0 13.846 5.679 10.354 10.354 0 0 0 7.228 2.934c5.74 0 10.393-4.654 10.393-10.394 0-4.097-2.378-7.63-5.823-9.322z"/><path fill="#343434" d="M31.89 36.842a10.409 10.409 0 0 1-3.728-2.289c.126 6.573-1.369 16.343-1.369 16.343s1.579 1.021 3.232 1.021c1.654 0 3.182-1.021 3.182-1.021s-.926-6.001-1.158-8.971c-.12-1.534-.154-3.519-.159-5.083z"/></svg>