<svg xmlns="http://www.w3.org/2000/svg" width="60" height="60" viewBox="0 0 60 60"><g opacity=".7"><path fill="#343434" d="M31.035 25.583c-.05-4.587-3.981-8.291-8.828-8.291-4.836 0-8.76 3.688-8.827 8.261l-.006-.01.002.088-.002.04c0 .036.005.07.006.105.06 6.109 2.401 7.848 3.299 7.848.421 0 .643-.239.769-.494a7.88 7.88 0 0 1-1.221-2.297c-.075.021-.248.007-.645-.107-.953-.274-2.077-5.179-.408-5.643a.87.87 0 0 1 .768.126c-.003.011-.008.02-.012.031l.398.449s7.731-2.343 7.731-3.734c-.005 1.59 3.031 3.973 3.965 3.917.768-.047.684-.473.63-.624a.95.95 0 0 1 .42.03c1.682.511.685 5.386-.261 5.633s-.653-.038-.653-.038l-.008-.059a7.926 7.926 0 0 1-1.191 2.269c.12.273.348.542.797.542.91 0 3.304-1.776 3.304-8.082l-.027.04z"/><path fill="#E9463A" d="M29.073 25.278a1.01 1.01 0 0 0-.42-.03c.054.152.138.578-.63.624-.934.057-3.97-2.326-3.965-3.917 0 1.391-7.731 3.734-7.731 3.734l-.398-.449c.003-.011.008-.02.012-.031a.867.867 0 0 0-.31-.134c-.023-.005-.045-.011-.068-.014a.957.957 0 0 0-.39.022c-1.669.464-.546 5.368.408 5.643.396.114.57.128.645.107.139.418.313.814.513 1.189l.05.088c.197.36.416.703.658 1.02 1.171 1.536 2.851 2.516 4.738 2.516 1.906 0 3.602-1 4.774-2.564.237-.317.451-.657.645-1.014.014-.026.03-.05.044-.077.196-.372.366-.764.503-1.177l.008.059s-.293.286.653.038 1.943-5.123.261-5.633zm-6.929 8.347c-1.757-.039-3.446-1.376-3.002-2.005.35-.496 1.014.769 3.002.769 2.085 0 2.653-1.265 3.002-.769.445.629-1.148 1.966-3.002 2.005z"/><path fill="#DD3B36" d="M26.088 35.14c-1.183 1.108-2.485 1.773-4.13 1.773-1.638 0-3.039-.66-4.22-1.761-3.414.678-5.712 2.128-5.712 3.808 0 .291-.389 4.218-.389 4.218.947 1.922 18.842 2.092 19.842.229v-4.446c.001-1.691-1.951-3.149-5.391-3.821z"/></g><path fill="#343434" d="M28.123 30.83c.015.021.028.043.043.063l-.025-.065-.018.002z"/><path fill="#DD3B36" d="M42.421 36.409c-1.658 1.553-3.734 2.485-6.039 2.485-2.296 0-4.384-.926-6.04-2.468-4.785.951-8.068 2.983-8.068 5.337 0 .408-.075 5.912-.075 5.912 1.327 2.694 26.281 2.933 28.281.32v-6.232c0-2.369-3.237-4.411-8.059-5.354z"/><path fill="#343434" d="M46.637 21.276c.411-.149 1.055-5.906.874-5.64-.18.266-1.364.287-1.364.287.711-.304.587-3.33.169-2.656-.45.724-1.833.855-1.833.855s.286-.026.545-.683c.289-.732.015-1.962.015-1.962-1.621.904-2.742 1.323-5.403 1.469a9.719 9.719 0 0 0-3.254-.565c-5.752 0-10.418 5.023-10.5 11.252.188-.312.437-.545.78-.638.432-.114.784-.03 1.075.17l-.015.042s.777 1.016.815 1.133 1.11.504 1.332.233.022-2.557 1.423-3.727c1.534-1.281 8.751-1.475 11.162.183 1.643 1.13 1.086 3.418 1.385 3.816.295.392.929-1.184 1.076-1.33l.002.006c.061-.056.128-.1.197-.142l.086-.051c.261-.135.572-.174.945-.067.313.092.555.294.745.567l.001-.031c0-.876-.099-1.724-.271-2.543l.013.022z"/><path fill="#E9463A" d="M46.582 23.491l-.017-.017a1.266 1.266 0 0 0-.416-.215 1.39 1.39 0 0 0-.562-.043 1.18 1.18 0 0 0-.383.11 6.533 6.533 0 0 0-.086.051 1.424 1.424 0 0 0-.197.142l-.002-.006c-.147.146-.781 1.722-1.076 1.33-.299-.398.258-2.686-1.385-3.816-2.411-1.658-9.628-1.465-11.162-.183-1.401 1.17-1.201 3.456-1.423 3.727s-1.294-.116-1.332-.233-.815-1.133-.815-1.133l.015-.042-.004-.002a1.238 1.238 0 0 0-.564-.205 1.501 1.501 0 0 0-.507.037 1.138 1.138 0 0 0-.439.232c-.011.009-.019.021-.03.03a1.6 1.6 0 0 0-.311.376c-1.096 1.824.21 6.731 1.351 7.05.556.155.799.174.903.146 1.31 3.837 4.552 6.557 8.352 6.557 3.809 0 7.056-2.733 8.361-6.584l.011.081s-.411.39.916.052c1.151-.293 2.351-5.323 1.111-7.108a1.54 1.54 0 0 0-.309-.334zm-10.145 11.14c-2.463-.053-4.83-1.874-4.208-2.732.49-.675 1.421 1.048 4.208 1.048 2.923 0 3.718-1.724 4.208-1.048.623.858-1.61 2.679-4.208 2.732z"/></svg>