<svg xmlns="http://www.w3.org/2000/svg" width="60" height="60" viewBox="0 0 60 60"><path fill="#343434" d="M40.574 16.173a15.759 15.759 0 0 0-11.168-4.624l-.026 15.817 11.194-11.193z"/><path fill="#8DC04E" d="M50.926 42.5v-6.226h-7.764v-7.765h-6.225v7.765h-7.765V42.5h7.765v7.765h6.225V42.5z"/><path fill="#343434" d="M36.937 28.509h6.225v7.764h.753a15.762 15.762 0 0 0 1.735-7.178 15.78 15.78 0 0 0-4.612-11.173L29.824 29.137l7.113 7.113v-7.741z"/><path fill="#343434" d="M29.172 42.5v-6.226h5.707l-6.986-6.986s-.004-15.437-.002-15.779c-2.735.026-7.346.733-11.195 4.581-5.892 5.892-6.192 16.218-.007 22.403 5.418 5.418 13.786 6.086 19.939 2.007h-7.456z"/></svg>