<svg xmlns="http://www.w3.org/2000/svg" width="60" height="60" viewBox="0 0 60 60"><path d="M36.09 41.213h-7.411V35.27h7.411v-7.41h5.941v7.41h2.133v-24H12.257v31.908H36.09zm5.941 0h2.133v1.965h-2.133z" fill-rule="evenodd" clip-rule="evenodd" fill="#FFF"/><path fill="#8DC04E" d="M49.442 41.213V35.27h-7.411v-7.41H36.09v7.41h-7.411v5.943h7.411v7.41h5.941v-7.41z"/><path d="M42.031 41.213h2.133v1.965h-2.133zm-5.941 1.965v-1.965h-7.411v-.035h-4.638v-4.572h4.638V35.27h7.411v-.664h-1.264V28.86h1.264v-1h5.942v1h.133v5.746h-.133v.664h2.133v-24H12.257v31.908H36.09zm-1.265-23.133h7.339v6.815h-7.339v-6.815zm-10.784 0h8.784v6.815h-8.784v-6.815zm0 8.815h8.784v5.746h-8.784V28.86zm-9.784-8.815h7.785v6.815h-7.785v-6.815zm0 8.815h7.785v5.746h-7.785V28.86zm0 7.746h7.785v4.572h-7.785v-4.572z" fill="#343434"/></svg>