<svg xmlns="http://www.w3.org/2000/svg" width="60" height="60" viewBox="0 0 60 60"><path fill="#FFF" d="M44.662 6.951h-21.64L12.804 18.693v31.926h31.858z"/><path fill="#B4B4B4" d="M23.022 6.951L12.804 18.693h10.218z"/><path fill="#343434" d="M44.662 12.822v37.797H18.769v2.43h28.427V12.822z"/><path fill-rule="evenodd" clip-rule="evenodd" fill="#343434" d="M38.226 26.783v-.961c0-2.995-1.369-4.492-4.106-4.492h-8.253c-2.723 0-4.112 1.352-4.18 4.046h-.006v1.908h-1.657v2.199h1.657v1.995h-1.657v2.199h1.657v1.857c0 2.698 1.263 4.046 3.788 4.046h8.652c2.737 0 4.106-1.497 4.106-4.492v-.961h-3.07v1.487c0 .512-.253.769-.759.769h-8.889c-.533 0-.797-.337-.797-1.012v-1.695h5.436v-2.199h-5.436v-1.995h5.436v-2.199h-5.436v-2.069c0-.459.212-.689.637-.689h9.049c.506 0 .759.257.759.769v1.488h3.069z"/></svg>