<svg xmlns="http://www.w3.org/2000/svg" width="60" height="60" viewBox="0 0 60 60"><path fill="#FFF" d="M44.662 6.951h-21.64L12.804 18.693v31.926h31.858z"/><path fill="#B4B4B4" d="M23.022 6.951L12.804 18.693h10.218z"/><path fill="#343434" d="M44.662 12.822v37.797H18.769v2.43h28.427V12.822z"/><path fill="#343434" d="M35.426 29.007a9.984 9.984 0 0 1-2.319 7.049 6.053 6.053 0 0 0-5.6-8.357 6.054 6.054 0 0 0-5.806 7.769 12.089 12.089 0 0 1-2.894-4.731h-1.601c1.421 5.747 5.563 9.582 11.539 9.582 5.259 0 11.697-5.565 12.265-11.312h-5.584zm-7.919.338a4.41 4.41 0 1 1-.003 8.821 4.41 4.41 0 0 1 .003-8.821z"/></svg>