<svg xmlns="http://www.w3.org/2000/svg" width="60" height="60" viewBox="0 0 60 60"><path fill="#F6B639" d="M45.929 8.166H24.29L14.071 19.908v31.926h31.858z"/><path fill="#FCCD7A" d="M24.29 8.166L14.071 19.908H24.29z"/><path fill="#FFF" d="M18.88 32.5c1.328 5 5.198 8.76 10.782 8.76 4.913 0 10.929-5.76 11.459-10.76h-5.218c.157 3-.661 3.996-2.17 5.793.276-.667.43-1.836.43-2.603 0-3.124-2.533-5.815-5.658-5.815-3.124 0-5.657 2.494-5.657 5.619 0 .56.083 1.961.234 2.471-1.215-1.23-2.152-1.464-2.705-3.464H18.88zm13.744.794a4.12 4.12 0 1 1-8.24-.001 4.12 4.12 0 0 1 8.24.001z"/></svg>