<svg xmlns="http://www.w3.org/2000/svg" width="60" height="60" viewBox="0 0 60 60"><path fill="#25A7E0" d="M47.207 22.54H34.741a2.343 2.343 0 0 0-2.336 2.336V28h-3.748v-3.165a2.343 2.343 0 0 0-2.336-2.336H13.855a2.343 2.343 0 0 0-2.336 2.336v10.289a2.343 2.343 0 0 0 2.336 2.336h12.466a2.343 2.343 0 0 0 2.336-2.336V32h3.748v3.165a2.343 2.343 0 0 0 2.336 2.336h12.466a2.343 2.343 0 0 0 2.336-2.336v-10.29a2.342 2.342 0 0 0-2.336-2.335zM24.92 33.723h-9.663v-7.486h9.663V28h-2.35c-1.375 0-2.5.9-2.5 2s1.125 2 2.5 2h2.35v1.723zm20.885.04h-9.663V32h2.428c1.375 0 2.5-.9 2.5-2s-1.125-2-2.5-2h-2.428v-1.723h9.663v7.486z"/></svg>