<svg xmlns="http://www.w3.org/2000/svg" width="60" height="60" viewBox="0 0 60 60"><path fill="#E9463A" d="M27.723 36.486c0 .914.485 1.713 1.21 2.158l-.421 6.515h3.494l-.42-6.515a2.529 2.529 0 0 0 1.21-2.158 2.538 2.538 0 0 0-5.073 0M16.73 49.399V28.834c2.178-.144 10.591-.692 13.668-.692 2.99.001 11.238.546 13.391.692v20.563c-2.155.192-10.572.924-13.53.924-3.075 0-11.389-.731-13.529-.922"/><path fill="#343434" d="M23.16 28.438v-6.239c0-4.642 2.409-7.007 7.1-7.007s7.099 2.365 7.099 7.007v6.233c1.289.073 2.55.151 3.642.22v-6.453c0-5.872-4.818-10.649-10.741-10.649s-10.74 4.777-10.74 10.649v6.456c1.089-.068 2.348-.145 3.64-.217z"/></svg>