<svg xmlns="http://www.w3.org/2000/svg" width="60" height="60" viewBox="0 0 60 60"><path fill-rule="evenodd" clip-rule="evenodd" fill="#8DC04E" d="M49.193 22.257V20.23c0-6.315-2.886-9.473-8.659-9.473H23.13c-5.742 0-8.673 2.851-8.815 8.533h-.013v4.022h-3.495v4.637h3.495v4.208h-3.495v4.637h3.495v3.917c0 5.689 2.663 8.533 7.988 8.533h18.244c5.773 0 8.659-3.158 8.659-9.473v-2.026H42.72v3.136c0 1.08-.533 1.622-1.6 1.622H22.373c-1.123 0-1.68-.711-1.68-2.135v-3.575h11.465v-4.637H20.693v-4.208h11.465v-4.637H20.693v-4.362c0-.968.447-1.453 1.343-1.453H41.12c1.067 0 1.6.541 1.6 1.621v3.138h6.473z"/></svg>