<svg xmlns="http://www.w3.org/2000/svg" width="60" height="60" viewBox="0 0 60 60"><path fill="#343434" d="M37.958 38.628c-.616 0-1.184.156-1.668.481l-3.26-4.69c5.79-8.028 12.045-17.048 12.553-19.22.962-4.111-.387-7.001-.387-7.001L30 30.061 14.803 8.2s-1.348 2.889-.387 7.001c.508 2.171 6.763 11.191 12.553 19.22l-3.26 4.69c-.484-.325-1.052-.481-1.668-.481-1.924 0-4.312 1.502-6.044 4.006-2.314 3.346-2.582 7.213-.597 8.638.499.358 1.093.528 1.74.528 1.878 0 4.196-1.434 5.917-3.832v.003s3.069-4.079 6.943-9.38a933.017 933.017 0 0 0 6.943 9.38v-.004c1.721 2.397 4.039 3.832 5.917 3.832.646 0 1.241-.17 1.74-.528 1.984-1.425 1.717-5.292-.597-8.638-1.733-2.505-4.121-4.007-6.045-4.007zm-15.134 3.964c-.083 1.198-.63 2.607-1.501 3.866-1.373 1.985-3.143 3.023-4.183 3.023-.188 0-.332-.035-.428-.105-.218-.157-.412-.693-.354-1.539.083-1.198.63-2.607 1.501-3.866 1.373-1.985 3.143-3.023 4.183-3.023.188 0 .332.035.428.105.218.156.412.693.354 1.539zm20.464 6.784c-.097.069-.241.105-.428.105-1.039 0-2.81-1.038-4.183-3.023-.871-1.259-1.418-2.668-1.501-3.866-.058-.846.135-1.383.354-1.539.097-.069.241-.105.428-.105 1.039 0 2.81 1.038 4.182 3.023.871 1.259 1.418 2.668 1.501 3.866.059.846-.135 1.383-.353 1.539z"/></svg>