<svg xmlns="http://www.w3.org/2000/svg" width="60" height="60" viewBox="0 0 60 60"><path fill="#8DC04E" d="M19.858 35.488c0 .901.479 1.69 1.193 2.128l-.415 6.425h3.446l-.414-6.425a2.495 2.495 0 0 0 1.194-2.128 2.503 2.503 0 0 0-5.004 0M9.016 48.223V27.942c2.148-.142 10.445-.682 13.479-.682 2.949.001 11.083.538 13.207.682v20.279c-2.125.19-10.426.912-13.343.912-3.033 0-11.233-.721-13.343-.91"/><path fill="#343434" d="M39.188 10.361c-5.841 0-10.592 4.711-10.592 10.502v6.639c1.235.068 2.476.142 3.59.212v-6.851c0-4.578 2.376-6.91 7.002-6.91 4.626 0 7.001 2.332 7.001 6.91v7.379c.776.046 2.912.092 3.592.135v-7.514c0-5.791-4.752-10.502-10.593-10.502z"/></svg>